#VRML V2.0 utf8
# 3D model generated by easyeda2kicad.py (https://github.com/uPesy/easyeda2kicad.py)

Shape{
    appearance Appearance {
        material  Material 	{
            diffuseColor 0.8509803921568627 0.8509803921568627 0.8509803921568627
            specularColor 0.4235294117647059 0.4235294117647059 0.4235294117647059
            ambientIntensity 0.851
            transparency 0.0
            shininess 0.5
        }
    }
    geometry IndexedFaceSet {
        ccw TRUE
        solid FALSE
        coord DEF co Coordinate {
            point [
                -0.9056 -0.5118 0.7087, 0.9054 -0.5118 0.7087, -0.9056 -0.4331 0.7087, 0.9054 -0.4331 0.7087, -0.9056 -0.5118 0.5118, -0.9056 -0.4331 0.5118, -0.8269 -0.5118 0.5118, -0.8269 -0.4331 0.5118, -0.8269 -0.5118 0.315, -0.8269 -0.4331 0.315, -0.8472 -0.5091 0.315, -0.9056 -0.1772 0.315, -0.9056 -0.4331 0.315, -0.9029 -0.4535 0.315, -0.8951 -0.4724 0.315, -0.8153 -0.4215 0.315, -0.8216 -0.4134 0.315, -0.8255 -0.4039 0.315, -0.8269 -0.3937 0.315, -0.8269 -0.1772 0.315, -0.7875 -0.4331 0.315, -0.7977 -0.4317 0.315, -0.8072 -0.4278 0.315, -0.8825 -0.4888 0.315, -0.8662 -0.5013 0.315, -0.9056 -0.1181 0.2559, -0.9056 -0.4331 -0.0079, -0.9056 -0.1772 -0.0079, -0.9056 -0.1181 0.0512, -0.9056 -0.164 0.3135, -0.9056 -0.124 0.2815, -0.9056 -0.1196 0.269, -0.9056 -0.1515 0.3091, -0.9056 -0.1404 0.3021, -0.9056 -0.131 0.2927, -0.9056 -0.1515 -0.002, -0.9056 -0.124 0.0256, -0.9056 -0.1404 0.005, -0.9056 -0.131 0.0144, -0.9056 -0.1196 0.038, -0.9056 -0.164 -0.0064, -0.8269 -0.1772 -0.0079, -0.8269 -0.5118 -0.0079, -0.8472 -0.5091 -0.0079, -0.8072 -0.4278 -0.0079, -0.8662 -0.5013 -0.0079, -0.8153 -0.4215 -0.0079, -0.8269 -0.3937 -0.0079, -0.8255 -0.4039 -0.0079, -0.9029 -0.4535 -0.0079, -0.8216 -0.4134 -0.0079, -0.8951 -0.4724 -0.0079, -0.8825 -0.4888 -0.0079, -0.7481 -0.4331 -0.0079, -0.7481 -0.5118 -0.0079, -0.7875 -0.4331 -0.0079, -0.7977 -0.4317 -0.0079, -0.7481 -0.5118 0.2283, -0.7481 -0.4331 0.2283, -0.6891 -0.5118 0.2283, -0.6891 -0.4331 0.2283, -0.6891 -0.5118 0.1102, -0.6891 -0.4331 0.1102, -0.6103 -0.5118 0.0315, -0.6103 -0.4331 0.0315, 0.6101 -0.5118 0.0315, 0.6101 -0.4331 0.0315, 0.6889 -0.5118 0.1102, 0.6889 -0.4331 0.1102, 0.6889 -0.5118 0.2283, 0.6889 -0.4331 0.2283, 0.7479 -0.5118 0.2283, 0.7479 -0.4331 0.2283, 0.7479 -0.5118 -0.0079, 0.7479 -0.4331 -0.0079, 0.8267 -0.1772 -0.0079, 0.9054 -0.1772 -0.0079, 0.8267 -0.3937 -0.0079, 0.9054 -0.4331 -0.0079, 0.8253 -0.4039 -0.0079, 0.8214 -0.4134 -0.0079, 0.8267 -0.5118 -0.0079, 0.7873 -0.4331 -0.0079, 0.7975 -0.4317 -0.0079, 0.8471 -0.5091 -0.0079, 0.807 -0.4278 -0.0079, 0.8661 -0.5013 -0.0079, 0.8152 -0.4215 -0.0079, 0.9027 -0.4535 -0.0079, 0.8949 -0.4724 -0.0079, 0.8824 -0.4888 -0.0079, 0.9054 -0.1196 0.038, 0.9054 -0.1181 0.0512, 0.9054 -0.1404 0.005, 0.9054 -0.131 0.0144, 0.9054 -0.124 0.0256, 0.9054 -0.1772 0.315, 0.9054 -0.1181 0.2559, 0.9054 -0.4331 0.315, 0.9054 -0.1515 -0.002, 0.9054 -0.164 -0.0064, 0.9054 -0.1196 0.269, 0.9054 -0.124 0.2815, 0.9054 -0.131 0.2927, 0.9054 -0.1404 0.3021, 0.9054 -0.1515 0.3091, 0.9054 -0.164 0.3135, 0.8267 -0.4331 0.315, 0.9027 -0.4535 0.315, 0.8152 -0.4215 0.315, 0.807 -0.4278 0.315, 0.7975 -0.4317 0.315, 0.7873 -0.4331 0.315, 0.8267 -0.1772 0.315, 0.8267 -0.3937 0.315, 0.8253 -0.4039 0.315, 0.8214 -0.4134 0.315, 0.8267 -0.5118 0.315, 0.8471 -0.5091 0.315, 0.8661 -0.5013 0.315, 0.8824 -0.4888 0.315, 0.8949 -0.4724 0.315, 0.8267 -0.5118 0.5118, 0.8267 -0.4331 0.5118, 0.9054 -0.5118 0.5118, 0.9054 -0.4331 0.5118, -0.3741 -0.5118 0.1732, 0.3739 -0.5118 0.1732, 0.3739 -0.5118 0.5276, -0.3741 -0.5118 0.5276, 0.3739 -0.4331 0.5276, -0.3741 -0.4331 0.5276, -0.3741 -0.4331 0.1732, 0.3739 -0.4331 0.1732, 0.8267 -0.164 0.3135, 0.8267 -0.1515 0.3091, 0.8267 -0.1404 0.3021, 0.8267 -0.131 0.2927, 0.8267 -0.124 0.2815, 0.8267 -0.1196 0.269, 0.8267 -0.1181 0.2559, 0.8267 -0.1181 0.0512, 0.8267 -0.1196 0.038, 0.8267 -0.124 0.0256, 0.8267 -0.131 0.0144, 0.8267 -0.1404 0.005, 0.8267 -0.1515 -0.002, 0.8267 -0.164 -0.0064, -0.8269 -0.164 -0.0064, -0.8269 -0.1515 -0.002, -0.8269 -0.1404 0.005, -0.8269 -0.131 0.0144, -0.8269 -0.124 0.0256, -0.8269 -0.1196 0.038, -0.8269 -0.1181 0.0512, -0.8269 -0.1181 0.2559, -0.8269 -0.1196 0.269, -0.8269 -0.124 0.2815, -0.8269 -0.131 0.2927, -0.8269 -0.1404 0.3021, -0.8269 -0.1515 0.3091, -0.8269 -0.164 0.3135
            ]
        }
        coordIndex [
            0,1,2,-1,2,1,3,-1,4,0,5,-1,5,0,2,-1,6,4,7,-1,7,4,5,-1,8,6,9,-1,9,6,7,-1,10,8,9,-1,11,12,9,-1,9,12,13,-1,9,13,14,-1,15,16,9,-1,9,16,17,-1,9,17,11,-1,11,17,18,-1,11,18,19,-1,20,21,9,-1,9,21,22,-1,9,22,15,-1,14,23,9,-1,9,23,24,-1,9,24,10,-1,25,12,11,-1,26,12,27,-1,27,12,25,-1,27,25,28,-1,29,30,11,-1,11,30,31,-1,11,31,25,-1,29,32,30,-1,30,32,33,-1,30,33,34,-1,35,36,37,-1,37,36,38,-1,28,39,27,-1,27,39,36,-1,27,36,40,-1,40,36,35,-1,26,27,41,-1,42,43,44,-1,44,43,45,-1,44,45,46,-1,41,47,26,-1,26,47,48,-1,26,48,49,-1,49,48,50,-1,49,50,51,-1,51,50,46,-1,51,46,52,-1,52,46,45,-1,53,54,55,-1,55,54,42,-1,55,42,56,-1,56,42,44,-1,57,54,58,-1,58,54,53,-1,59,57,60,-1,60,57,58,-1,61,59,62,-1,62,59,60,-1,63,61,64,-1,64,61,62,-1,65,63,66,-1,66,63,64,-1,67,65,68,-1,68,65,66,-1,69,67,70,-1,70,67,68,-1,71,69,72,-1,72,69,70,-1,73,71,74,-1,74,71,72,-1,75,76,77,-1,77,76,78,-1,77,78,79,-1,79,78,80,-1,81,73,74,-1,74,82,81,-1,81,82,83,-1,81,83,84,-1,84,83,85,-1,84,85,86,-1,86,85,87,-1,78,88,80,-1,80,88,89,-1,80,89,87,-1,87,89,90,-1,87,90,86,-1,91,92,76,-1,93,94,95,-1,96,92,97,-1,76,92,78,-1,78,92,96,-1,78,96,98,-1,93,95,99,-1,91,76,95,-1,95,76,100,-1,95,100,99,-1,97,101,96,-1,96,101,102,-1,96,102,103,-1,103,104,96,-1,96,104,105,-1,96,105,106,-1,98,96,107,-1,98,107,108,-1,109,110,107,-1,107,110,111,-1,107,111,112,-1,113,114,96,-1,96,114,115,-1,96,115,107,-1,107,115,116,-1,107,116,109,-1,117,118,107,-1,107,118,119,-1,119,120,107,-1,107,120,121,-1,107,121,108,-1,122,117,123,-1,123,117,107,-1,124,122,125,-1,125,122,123,-1,1,124,3,-1,3,124,125,-1,122,124,1,-1,59,61,126,-1,126,61,63,-1,126,63,127,-1,8,42,54,-1,63,65,127,-1,127,65,67,-1,127,67,128,-1,128,67,69,-1,128,69,71,-1,126,129,59,-1,59,129,8,-1,59,8,57,-1,57,8,54,-1,0,4,6,-1,128,0,129,-1,129,0,6,-1,129,6,8,-1,1,0,122,-1,122,0,128,-1,122,128,117,-1,117,128,71,-1,117,71,81,-1,81,71,73,-1,3,125,123,-1,107,112,130,-1,131,20,9,-1,132,133,66,-1,53,55,58,-1,58,55,20,-1,58,20,60,-1,60,20,131,-1,60,131,62,-1,62,131,132,-1,62,132,64,-1,64,132,66,-1,5,2,7,-1,7,2,3,-1,82,74,112,-1,112,74,72,-1,112,72,130,-1,130,72,70,-1,130,70,133,-1,133,70,68,-1,133,68,66,-1,9,7,131,-1,131,7,3,-1,131,3,130,-1,130,3,123,-1,130,123,107,-1,113,96,106,-1,113,106,134,-1,134,106,105,-1,134,105,135,-1,135,105,104,-1,135,104,136,-1,136,104,103,-1,136,103,137,-1,137,103,102,-1,137,102,138,-1,138,102,101,-1,138,101,139,-1,139,101,97,-1,139,97,140,-1,141,140,92,-1,92,140,97,-1,141,92,91,-1,141,91,142,-1,142,91,95,-1,142,95,143,-1,143,95,94,-1,143,94,144,-1,144,94,93,-1,144,93,145,-1,145,93,99,-1,145,99,146,-1,146,99,100,-1,146,100,147,-1,147,100,76,-1,147,76,75,-1,77,114,75,-1,75,114,113,-1,113,140,75,-1,75,140,141,-1,75,141,147,-1,147,141,146,-1,113,134,140,-1,140,134,135,-1,140,135,136,-1,136,137,140,-1,140,137,138,-1,140,138,139,-1,143,144,145,-1,146,141,145,-1,145,141,142,-1,145,142,143,-1,41,27,40,-1,41,40,148,-1,148,40,35,-1,148,35,149,-1,149,35,37,-1,149,37,150,-1,150,37,38,-1,150,38,151,-1,151,38,36,-1,151,36,152,-1,152,36,39,-1,152,39,153,-1,153,39,28,-1,153,28,154,-1,155,154,25,-1,25,154,28,-1,155,25,31,-1,155,31,156,-1,156,31,30,-1,156,30,157,-1,157,30,34,-1,157,34,158,-1,158,34,33,-1,158,33,159,-1,159,33,32,-1,159,32,160,-1,160,32,29,-1,160,29,161,-1,161,29,11,-1,161,11,19,-1,18,47,19,-1,19,47,41,-1,155,156,19,-1,19,156,157,-1,157,158,19,-1,19,158,159,-1,19,159,161,-1,161,159,160,-1,155,19,154,-1,154,19,41,-1,154,41,153,-1,153,41,148,-1,153,148,149,-1,149,150,153,-1,153,150,151,-1,153,151,152,-1,42,8,10,-1,42,10,43,-1,43,10,24,-1,43,24,45,-1,45,24,23,-1,45,23,52,-1,52,23,14,-1,52,14,51,-1,51,14,13,-1,51,13,49,-1,49,13,12,-1,49,12,26,-1,117,81,84,-1,117,84,118,-1,118,84,86,-1,118,86,119,-1,119,86,90,-1,119,90,120,-1,120,90,89,-1,120,89,121,-1,121,89,88,-1,121,88,108,-1,108,88,78,-1,108,78,98,-1,114,77,115,-1,115,77,79,-1,115,79,116,-1,116,79,80,-1,116,80,109,-1,109,80,87,-1,109,87,110,-1,110,87,85,-1,110,85,111,-1,111,85,83,-1,111,83,112,-1,112,83,82,-1,20,55,21,-1,21,55,56,-1,21,56,22,-1,22,56,44,-1,22,44,15,-1,15,44,46,-1,15,46,16,-1,16,46,50,-1,16,50,17,-1,17,50,48,-1,17,48,18,-1,18,48,47,-1,130,133,128,-1,128,133,127,-1,133,132,127,-1,127,132,126,-1,132,131,126,-1,126,131,129,-1,131,130,129,-1,129,130,128,-1,
        ]
    }
}
Shape{
    appearance Appearance {
        material  Material 	{
            diffuseColor 0.8431372549019608 0.8156862745098039 0.7529411764705882
            specularColor 0.4235294117647059 0.40784313725490196 0.3764705882352941
            ambientIntensity 0.8167
            transparency 0.0
            shininess 0.5
        }
    }
    geometry IndexedFaceSet {
        ccw TRUE
        solid FALSE
        coord DEF co Coordinate {
            point [
                0.18 0.1479 -0.0079, 0.18 0.0603 -0.0079, 0.1427 0.0603 -0.0079, 0.2146 -0.4331 -0.0079, 0.1385 -0.4331 -0.0079, 0.1385 0.0044 -0.0079, 0.2146 0.1485 -0.0079, 0.1385 0.1485 -0.0079, 0.1385 0.315 -0.0079, 0.2952 0.315 -0.0079, 0.2952 0.3937 -0.0079, 0.5708 0.3937 -0.0079, -0.571 0.3937 -0.0079, -0.2954 0.3937 -0.0079, -0.571 0.1968 -0.0079, -0.2954 0.315 -0.0079, -0.7836 0.1485 -0.0079, -0.7836 0.1968 -0.0079, -0.6084 0.1485 -0.0079, -0.6084 0.1968 -0.0079, 0.5708 0.1968 -0.0079, 0.7834 0.1968 -0.0079, 0.7834 0.1485 -0.0079, 0.2146 0.315 -0.0079, -0.0205 0.315 -0.0079, 0.0515 0.315 -0.0079, 0.0515 0.1485 -0.0079, -0.2208 0.1485 -0.0079, -0.2208 0.315 -0.0079, -0.1129 0.1485 -0.0079, -0.1129 0.315 -0.0079, 0.0611 0.0654 -0.0079, 0.0515 0.0488 -0.0079, 0.0611 0.0545 -0.0079, 0.0716 0.0502 -0.0079, 0.0916 0.1485 -0.0079, 0.0843 0.1491 -0.0079, 0.0756 0.1485 -0.0079, 0.0725 0.1483 -0.0079, 0.0611 0.1452 -0.0079, 0.0611 0.132 -0.0079, 0.0722 0.1367 -0.0079, 0.0629 0.0644 -0.0079, 0.0842 0.1383 -0.0079, 0.0939 0.1372 -0.0079, 0.1012 0.1345 -0.0079, 0.108 0.13 -0.0079, 0.114 0.1234 -0.0079, 0.1211 0.0976 -0.0079, 0.1201 0.087 -0.0079, 0.1175 0.0785 -0.0079, 0.0956 0.0601 -0.0079, 0.0864 0.0591 -0.0079, 0.1027 0.0627 -0.0079, 0.1088 0.0668 -0.0079, 0.1134 0.0717 -0.0079, 0.0733 0.0605 -0.0079, 0.118 0.1158 -0.0079, 0.1207 0.1053 -0.0079, 0.1099 0.0528 -0.0079, 0.1178 0.0578 -0.0079, 0.1385 0.0488 -0.0079, 0.1252 0.0656 -0.0079, 0.1304 0.075 -0.0079, 0.1291 0.1219 -0.0079, 0.1234 0.1312 -0.0079, 0.1145 0.1397 -0.0079, 0.1051 0.1451 -0.0079, 0.0942 0.1483 -0.0079, 0.1334 0.0854 -0.0079, 0.1343 0.0968 -0.0079, 0.1329 0.1108 -0.0079, 0.0816 0.0488 -0.0079, 0.0855 0.0483 -0.0079, 0.0515 0.0044 -0.0079, 0.0882 0.0482 -0.0079, 0.094 0.0488 -0.0079, 0.1003 0.0495 -0.0079, 0.4198 -0.0886 -0.0079, 0.4042 -0.0682 -0.0079, 0.7834 0.0044 -0.0079, 0.3838 -0.223 -0.0079, 0.4042 -0.2074 -0.0079, 0.7834 -0.4331 -0.0079, 0.4296 -0.1123 -0.0079, 0.2395 -0.1633 -0.0079, 0.2361 -0.1378 -0.0079, 0.2146 0.0044 -0.0079, 0.2395 -0.1123 -0.0079, 0.4198 -0.187 -0.0079, 0.4296 -0.1633 -0.0079, 0.433 -0.1378 -0.0079, 0.3838 -0.0526 -0.0079, 0.36 -0.0427 -0.0079, 0.3346 -0.0394 -0.0079, 0.2493 -0.187 -0.0079, 0.265 -0.2074 -0.0079, 0.2853 -0.223 -0.0079, 0.3091 -0.0427 -0.0079, 0.2853 -0.0526 -0.0079, 0.3091 -0.2329 -0.0079, 0.3346 -0.2362 -0.0079, 0.36 -0.2329 -0.0079, 0.265 -0.0682 -0.0079, 0.2493 -0.0886 -0.0079, 0.0515 -0.4331 -0.0079, -0.0205 0.0044 -0.0079, -0.2208 0.0044 -0.0079, -0.2363 -0.1378 -0.0079, -0.2397 -0.1123 -0.0079, -0.2495 -0.0886 -0.0079, -0.2651 -0.0682 -0.0079, -0.2855 -0.0526 -0.0079, -0.3839 -0.0526 -0.0079, -0.4043 -0.0682 -0.0079, -0.6084 0.0044 -0.0079, -0.42 -0.0886 -0.0079, -0.4298 -0.1123 -0.0079, -0.2208 -0.4331 -0.0079, -0.2495 -0.187 -0.0079, -0.2397 -0.1633 -0.0079, -0.4332 -0.1378 -0.0079, -0.4298 -0.1633 -0.0079, -0.6084 -0.4331 -0.0079, -0.42 -0.187 -0.0079, -0.4043 -0.2074 -0.0079, -0.3839 -0.223 -0.0079, -0.3602 -0.2329 -0.0079, -0.3347 -0.2362 -0.0079, -0.3093 -0.2329 -0.0079, -0.1129 -0.4331 -0.0079, -0.1129 0.0044 -0.0079, -0.0205 -0.4331 -0.0079, -0.2855 -0.223 -0.0079, -0.2651 -0.2074 -0.0079, -0.3093 -0.0427 -0.0079, -0.3347 -0.0394 -0.0079, -0.3602 -0.0427 -0.0079, -0.7836 -0.4331 -0.0079, -0.7836 0.0044 -0.0079, -0.0205 0.0488 -0.0079, -0.1129 0.0488 -0.0079, -0.7836 0.0488 -0.0079, -0.6084 0.0488 -0.0079, -0.2208 0.0488 -0.0079, 0.7834 0.0488 -0.0079, 0.2146 0.0488 -0.0079, 0.1932 0.0494 -0.0079, 0.1932 0.1479 -0.0079, 0.1427 0.0494 -0.0079, -0.0205 0.1485 -0.0079, -0.0085 0.1479 -0.0079, -0.0085 0.1371 -0.0079, -0.0109 0.0603 -0.0079, -0.0109 0.0494 -0.0079, 0.0419 0.0494 -0.0079, 0.0419 0.1479 -0.0079, 0.0287 0.0939 -0.0079, 0.0287 0.0603 -0.0079, -0.0061 0.0939 -0.0079, -0.0061 0.1047 -0.0079, 0.0287 0.1047 -0.0079, 0.0287 0.1371 -0.0079, -0.1044 0.0764 -0.0079, -0.1079 0.0867 -0.0079, -0.1093 0.0999 -0.0079, -0.0988 0.0676 -0.0079, -0.0907 0.0599 -0.0079, -0.0804 0.0539 -0.0079, -0.0579 0.1479 -0.0079, -0.0721 0.1464 -0.0079, -0.0836 0.1423 -0.0079, -0.0943 0.1351 -0.0079, -0.0944 0.135 -0.0079, -0.1014 0.1273 -0.0079, -0.106 0.1189 -0.0079, -0.1086 0.1092 -0.0079, -0.069 0.0505 -0.0079, -0.0569 0.0494 -0.0079, -0.0301 0.0494 -0.0079, -0.0301 0.1479 -0.0079, -0.1309 0.0494 -0.0079, -0.1165 0.0494 -0.0079, -0.1669 0.1479 -0.0079, -0.2053 0.0494 -0.0079, -0.1909 0.0494 -0.0079, -0.181 0.0771 -0.0079, -0.1403 0.0771 -0.0079, -0.1537 0.1479 -0.0079, 0.7834 -0.4331 0.189, 0.807 -0.4331 0.189, 0.807 -0.4331 0.1929, -0.9056 -0.4331 0.7087, -0.9056 -0.4331 0.5118, -0.8072 -0.4331 0.5118, -0.8072 -0.4331 0.5079, -0.614 -0.4331 0.5079, 0.807 -0.4331 0.5118, 0.9054 -0.4331 0.5118, 0.9054 -0.4331 0.7087, 0.3397 -0.4331 0.1936, 0.3346 -0.4331 0.1929, -0.8072 -0.4331 0.1929, -0.8072 -0.4331 0.189, -0.7836 -0.4331 0.189, -0.614 -0.4331 0.1929, 0.6139 -0.4331 0.1929, 0.3502 -0.4331 0.2006, 0.3485 -0.4331 0.1987, 0.807 -0.4331 0.5079, 0.6139 -0.4331 0.5079, 0.3346 -0.4331 0.5079, 0.3397 -0.4331 0.5072, 0.3542 -0.4331 0.4882, 0.3542 -0.4331 0.2126, 0.3536 -0.4331 0.2075, -0.3544 -0.4331 0.2126, -0.3544 -0.4331 0.4882, -0.3538 -0.4331 0.4933, -0.3504 -0.4331 0.5002, -0.3487 -0.4331 0.5021, -0.3467 -0.4331 0.5038, -0.3446 -0.4331 0.5052, -0.3347 -0.4331 0.5079, 0.3421 -0.4331 0.5064, 0.3444 -0.4331 0.5052, 0.3465 -0.4331 0.5038, 0.3485 -0.4331 0.5021, 0.3502 -0.4331 0.5002, 0.3516 -0.4331 0.498, 0.3527 -0.4331 0.2051, 0.3516 -0.4331 0.2027, -0.3467 -0.4331 0.197, -0.3487 -0.4331 0.1987, -0.3504 -0.4331 0.2006, -0.3518 -0.4331 0.2027, -0.3529 -0.4331 0.4957, -0.3518 -0.4331 0.498, -0.3423 -0.4331 0.5064, -0.3398 -0.4331 0.5072, 0.3527 -0.4331 0.4957, 0.3536 -0.4331 0.4933, 0.3465 -0.4331 0.197, 0.3444 -0.4331 0.1955, 0.3421 -0.4331 0.1944, -0.3529 -0.4331 0.2051, -0.3538 -0.4331 0.2075, -0.3347 -0.4331 0.1929, -0.3398 -0.4331 0.1936, -0.3423 -0.4331 0.1944, -0.3446 -0.4331 0.1955, 0.9054 0.2559 0.5118, 0.807 0.2559 0.5118, -0.5906 0.3937 0.5118, -0.2954 0.3937 0.5118, -0.5906 0.315 0.5118, -0.2954 0.315 0.5118, 0.2952 0.3937 0.2087, 0.5708 0.3937 0.2087, -0.2954 0.3937 0.6496, -0.5906 0.3937 0.7087, 0.2952 0.3937 0.6496, 0.5905 0.3937 0.7087, 0.2952 0.3937 0.5118, 0.5905 0.3937 0.5118, 0.807 0.1968 0.189, 0.807 0.1968 0.2087, 0.807 0.2756 0.2087, 0.807 0.2756 0.5118, -0.8072 0.1968 0.189, -0.8072 0.1968 0.2087, -0.8072 0.2756 0.2087, -0.8072 0.2559 0.5118, -0.8072 0.2756 0.5118, -0.571 0.315 0.2087, -0.571 0.1968 0.2087, -0.7678 0.315 0.2087, -0.7875 0.3097 0.2087, -0.8058 0.2858 0.2087, -0.7956 0.3034 0.2087, -0.8019 0.2953 0.2087, -0.778 0.3136 0.2087, 0.5708 0.1968 0.2087, 0.5708 0.315 0.2087, 0.7676 0.315 0.2087, 0.7778 0.3136 0.2087, 0.8057 0.2858 0.2087, 0.7873 0.3097 0.2087, 0.7955 0.3034 0.2087, 0.8017 0.2953 0.2087, -0.7836 0.1968 0.189, 0.9054 0.2559 0.7087, -0.2954 0.3937 0.2087, -0.571 0.3937 0.2087, -0.9056 0.2559 0.5118, -0.9056 0.2559 0.7087, 0.5905 0.2559 0.7087, -0.5906 0.2559 0.7087, 0.7834 0.1968 0.189, 0.5905 0.315 0.5118, 0.2952 0.315 0.5118, -0.5906 0.1968 0.1004, -0.5906 0.1968 0.0413, -0.7481 0.1968 0.0413, -0.7481 0.1968 0.1004, 0.7479 0.1968 0.1004, 0.5905 0.1968 0.1004, 0.7479 0.1968 0.0413, 0.5905 0.1968 0.0413, -0.2954 0.315 0.2087, 0.2952 0.315 0.2087, 0.2952 0.315 0.6496, -0.2954 0.315 0.6496, -0.7678 0.315 0.5118, 0.7676 0.315 0.5118, -0.5906 0.2559 0.5118, -0.778 0.3136 0.5118, -0.8058 0.2858 0.5118, -0.7875 0.3097 0.5118, -0.7956 0.3034 0.5118, -0.8019 0.2953 0.5118, 0.5905 0.2559 0.5118, 0.8057 0.2858 0.5118, 0.8017 0.2953 0.5118, 0.7955 0.3034 0.5118, 0.7873 0.3097 0.5118, 0.7778 0.3136 0.5118
            ]
        }
        coordIndex [
            0,1,2,-1,3,4,5,-1,6,7,8,-1,9,10,11,-1,12,13,14,-1,14,13,15,-1,16,17,18,-1,18,17,19,-1,20,21,22,-1,11,20,9,-1,9,20,6,-1,9,6,23,-1,23,6,8,-1,24,25,26,-1,19,14,18,-1,18,14,15,-1,18,15,27,-1,27,15,28,-1,27,28,29,-1,29,28,30,-1,26,31,32,-1,32,31,33,-1,32,33,34,-1,35,36,25,-1,25,36,37,-1,25,37,26,-1,26,37,38,-1,38,39,26,-1,26,39,40,-1,26,40,31,-1,31,40,41,-1,31,41,42,-1,42,41,43,-1,42,43,44,-1,44,45,42,-1,42,45,46,-1,42,46,47,-1,48,49,42,-1,42,49,50,-1,51,52,53,-1,53,52,54,-1,50,55,42,-1,42,55,54,-1,42,54,56,-1,56,54,52,-1,47,57,42,-1,42,57,58,-1,42,58,48,-1,59,60,61,-1,61,60,62,-1,61,62,63,-1,64,65,7,-1,7,65,66,-1,7,66,67,-1,25,8,35,-1,35,8,7,-1,35,7,68,-1,68,7,67,-1,63,69,61,-1,61,69,70,-1,61,70,7,-1,7,70,71,-1,7,71,64,-1,72,73,74,-1,74,73,75,-1,74,75,5,-1,5,75,76,-1,5,76,61,-1,61,76,77,-1,61,77,59,-1,78,79,80,-1,81,82,83,-1,78,80,84,-1,85,3,86,-1,86,3,87,-1,86,87,88,-1,82,89,83,-1,83,89,90,-1,83,90,80,-1,80,90,91,-1,80,91,84,-1,79,92,80,-1,80,92,93,-1,80,93,94,-1,85,95,3,-1,3,95,96,-1,3,96,97,-1,87,98,99,-1,97,100,3,-1,3,100,101,-1,3,101,83,-1,83,101,102,-1,83,102,81,-1,99,103,87,-1,87,103,104,-1,87,104,88,-1,5,4,74,-1,74,4,105,-1,74,105,106,-1,107,108,109,-1,109,110,107,-1,107,110,111,-1,107,111,112,-1,113,114,115,-1,115,114,116,-1,115,116,117,-1,118,119,120,-1,121,122,123,-1,123,122,124,-1,123,124,125,-1,125,126,123,-1,123,126,127,-1,123,127,118,-1,118,127,128,-1,118,128,129,-1,120,108,118,-1,118,108,107,-1,118,107,130,-1,130,107,131,-1,130,131,132,-1,129,133,118,-1,118,133,134,-1,118,134,119,-1,112,135,107,-1,107,135,136,-1,107,136,115,-1,115,136,137,-1,115,137,113,-1,138,139,123,-1,123,139,115,-1,123,115,121,-1,121,115,117,-1,34,72,32,-1,32,72,74,-1,32,74,140,-1,140,74,106,-1,140,106,141,-1,139,142,115,-1,115,142,143,-1,115,143,107,-1,107,143,144,-1,107,144,131,-1,20,22,6,-1,6,22,145,-1,6,145,146,-1,146,145,80,-1,146,80,87,-1,87,80,94,-1,87,94,98,-1,3,5,87,-1,87,5,61,-1,87,61,146,-1,146,61,147,-1,146,147,6,-1,147,148,6,-1,6,148,0,-1,6,0,7,-1,7,0,2,-1,7,2,61,-1,61,2,149,-1,61,149,147,-1,30,24,150,-1,150,24,26,-1,150,26,151,-1,151,152,150,-1,150,152,153,-1,150,153,140,-1,140,153,154,-1,140,154,32,-1,32,154,155,-1,32,155,26,-1,26,155,156,-1,26,156,151,-1,157,158,159,-1,159,158,153,-1,159,153,160,-1,160,153,152,-1,160,152,161,-1,161,152,162,-1,163,141,164,-1,164,141,165,-1,163,166,141,-1,141,166,167,-1,141,167,168,-1,30,150,29,-1,29,150,169,-1,29,169,170,-1,170,171,29,-1,29,171,172,-1,29,172,173,-1,173,174,29,-1,29,174,175,-1,29,175,176,-1,168,177,141,-1,141,177,178,-1,141,178,140,-1,140,178,179,-1,140,179,150,-1,150,179,180,-1,150,180,169,-1,181,182,141,-1,141,182,29,-1,141,29,165,-1,165,29,176,-1,183,184,144,-1,144,184,185,-1,186,187,185,-1,185,187,181,-1,185,181,144,-1,144,181,141,-1,144,141,131,-1,131,141,106,-1,131,106,132,-1,132,106,105,-1,142,16,143,-1,143,16,18,-1,143,18,144,-1,144,18,27,-1,144,27,183,-1,183,27,29,-1,183,29,188,-1,188,29,182,-1,189,190,191,-1,192,193,194,-1,194,195,196,-1,197,198,199,-1,200,201,3,-1,202,203,204,-1,204,138,123,-1,202,204,205,-1,205,204,123,-1,205,123,118,-1,191,206,189,-1,189,206,3,-1,189,3,83,-1,207,208,206,-1,3,201,4,-1,209,197,210,-1,210,197,211,-1,210,211,212,-1,210,213,206,-1,206,213,214,-1,206,214,215,-1,205,216,196,-1,196,216,217,-1,196,217,218,-1,219,220,196,-1,196,220,221,-1,196,221,222,-1,192,194,199,-1,199,194,196,-1,199,196,197,-1,197,196,223,-1,197,223,211,-1,212,224,210,-1,210,224,225,-1,210,225,226,-1,226,227,210,-1,210,227,228,-1,210,228,229,-1,215,230,206,-1,206,230,231,-1,206,231,207,-1,232,233,205,-1,205,233,234,-1,205,234,235,-1,218,236,196,-1,196,236,237,-1,196,237,219,-1,222,238,196,-1,196,238,239,-1,196,239,223,-1,229,240,210,-1,210,240,241,-1,210,241,213,-1,208,242,206,-1,206,242,243,-1,206,243,3,-1,3,243,244,-1,3,244,200,-1,235,245,205,-1,205,245,246,-1,205,246,216,-1,118,130,247,-1,247,130,132,-1,247,132,201,-1,201,132,105,-1,201,105,4,-1,247,248,118,-1,118,248,249,-1,118,249,205,-1,205,249,250,-1,205,250,232,-1,251,198,252,-1,252,198,197,-1,253,254,255,-1,255,254,256,-1,257,258,10,-1,10,258,11,-1,254,253,259,-1,259,253,260,-1,259,260,261,-1,261,260,262,-1,261,262,263,-1,263,262,264,-1,190,265,191,-1,191,265,266,-1,191,266,209,-1,209,266,197,-1,197,266,252,-1,252,266,267,-1,252,267,268,-1,203,202,269,-1,269,202,195,-1,269,195,270,-1,270,195,194,-1,270,194,271,-1,271,194,272,-1,271,272,273,-1,274,275,276,-1,276,275,270,-1,277,278,279,-1,279,278,280,-1,270,271,276,-1,276,271,278,-1,276,278,281,-1,281,278,277,-1,282,283,266,-1,266,283,284,-1,285,286,284,-1,284,286,267,-1,284,267,266,-1,285,287,286,-1,286,287,288,-1,286,288,289,-1,290,17,16,-1,138,204,139,-1,139,204,290,-1,139,290,142,-1,142,290,16,-1,204,203,290,-1,290,203,269,-1,291,199,251,-1,251,199,198,-1,292,13,293,-1,293,13,12,-1,294,193,295,-1,295,193,192,-1,199,291,192,-1,192,291,296,-1,295,192,297,-1,297,192,296,-1,297,296,260,-1,260,296,262,-1,189,83,298,-1,298,83,80,-1,80,145,298,-1,298,145,22,-1,298,22,21,-1,265,190,298,-1,298,190,189,-1,299,300,264,-1,264,300,263,-1,272,194,294,-1,294,194,193,-1,269,270,290,-1,290,270,275,-1,290,275,301,-1,301,275,14,-1,301,14,302,-1,302,14,19,-1,302,19,303,-1,303,19,17,-1,303,17,304,-1,304,17,290,-1,304,290,301,-1,293,12,274,-1,274,12,14,-1,274,14,275,-1,298,305,306,-1,305,298,307,-1,307,298,21,-1,307,21,308,-1,308,21,20,-1,308,20,306,-1,306,20,282,-1,306,282,298,-1,298,282,266,-1,298,266,265,-1,282,20,283,-1,283,20,11,-1,283,11,258,-1,292,293,309,-1,309,293,274,-1,310,283,257,-1,257,283,258,-1,9,310,10,-1,10,310,257,-1,300,311,263,-1,263,311,261,-1,311,312,261,-1,261,312,259,-1,312,256,259,-1,259,256,254,-1,309,15,292,-1,292,15,13,-1,23,256,300,-1,300,256,312,-1,300,312,311,-1,276,313,274,-1,274,313,255,-1,274,255,309,-1,309,255,256,-1,23,8,256,-1,256,8,25,-1,256,25,24,-1,9,23,310,-1,310,23,300,-1,310,300,283,-1,283,300,299,-1,283,299,284,-1,284,299,314,-1,24,30,256,-1,256,30,28,-1,256,28,309,-1,309,28,15,-1,315,255,272,-1,272,255,313,-1,316,317,313,-1,313,317,273,-1,313,273,272,-1,316,318,317,-1,317,318,319,-1,317,319,320,-1,315,297,255,-1,255,297,260,-1,255,260,253,-1,294,295,272,-1,272,295,297,-1,272,297,315,-1,299,321,314,-1,314,321,252,-1,252,268,314,-1,314,268,322,-1,314,322,323,-1,323,324,314,-1,314,324,325,-1,314,325,326,-1,321,296,252,-1,252,296,291,-1,252,291,251,-1,264,262,299,-1,299,262,296,-1,299,296,321,-1,313,276,281,-1,313,281,316,-1,316,281,277,-1,316,277,318,-1,318,277,279,-1,318,279,319,-1,319,279,280,-1,319,280,320,-1,320,280,278,-1,320,278,317,-1,317,278,271,-1,317,271,273,-1,284,314,326,-1,284,326,285,-1,285,326,325,-1,285,325,287,-1,287,325,324,-1,287,324,288,-1,288,324,323,-1,288,323,289,-1,289,323,322,-1,289,322,286,-1,286,322,268,-1,286,268,267,-1,
        ]
    }
}
Shape{
    appearance Appearance {
        material  Material 	{
            diffuseColor 0.8509803921568627 0.8509803921568627 0.8509803921568627
            specularColor 0.4235294117647059 0.4235294117647059 0.4235294117647059
            ambientIntensity 0.851
            transparency 0.0
            shininess 0.5
        }
    }
    geometry IndexedFaceSet {
        ccw TRUE
        solid FALSE
        coord DEF co Coordinate {
            point [
                0.5905 0.4134 -0.0089, 0.5905 0.4134 0.0502, 0.7479 0.4134 -0.0089, 0.7479 0.4134 0.0502, 0.7479 0.2147 0.0311, 0.7479 0.2657 0.0608, 0.7479 0.2114 0.0353, 0.7479 0.253 0.0772, 0.7479 0.2071 0.0386, 0.7479 0.2366 0.0898, 0.7479 0.2022 0.0406, 0.7479 0.2174 0.0977, 0.7479 0.1968 0.0413, 0.7479 0.1968 0.1004, 0.5905 0.1968 0.0413, 0.5905 0.2022 0.0406, 0.5905 0.2071 0.0386, 0.5905 0.2114 0.0353, 0.5905 0.2147 0.0311, 0.5905 0.1968 0.1004, 0.5905 0.2174 0.0977, 0.5905 0.2366 0.0898, 0.5905 0.253 0.0772, 0.5905 0.2657 0.0608, 0.7479 0.2691 0.0564, 0.7479 0.2275 0.0145, 0.7479 0.2735 0.053, 0.7479 0.2441 0.0018, 0.7479 0.2787 0.0509, 0.7479 0.2635 -0.0061, 0.7479 0.2842 0.0502, 0.7479 0.2842 -0.0089, 0.5905 0.2842 -0.0089, 0.5905 0.2635 -0.0061, 0.5905 0.2441 0.0018, 0.5905 0.2275 0.0145, 0.5905 0.2842 0.0502, 0.5905 0.2787 0.0509, 0.5905 0.2735 0.053, 0.5905 0.2691 0.0564, -0.7481 0.4134 -0.0089, -0.7481 0.4134 0.0502, -0.5906 0.4134 -0.0089, -0.5906 0.4134 0.0502, -0.5906 0.2147 0.0311, -0.5906 0.2657 0.0608, -0.5906 0.2114 0.0353, -0.5906 0.253 0.0772, -0.5906 0.2071 0.0386, -0.5906 0.2366 0.0898, -0.5906 0.2022 0.0406, -0.5906 0.2174 0.0977, -0.5906 0.1968 0.0413, -0.5906 0.1968 0.1004, -0.7481 0.1968 0.0413, -0.7481 0.2022 0.0406, -0.7481 0.2071 0.0386, -0.7481 0.2114 0.0353, -0.7481 0.2147 0.0311, -0.7481 0.1968 0.1004, -0.7481 0.2174 0.0977, -0.7481 0.2366 0.0898, -0.7481 0.253 0.0772, -0.7481 0.2657 0.0608, -0.5906 0.2691 0.0564, -0.5906 0.2275 0.0145, -0.5906 0.2735 0.053, -0.5906 0.2441 0.0018, -0.5906 0.2787 0.0509, -0.5906 0.2635 -0.0061, -0.5906 0.2842 0.0502, -0.5906 0.2842 -0.0089, -0.7481 0.2842 -0.0089, -0.7481 0.2635 -0.0061, -0.7481 0.2441 0.0018, -0.7481 0.2275 0.0145, -0.7481 0.2842 0.0502, -0.7481 0.2787 0.0509, -0.7481 0.2735 0.053, -0.7481 0.2691 0.0564
            ]
        }
        coordIndex [
            0,1,2,-1,2,1,3,-1,4,5,6,-1,6,5,7,-1,6,7,8,-1,8,7,9,-1,8,9,10,-1,10,9,11,-1,10,11,12,-1,12,11,13,-1,12,14,10,-1,10,14,15,-1,10,15,8,-1,8,15,16,-1,8,16,6,-1,6,16,17,-1,6,17,4,-1,4,17,18,-1,14,19,15,-1,15,19,20,-1,15,20,16,-1,16,20,21,-1,16,21,17,-1,17,21,22,-1,17,22,18,-1,18,22,23,-1,5,23,22,-1,5,22,7,-1,7,22,21,-1,7,21,9,-1,9,21,20,-1,9,20,11,-1,11,20,19,-1,11,19,13,-1,5,4,24,-1,24,4,25,-1,24,25,26,-1,26,25,27,-1,26,27,28,-1,28,27,29,-1,28,29,30,-1,30,29,31,-1,32,31,29,-1,32,29,33,-1,33,29,27,-1,33,27,34,-1,34,27,25,-1,34,25,35,-1,35,25,4,-1,35,4,18,-1,36,32,37,-1,37,32,33,-1,37,33,38,-1,38,33,34,-1,38,34,39,-1,39,34,35,-1,39,35,23,-1,23,35,18,-1,23,5,39,-1,39,5,24,-1,39,24,38,-1,38,24,26,-1,38,26,37,-1,37,26,28,-1,37,28,36,-1,36,28,30,-1,3,30,2,-1,2,30,31,-1,2,31,0,-1,0,31,32,-1,0,32,1,-1,1,32,36,-1,36,30,1,-1,1,30,3,-1,40,41,42,-1,42,41,43,-1,44,45,46,-1,46,45,47,-1,46,47,48,-1,48,47,49,-1,48,49,50,-1,50,49,51,-1,50,51,52,-1,52,51,53,-1,52,54,50,-1,50,54,55,-1,50,55,48,-1,48,55,56,-1,48,56,46,-1,46,56,57,-1,46,57,44,-1,44,57,58,-1,54,59,55,-1,55,59,60,-1,55,60,56,-1,56,60,61,-1,56,61,57,-1,57,61,62,-1,57,62,58,-1,58,62,63,-1,45,63,62,-1,45,62,47,-1,47,62,61,-1,47,61,49,-1,49,61,60,-1,49,60,51,-1,51,60,59,-1,51,59,53,-1,45,44,64,-1,64,44,65,-1,64,65,66,-1,66,65,67,-1,66,67,68,-1,68,67,69,-1,68,69,70,-1,70,69,71,-1,72,71,69,-1,72,69,73,-1,73,69,67,-1,73,67,74,-1,74,67,65,-1,74,65,75,-1,75,65,44,-1,75,44,58,-1,76,72,77,-1,77,72,73,-1,77,73,78,-1,78,73,74,-1,78,74,79,-1,79,74,75,-1,79,75,63,-1,63,75,58,-1,63,45,79,-1,79,45,64,-1,79,64,78,-1,78,64,66,-1,78,66,77,-1,77,66,68,-1,77,68,76,-1,76,68,70,-1,43,70,42,-1,42,70,71,-1,42,71,40,-1,40,71,72,-1,40,72,41,-1,41,72,76,-1,76,70,41,-1,41,70,43,-1,
        ]
    }
}
Shape{
    appearance Appearance {
        material  Material 	{
            diffuseColor 0.2235294117647059 0.2235294117647059 0.2235294117647059
            specularColor 0.11372549019607843 0.11372549019607843 0.11372549019607843
            ambientIntensity 0.2235
            transparency 0.0
            shininess 0.5
        }
    }
    geometry IndexedFaceSet {
        ccw TRUE
        solid FALSE
        coord DEF co Coordinate {
            point [
                0.3542 -0.4331 0.2126, 0.3542 -0.4331 0.4882, 0.3357 -0.9653 0.2312, 0.3357 -0.9653 0.4696, -0.3162 -0.9653 0.4893, 0.316 -0.9653 0.4893, -0.3347 -0.4331 0.5079, 0.3346 -0.4331 0.5079, -0.3544 -0.4331 0.4882, -0.3544 -0.4331 0.2126, -0.3358 -0.9653 0.4696, -0.3358 -0.9653 0.2312, -0.3347 -0.4331 0.1929, 0.3346 -0.4331 0.1929, -0.3162 -0.9653 0.2115, 0.316 -0.9653 0.2115, 0.316 -0.9843 0.2312, 0.316 -0.9843 0.4696, -0.3162 -0.9843 0.2312, -0.3162 -0.9843 0.4696, -0.3352 -0.9654 0.4746, -0.3538 -0.4331 0.4933, -0.3352 -0.9654 0.4747, -0.3529 -0.4331 0.4957, -0.3332 -0.9655 0.4794, -0.3518 -0.4331 0.498, -0.3504 -0.4331 0.5002, -0.3302 -0.9655 0.4833, -0.3487 -0.4331 0.5021, -0.3301 -0.9655 0.4835, -0.3467 -0.4331 0.5038, -0.326 -0.9655 0.4866, -0.3446 -0.4331 0.5052, -0.3196 -0.9654 0.4888, -0.3184 -0.9653 0.489, -0.3423 -0.4331 0.5064, -0.3216 -0.9654 0.4885, -0.3398 -0.4331 0.5072, -0.3213 -0.9654 0.4886, -0.3208 -0.9654 0.4887, -0.3174 -0.9653 0.4891, -0.3166 -0.9653 0.4892, 0.316 -0.9701 0.4885, -0.3162 -0.9701 0.4885, 0.316 -0.9702 0.4885, -0.3162 -0.9702 0.4885, 0.316 -0.9747 0.4865, -0.3162 -0.9747 0.4865, 0.316 -0.9748 0.4864, -0.3162 -0.9748 0.4864, 0.316 -0.9787 0.4834, -0.3162 -0.9787 0.4834, 0.316 -0.9787 0.4833, -0.3162 -0.9787 0.4833, 0.316 -0.9817 0.4793, -0.3162 -0.9817 0.4793, 0.316 -0.9817 0.4793, -0.3162 -0.9817 0.4793, 0.316 -0.9836 0.4746, -0.3162 -0.9836 0.4746, 0.316 -0.9836 0.4746, -0.3162 -0.9836 0.4746, 0.3397 -0.4331 0.5072, 0.3164 -0.9653 0.4892, 0.3172 -0.9653 0.4891, 0.3182 -0.9653 0.489, 0.3194 -0.9654 0.4888, 0.3206 -0.9654 0.4887, 0.3211 -0.9654 0.4886, 0.3421 -0.4331 0.5064, 0.3214 -0.9654 0.4885, 0.3444 -0.4331 0.5052, 0.3258 -0.9655 0.4866, 0.3465 -0.4331 0.5038, 0.3299 -0.9655 0.4835, 0.3485 -0.4331 0.5021, 0.3502 -0.4331 0.5002, 0.33 -0.9655 0.4833, 0.3516 -0.4331 0.498, 0.333 -0.9655 0.4794, 0.3527 -0.4331 0.4957, 0.335 -0.9654 0.4747, 0.3536 -0.4331 0.4933, 0.335 -0.9654 0.4746, -0.335 -0.9702 0.4696, -0.333 -0.9747 0.4696, -0.3325 -0.9744 0.4746, -0.333 -0.9748 0.4696, -0.3299 -0.9787 0.4696, -0.3294 -0.9782 0.4746, -0.3298 -0.9787 0.4696, -0.3259 -0.9817 0.4696, -0.3255 -0.9811 0.4746, -0.3351 -0.9701 0.4696, -0.3344 -0.9699 0.4746, -0.3297 -0.9685 0.4834, -0.3326 -0.9694 0.4793, -0.3214 -0.9661 0.4885, -0.3259 -0.9674 0.4865, -0.3176 -0.9699 0.4885, -0.3187 -0.9744 0.4865, -0.3198 -0.9782 0.4834, -0.3205 -0.9811 0.4793, -0.321 -0.983 0.4746, -0.3211 -0.9836 0.4696, -0.3212 -0.9836 0.4696, -0.3258 -0.9817 0.4696, -0.3246 -0.9795 0.4793, -0.3231 -0.9768 0.4834, -0.3212 -0.9734 0.4865, -0.3189 -0.9694 0.4885, -0.3281 -0.9768 0.4793, -0.326 -0.9747 0.4834, -0.3232 -0.9718 0.4865, -0.32 -0.9685 0.4885, -0.3309 -0.9734 0.4793, -0.3282 -0.9718 0.4834, -0.3249 -0.9698 0.4865, -0.3209 -0.9674 0.4885, 0.321 -0.9836 0.4696, 0.321 -0.9836 0.4696, 0.3208 -0.983 0.4746, 0.3256 -0.9817 0.4696, 0.3257 -0.9817 0.4696, 0.3254 -0.9811 0.4746, 0.3297 -0.9787 0.4696, 0.3297 -0.9787 0.4696, 0.3293 -0.9782 0.4746, 0.3328 -0.9748 0.4696, 0.3329 -0.9747 0.4696, 0.3323 -0.9744 0.4746, 0.3348 -0.9702 0.4696, 0.3349 -0.9701 0.4696, 0.3343 -0.9699 0.4746, 0.3213 -0.9661 0.4885, 0.3174 -0.9699 0.4885, 0.3257 -0.9674 0.4865, 0.3295 -0.9685 0.4834, 0.3324 -0.9694 0.4793, 0.3186 -0.9744 0.4865, 0.3196 -0.9782 0.4834, 0.3203 -0.9811 0.4793, 0.3307 -0.9734 0.4793, 0.3281 -0.9718 0.4834, 0.3247 -0.9698 0.4865, 0.3207 -0.9674 0.4885, 0.3279 -0.9768 0.4793, 0.3258 -0.9747 0.4834, 0.3231 -0.9718 0.4865, 0.3198 -0.9685 0.4885, 0.3244 -0.9795 0.4793, 0.3229 -0.9768 0.4834, 0.321 -0.9734 0.4865, 0.3187 -0.9694 0.4885, -0.3398 -0.4331 0.1936, -0.3166 -0.9653 0.2116, -0.3174 -0.9653 0.2117, -0.3184 -0.9653 0.2118, -0.3196 -0.9654 0.212, -0.3208 -0.9654 0.2121, -0.3213 -0.9654 0.2122, -0.3423 -0.4331 0.1944, -0.3216 -0.9654 0.2123, -0.3446 -0.4331 0.1955, -0.326 -0.9655 0.2141, -0.3467 -0.4331 0.197, -0.3301 -0.9655 0.2173, -0.3487 -0.4331 0.1987, -0.3504 -0.4331 0.2006, -0.3302 -0.9655 0.2174, -0.3518 -0.4331 0.2027, -0.3332 -0.9655 0.2213, -0.3529 -0.4331 0.2051, -0.3352 -0.9654 0.2261, -0.3538 -0.4331 0.2075, -0.3352 -0.9654 0.2262, -0.3351 -0.9701 0.2312, -0.335 -0.9702 0.2312, -0.333 -0.9747 0.2312, -0.333 -0.9748 0.2312, -0.3299 -0.9787 0.2312, -0.3298 -0.9787 0.2312, -0.3259 -0.9817 0.2312, -0.3258 -0.9817 0.2312, -0.3212 -0.9836 0.2312, -0.3211 -0.9836 0.2312, 0.3349 -0.9701 0.2312, 0.3348 -0.9702 0.2312, 0.3329 -0.9747 0.2312, 0.3328 -0.9748 0.2312, 0.3297 -0.9787 0.2312, 0.3297 -0.9787 0.2312, 0.3257 -0.9817 0.2312, 0.3256 -0.9817 0.2312, 0.321 -0.9836 0.2312, 0.321 -0.9836 0.2312, 0.335 -0.9654 0.2262, 0.3536 -0.4331 0.2075, 0.335 -0.9654 0.2261, 0.3527 -0.4331 0.2051, 0.333 -0.9655 0.2213, 0.3516 -0.4331 0.2027, 0.3502 -0.4331 0.2006, 0.33 -0.9655 0.2174, 0.3485 -0.4331 0.1987, 0.3299 -0.9655 0.2173, 0.3465 -0.4331 0.197, 0.3258 -0.9655 0.2141, 0.3444 -0.4331 0.1955, 0.3194 -0.9654 0.212, 0.3182 -0.9653 0.2118, 0.3421 -0.4331 0.1944, 0.3214 -0.9654 0.2123, 0.3397 -0.4331 0.1936, 0.3211 -0.9654 0.2122, 0.3206 -0.9654 0.2121, 0.3172 -0.9653 0.2117, 0.3164 -0.9653 0.2116, -0.3344 -0.9699 0.2262, -0.3325 -0.9744 0.2262, -0.3294 -0.9782 0.2262, -0.3255 -0.9811 0.2262, -0.3214 -0.9661 0.2123, -0.3176 -0.9699 0.2123, -0.3259 -0.9674 0.2143, -0.3297 -0.9685 0.2174, -0.3326 -0.9694 0.2215, -0.321 -0.983 0.2262, -0.3162 -0.9836 0.2262, -0.3205 -0.9811 0.2215, -0.3162 -0.9817 0.2215, -0.3162 -0.9836 0.2262, -0.3198 -0.9782 0.2174, -0.3162 -0.9787 0.2175, -0.3162 -0.9817 0.2215, -0.3187 -0.9744 0.2143, -0.3162 -0.9748 0.2144, -0.3162 -0.9787 0.2174, -0.3162 -0.9701 0.2123, -0.3162 -0.9702 0.2123, -0.3162 -0.9747 0.2143, -0.3246 -0.9795 0.2215, -0.3231 -0.9768 0.2174, -0.3212 -0.9734 0.2143, -0.3189 -0.9694 0.2123, -0.3281 -0.9768 0.2215, -0.326 -0.9747 0.2174, -0.3232 -0.9718 0.2143, -0.32 -0.9685 0.2123, -0.3309 -0.9734 0.2215, -0.3282 -0.9718 0.2174, -0.3249 -0.9698 0.2143, -0.3209 -0.9674 0.2123, 0.316 -0.9836 0.2262, 0.316 -0.9836 0.2262, 0.3208 -0.983 0.2262, 0.3343 -0.9699 0.2262, 0.3295 -0.9685 0.2174, 0.3257 -0.9674 0.2143, 0.3213 -0.9661 0.2123, 0.3207 -0.9674 0.2123, 0.3198 -0.9685 0.2123, 0.3187 -0.9694 0.2123, 0.3174 -0.9699 0.2123, 0.316 -0.9701 0.2123, 0.3323 -0.9744 0.2262, 0.3293 -0.9782 0.2262, 0.3254 -0.9811 0.2262, 0.3203 -0.9811 0.2215, 0.3244 -0.9795 0.2215, 0.3279 -0.9768 0.2215, 0.3307 -0.9734 0.2215, 0.3324 -0.9694 0.2215, 0.316 -0.9817 0.2215, 0.316 -0.9817 0.2215, 0.316 -0.9787 0.2175, 0.3196 -0.9782 0.2174, 0.3229 -0.9768 0.2174, 0.3258 -0.9747 0.2174, 0.3281 -0.9718 0.2174, 0.3247 -0.9698 0.2143, 0.3231 -0.9718 0.2143, 0.321 -0.9734 0.2143, 0.3186 -0.9744 0.2143, 0.316 -0.9787 0.2174, 0.316 -0.9748 0.2144, 0.316 -0.9747 0.2143, 0.316 -0.9702 0.2123
            ]
        }
        coordIndex [
            0,1,2,-1,2,1,3,-1,4,5,6,-1,6,5,7,-1,8,9,10,-1,10,9,11,-1,12,13,14,-1,14,13,15,-1,16,17,18,-1,18,17,19,-1,8,10,20,-1,8,20,21,-1,21,20,22,-1,21,22,23,-1,23,22,24,-1,23,24,25,-1,25,24,26,-1,26,24,27,-1,26,27,28,-1,28,27,29,-1,28,29,30,-1,30,29,31,-1,30,31,32,-1,33,34,6,-1,32,31,35,-1,35,31,36,-1,35,36,37,-1,37,36,38,-1,37,38,6,-1,6,38,39,-1,6,39,33,-1,34,40,6,-1,6,40,41,-1,6,41,4,-1,5,4,42,-1,42,4,43,-1,42,43,44,-1,44,43,45,-1,44,45,46,-1,46,45,47,-1,46,47,48,-1,48,47,49,-1,48,49,50,-1,50,49,51,-1,50,51,52,-1,52,51,53,-1,52,53,54,-1,54,53,55,-1,54,55,56,-1,56,55,57,-1,56,57,58,-1,58,57,59,-1,58,59,60,-1,59,61,60,-1,60,61,19,-1,60,19,17,-1,7,5,62,-1,62,5,63,-1,63,64,62,-1,62,64,65,-1,62,65,66,-1,66,67,62,-1,62,67,68,-1,62,68,69,-1,69,68,70,-1,69,70,71,-1,71,70,72,-1,71,72,73,-1,73,72,74,-1,73,74,75,-1,75,74,76,-1,76,74,77,-1,76,77,78,-1,78,77,79,-1,78,79,80,-1,80,79,81,-1,80,81,82,-1,82,81,1,-1,1,81,83,-1,1,83,3,-1,84,85,86,-1,87,88,89,-1,90,91,92,-1,10,93,94,-1,95,24,96,-1,96,24,22,-1,96,22,94,-1,94,22,20,-1,94,20,10,-1,97,31,98,-1,98,31,29,-1,98,29,95,-1,95,29,27,-1,95,27,24,-1,39,38,97,-1,97,38,36,-1,97,36,31,-1,4,41,43,-1,43,41,99,-1,43,99,45,-1,45,99,100,-1,101,49,100,-1,100,49,47,-1,100,47,45,-1,102,53,101,-1,101,53,51,-1,101,51,49,-1,61,59,103,-1,103,59,57,-1,103,57,102,-1,102,57,55,-1,102,55,53,-1,19,61,104,-1,104,61,103,-1,104,103,105,-1,105,103,106,-1,91,106,92,-1,92,106,103,-1,92,103,107,-1,107,103,102,-1,107,102,108,-1,108,102,101,-1,108,101,109,-1,109,101,100,-1,109,100,110,-1,110,100,99,-1,110,99,40,-1,40,99,41,-1,88,90,89,-1,89,90,92,-1,89,92,111,-1,111,92,107,-1,111,107,112,-1,112,107,108,-1,112,108,113,-1,113,108,109,-1,113,109,114,-1,114,109,110,-1,114,110,34,-1,34,110,40,-1,85,87,86,-1,86,87,89,-1,86,89,115,-1,115,89,111,-1,115,111,116,-1,116,111,112,-1,116,112,117,-1,117,112,113,-1,117,113,118,-1,118,113,114,-1,118,114,33,-1,33,114,34,-1,93,84,94,-1,94,84,86,-1,94,86,96,-1,96,86,115,-1,96,115,95,-1,95,115,116,-1,95,116,98,-1,98,116,117,-1,98,117,97,-1,97,117,118,-1,97,118,39,-1,39,118,33,-1,119,120,121,-1,122,123,124,-1,125,126,127,-1,128,129,130,-1,131,132,133,-1,68,67,134,-1,135,63,5,-1,68,134,70,-1,70,134,136,-1,70,136,72,-1,72,136,74,-1,74,136,137,-1,74,137,77,-1,77,137,138,-1,77,138,79,-1,79,138,81,-1,81,138,133,-1,81,133,83,-1,83,133,132,-1,83,132,3,-1,5,42,135,-1,135,42,44,-1,135,44,139,-1,44,46,139,-1,139,46,48,-1,139,48,140,-1,48,50,140,-1,140,50,52,-1,140,52,141,-1,52,54,141,-1,141,54,56,-1,141,56,121,-1,129,131,130,-1,130,131,133,-1,130,133,142,-1,142,133,138,-1,142,138,143,-1,143,138,137,-1,143,137,144,-1,144,137,136,-1,144,136,145,-1,145,136,134,-1,145,134,66,-1,66,134,67,-1,126,128,127,-1,127,128,130,-1,127,130,146,-1,146,130,142,-1,146,142,147,-1,147,142,143,-1,147,143,148,-1,148,143,144,-1,148,144,149,-1,149,144,145,-1,149,145,65,-1,65,145,66,-1,123,125,124,-1,124,125,127,-1,124,127,150,-1,150,127,146,-1,150,146,151,-1,151,146,147,-1,151,147,152,-1,152,147,148,-1,152,148,153,-1,153,148,149,-1,153,149,64,-1,64,149,65,-1,120,122,121,-1,121,122,124,-1,121,124,141,-1,141,124,150,-1,141,150,140,-1,140,150,151,-1,140,151,139,-1,139,151,152,-1,139,152,135,-1,135,152,153,-1,135,153,63,-1,63,153,64,-1,17,119,60,-1,60,119,121,-1,60,121,58,-1,58,121,56,-1,12,14,154,-1,154,14,155,-1,155,156,154,-1,154,156,157,-1,154,157,158,-1,158,159,154,-1,154,159,160,-1,154,160,161,-1,161,160,162,-1,161,162,163,-1,163,162,164,-1,163,164,165,-1,165,164,166,-1,165,166,167,-1,167,166,168,-1,168,166,169,-1,168,169,170,-1,170,169,171,-1,170,171,172,-1,172,171,173,-1,172,173,174,-1,174,173,9,-1,9,173,175,-1,9,175,11,-1,10,11,93,-1,93,11,176,-1,93,176,84,-1,84,176,177,-1,84,177,85,-1,85,177,178,-1,85,178,87,-1,87,178,179,-1,87,179,88,-1,88,179,180,-1,88,180,90,-1,90,180,181,-1,90,181,91,-1,91,181,182,-1,91,182,106,-1,106,182,183,-1,106,183,105,-1,105,183,184,-1,105,184,104,-1,184,185,104,-1,104,185,18,-1,104,18,19,-1,2,3,186,-1,186,3,132,-1,186,132,187,-1,187,132,131,-1,187,131,188,-1,188,131,129,-1,188,129,189,-1,189,129,128,-1,189,128,190,-1,190,128,126,-1,190,126,191,-1,191,126,125,-1,191,125,192,-1,192,125,123,-1,192,123,193,-1,193,123,122,-1,193,122,194,-1,194,122,120,-1,194,120,195,-1,120,119,195,-1,195,119,17,-1,195,17,16,-1,0,2,196,-1,0,196,197,-1,197,196,198,-1,197,198,199,-1,199,198,200,-1,199,200,201,-1,201,200,202,-1,202,200,203,-1,202,203,204,-1,204,203,205,-1,204,205,206,-1,206,205,207,-1,206,207,208,-1,209,210,13,-1,208,207,211,-1,211,207,212,-1,211,212,213,-1,213,212,214,-1,213,214,13,-1,13,214,215,-1,13,215,209,-1,210,216,13,-1,13,216,217,-1,13,217,15,-1,177,176,218,-1,179,178,219,-1,181,180,220,-1,183,182,221,-1,160,159,222,-1,223,155,14,-1,160,222,162,-1,162,222,224,-1,162,224,164,-1,164,224,166,-1,166,224,225,-1,166,225,169,-1,169,225,226,-1,169,226,171,-1,171,226,173,-1,173,226,218,-1,173,218,175,-1,175,218,176,-1,175,176,11,-1,184,227,185,-1,185,227,228,-1,185,228,18,-1,229,230,227,-1,227,230,231,-1,227,231,228,-1,232,233,229,-1,229,233,234,-1,229,234,230,-1,235,236,232,-1,232,236,237,-1,232,237,233,-1,14,238,223,-1,223,238,239,-1,223,239,235,-1,235,239,240,-1,235,240,236,-1,184,183,227,-1,227,183,221,-1,227,221,229,-1,229,221,241,-1,229,241,232,-1,232,241,242,-1,232,242,235,-1,235,242,243,-1,235,243,223,-1,223,243,244,-1,223,244,155,-1,155,244,156,-1,182,181,221,-1,221,181,220,-1,221,220,241,-1,241,220,245,-1,241,245,242,-1,242,245,246,-1,242,246,243,-1,243,246,247,-1,243,247,244,-1,244,247,248,-1,244,248,156,-1,156,248,157,-1,180,179,220,-1,220,179,219,-1,220,219,245,-1,245,219,249,-1,245,249,246,-1,246,249,250,-1,246,250,247,-1,247,250,251,-1,247,251,248,-1,248,251,252,-1,248,252,157,-1,157,252,158,-1,178,177,219,-1,219,177,218,-1,219,218,249,-1,249,218,226,-1,249,226,250,-1,250,226,225,-1,250,225,251,-1,251,225,224,-1,251,224,252,-1,252,224,222,-1,252,222,158,-1,158,222,159,-1,253,254,255,-1,256,196,2,-1,205,203,257,-1,257,203,200,-1,258,207,205,-1,214,212,259,-1,259,212,207,-1,214,259,215,-1,215,259,260,-1,215,260,209,-1,209,260,261,-1,209,261,210,-1,210,261,262,-1,210,262,216,-1,216,262,263,-1,216,263,217,-1,217,263,264,-1,217,264,15,-1,2,186,256,-1,256,186,187,-1,256,187,265,-1,187,188,265,-1,265,188,189,-1,265,189,266,-1,189,190,266,-1,266,190,191,-1,266,191,267,-1,191,192,267,-1,267,192,193,-1,267,193,255,-1,16,253,195,-1,195,253,255,-1,195,255,194,-1,194,255,193,-1,254,268,255,-1,255,268,269,-1,255,269,267,-1,267,269,270,-1,267,270,266,-1,266,270,271,-1,266,271,265,-1,265,271,272,-1,265,272,256,-1,256,272,198,-1,256,198,196,-1,254,273,268,-1,268,273,274,-1,268,274,275,-1,275,276,268,-1,268,276,277,-1,268,277,269,-1,269,277,278,-1,269,278,270,-1,270,278,279,-1,270,279,271,-1,271,279,257,-1,271,257,272,-1,272,257,200,-1,272,200,198,-1,205,257,258,-1,258,257,279,-1,258,279,280,-1,280,279,278,-1,280,278,281,-1,281,278,277,-1,281,277,282,-1,282,277,276,-1,282,276,283,-1,275,284,276,-1,276,284,285,-1,276,285,283,-1,283,285,286,-1,283,286,287,-1,207,258,259,-1,259,258,280,-1,259,280,260,-1,260,280,281,-1,260,281,261,-1,261,281,282,-1,261,282,262,-1,262,282,283,-1,262,283,263,-1,263,283,287,-1,263,287,264,-1,14,15,238,-1,238,15,264,-1,238,264,239,-1,239,264,287,-1,239,287,240,-1,240,287,286,-1,240,286,236,-1,236,286,285,-1,236,285,237,-1,237,285,284,-1,237,284,233,-1,233,284,275,-1,233,275,234,-1,234,275,274,-1,234,274,230,-1,230,274,273,-1,230,273,231,-1,231,273,254,-1,231,254,228,-1,254,253,228,-1,228,253,16,-1,228,16,18,-1,
        ]
    }
}
Shape{
    appearance Appearance {
        material  Material 	{
            diffuseColor 0.8431372549019608 0.8156862745098039 0.7529411764705882
            specularColor 0.4235294117647059 0.40784313725490196 0.3764705882352941
            ambientIntensity 0.8167
            transparency 0.0
            shininess 0.5
        }
    }
    geometry IndexedFaceSet {
        ccw TRUE
        solid FALSE
        coord DEF co Coordinate {
            point [
                0.807 -0.4331 0.5079, 0.8107 -0.4331 0.5079, 0.807 -0.4331 0.1929, 0.8107 -0.4331 0.1929, 0.8107 -0.5118 0.1929, 0.8107 -0.5118 0.5079, 0.6139 -0.4331 0.5079, 0.6139 -0.5118 0.5079, 0.6139 -0.5118 0.1929, 0.6139 -0.4331 0.1929, 0.732 -0.5906 0.2717, 0.732 -0.5906 0.4291, 0.6926 -0.5906 0.2717, 0.6926 -0.5906 0.4291, -0.8072 -0.4331 0.1929, -0.8109 -0.4331 0.1929, -0.8072 -0.4331 0.5079, -0.8109 -0.4331 0.5079, -0.614 -0.5118 0.1929, -0.614 -0.4331 0.1929, -0.614 -0.5118 0.5079, -0.614 -0.4331 0.5079, -0.8109 -0.5118 0.5079, -0.8109 -0.5118 0.1929, -0.6928 -0.5906 0.2717, -0.6928 -0.5906 0.4291, -0.7322 -0.5906 0.2717, -0.7322 -0.5906 0.4291, -0.2363 -0.1378 -0.0079, -0.2397 -0.1633 -0.0079, -0.2392 -0.1614 -0.1378, -0.2495 -0.187 -0.0079, -0.2476 -0.1835 -0.1378, -0.2399 -0.1632 -0.1378, -0.2651 -0.2074 -0.0079, -0.2611 -0.2031 -0.1378, -0.2498 -0.1868 -0.1378, -0.2855 -0.223 -0.0079, -0.2788 -0.2188 -0.1378, -0.2655 -0.207 -0.1378, -0.3093 -0.2329 -0.0079, -0.2998 -0.2298 -0.1378, -0.2858 -0.2225 -0.1378, -0.3347 -0.2362 -0.0079, -0.3229 -0.2355 -0.1378, -0.3094 -0.2322 -0.1378, -0.3602 -0.2329 -0.0079, -0.3466 -0.2355 -0.1378, -0.3347 -0.2355 -0.1378, -0.3839 -0.223 -0.0079, -0.3696 -0.2298 -0.1378, -0.36 -0.2322 -0.1378, -0.4043 -0.2074 -0.0079, -0.3906 -0.2188 -0.1378, -0.3837 -0.2225 -0.1378, -0.42 -0.187 -0.0079, -0.4084 -0.2031 -0.1378, -0.404 -0.207 -0.1378, -0.4298 -0.1633 -0.0079, -0.4219 -0.1835 -0.1378, -0.4196 -0.1868 -0.1378, -0.4332 -0.1378 -0.0079, -0.4303 -0.1614 -0.1378, -0.4296 -0.1632 -0.1378, -0.4298 -0.1123 -0.0079, -0.4303 -0.1142 -0.1378, -0.4332 -0.1378 -0.1378, -0.42 -0.0886 -0.0079, -0.4219 -0.0921 -0.1378, -0.4296 -0.1124 -0.1378, -0.4043 -0.0682 -0.0079, -0.4084 -0.0725 -0.1378, -0.4196 -0.0888 -0.1378, -0.3839 -0.0526 -0.0079, -0.3906 -0.0568 -0.1378, -0.404 -0.0686 -0.1378, -0.3602 -0.0427 -0.0079, -0.3696 -0.0458 -0.1378, -0.3837 -0.0531 -0.1378, -0.3347 -0.0394 -0.0079, -0.3466 -0.0401 -0.1378, -0.36 -0.0434 -0.1378, -0.3093 -0.0427 -0.0079, -0.3229 -0.0401 -0.1378, -0.3347 -0.0401 -0.1378, -0.2855 -0.0526 -0.0079, -0.2998 -0.0458 -0.1378, -0.3094 -0.0434 -0.1378, -0.2651 -0.0682 -0.0079, -0.2788 -0.0568 -0.1378, -0.2858 -0.0531 -0.1378, -0.2495 -0.0886 -0.0079, -0.2611 -0.0725 -0.1378, -0.2655 -0.0686 -0.1378, -0.2397 -0.1123 -0.0079, -0.2476 -0.0921 -0.1378, -0.2498 -0.0888 -0.1378, -0.2363 -0.1378 -0.1378, -0.2392 -0.1142 -0.1378, -0.2399 -0.1124 -0.1378, -0.3741 -0.1378 -0.1968, -0.373 -0.1284 -0.1968, -0.3347 -0.1378 -0.1968, -0.373 -0.1472 -0.1968, -0.3571 -0.1702 -0.1968, -0.3642 -0.1639 -0.1968, -0.3696 -0.1561 -0.1968, -0.33 -0.1769 -0.1968, -0.3395 -0.1769 -0.1968, -0.3487 -0.1746 -0.1968, -0.3053 -0.1639 -0.1968, -0.3124 -0.1702 -0.1968, -0.3208 -0.1746 -0.1968, -0.2954 -0.1378 -0.1968, -0.2965 -0.1472 -0.1968, -0.2999 -0.1561 -0.1968, -0.3053 -0.1117 -0.1968, -0.2999 -0.1195 -0.1968, -0.2965 -0.1284 -0.1968, -0.33 -0.0987 -0.1968, -0.3208 -0.101 -0.1968, -0.3124 -0.1054 -0.1968, -0.3571 -0.1054 -0.1968, -0.3487 -0.101 -0.1968, -0.3395 -0.0987 -0.1968, -0.3696 -0.1195 -0.1968, -0.3642 -0.1117 -0.1968, 0.433 -0.1378 -0.0079, 0.4296 -0.1633 -0.0079, 0.4301 -0.1614 -0.1378, 0.4198 -0.187 -0.0079, 0.4217 -0.1835 -0.1378, 0.4294 -0.1632 -0.1378, 0.4042 -0.2074 -0.0079, 0.4082 -0.2031 -0.1378, 0.4195 -0.1868 -0.1378, 0.3838 -0.223 -0.0079, 0.3905 -0.2188 -0.1378, 0.4038 -0.207 -0.1378, 0.36 -0.2329 -0.0079, 0.3695 -0.2298 -0.1378, 0.3835 -0.2225 -0.1378, 0.3346 -0.2362 -0.0079, 0.3464 -0.2355 -0.1378, 0.3599 -0.2322 -0.1378, 0.3091 -0.2329 -0.0079, 0.3227 -0.2355 -0.1378, 0.3346 -0.2355 -0.1378, 0.2853 -0.223 -0.0079, 0.2997 -0.2298 -0.1378, 0.3092 -0.2322 -0.1378, 0.265 -0.2074 -0.0079, 0.2786 -0.2188 -0.1378, 0.2856 -0.2225 -0.1378, 0.2493 -0.187 -0.0079, 0.2609 -0.2031 -0.1378, 0.2653 -0.207 -0.1378, 0.2395 -0.1633 -0.0079, 0.2474 -0.1835 -0.1378, 0.2496 -0.1868 -0.1378, 0.2361 -0.1378 -0.0079, 0.239 -0.1614 -0.1378, 0.2397 -0.1632 -0.1378, 0.2395 -0.1123 -0.0079, 0.239 -0.1142 -0.1378, 0.2361 -0.1378 -0.1378, 0.2493 -0.0886 -0.0079, 0.2474 -0.0921 -0.1378, 0.2397 -0.1124 -0.1378, 0.265 -0.0682 -0.0079, 0.2609 -0.0725 -0.1378, 0.2496 -0.0888 -0.1378, 0.2853 -0.0526 -0.0079, 0.2786 -0.0568 -0.1378, 0.2653 -0.0686 -0.1378, 0.3091 -0.0427 -0.0079, 0.2997 -0.0458 -0.1378, 0.2856 -0.0531 -0.1378, 0.3346 -0.0394 -0.0079, 0.3227 -0.0401 -0.1378, 0.3092 -0.0434 -0.1378, 0.36 -0.0427 -0.0079, 0.3464 -0.0401 -0.1378, 0.3346 -0.0401 -0.1378, 0.3838 -0.0526 -0.0079, 0.3695 -0.0458 -0.1378, 0.3599 -0.0434 -0.1378, 0.4042 -0.0682 -0.0079, 0.3905 -0.0568 -0.1378, 0.3835 -0.0531 -0.1378, 0.4198 -0.0886 -0.0079, 0.4082 -0.0725 -0.1378, 0.4038 -0.0686 -0.1378, 0.4296 -0.1123 -0.0079, 0.4217 -0.0921 -0.1378, 0.4195 -0.0888 -0.1378, 0.433 -0.1378 -0.1378, 0.4301 -0.1142 -0.1378, 0.4294 -0.1124 -0.1378, 0.2952 -0.1378 -0.1968, 0.2963 -0.1284 -0.1968, 0.3346 -0.1378 -0.1968, 0.2963 -0.1472 -0.1968, 0.3122 -0.1702 -0.1968, 0.3051 -0.1639 -0.1968, 0.2997 -0.1561 -0.1968, 0.3393 -0.1769 -0.1968, 0.3298 -0.1769 -0.1968, 0.3206 -0.1746 -0.1968, 0.364 -0.1639 -0.1968, 0.3569 -0.1702 -0.1968, 0.3485 -0.1746 -0.1968, 0.3739 -0.1378 -0.1968, 0.3728 -0.1472 -0.1968, 0.3694 -0.1561 -0.1968, 0.364 -0.1117 -0.1968, 0.3694 -0.1195 -0.1968, 0.3728 -0.1284 -0.1968, 0.3393 -0.0987 -0.1968, 0.3485 -0.101 -0.1968, 0.3569 -0.1054 -0.1968, 0.3122 -0.1054 -0.1968, 0.3206 -0.101 -0.1968, 0.3298 -0.0987 -0.1968, 0.2997 -0.1195 -0.1968, 0.3051 -0.1117 -0.1968, -0.4201 -0.093 -0.1531, -0.4069 -0.0739 -0.1531, -0.3895 -0.0585 -0.1531, -0.3689 -0.0477 -0.1531, -0.28 -0.0585 -0.1531, -0.2626 -0.0739 -0.1531, -0.2494 -0.093 -0.1531, -0.2411 -0.1147 -0.1531, -0.2494 -0.1826 -0.1531, -0.2626 -0.2017 -0.1531, -0.28 -0.2171 -0.1531, -0.3005 -0.2279 -0.1531, -0.3895 -0.2171 -0.1531, -0.4069 -0.2017 -0.1531, -0.4201 -0.1826 -0.1531, -0.4283 -0.1609 -0.1531, -0.3541 -0.1889 -0.1948, -0.3413 -0.1921 -0.1948, -0.3592 -0.2022 -0.1889, -0.343 -0.2062 -0.1889, -0.3635 -0.2137 -0.1796, -0.3445 -0.2183 -0.1796, -0.3668 -0.2224 -0.1673, -0.3456 -0.2277 -0.1673, -0.3689 -0.2279 -0.1531, -0.3464 -0.2335 -0.1531, -0.3154 -0.0867 -0.1948, -0.3281 -0.0835 -0.1948, -0.3103 -0.0734 -0.1889, -0.3264 -0.0694 -0.1889, -0.306 -0.0619 -0.1796, -0.325 -0.0573 -0.1796, -0.3026 -0.0532 -0.1673, -0.3238 -0.0479 -0.1673, -0.3005 -0.0477 -0.1531, -0.3231 -0.0421 -0.1531, -0.3894 -0.1378 -0.1948, -0.3878 -0.1509 -0.1948, -0.4036 -0.1378 -0.1889, -0.4016 -0.1543 -0.1889, -0.4159 -0.1378 -0.1796, -0.4135 -0.1572 -0.1796, -0.4252 -0.1378 -0.1673, -0.4226 -0.1595 -0.1673, -0.4311 -0.1378 -0.1531, -0.4149 -0.1799 -0.1673, -0.4066 -0.1755 -0.1796, -0.3957 -0.1698 -0.1889, -0.3831 -0.1632 -0.1948, -0.4025 -0.1978 -0.1673, -0.3955 -0.1916 -0.1796, -0.3863 -0.1835 -0.1889, -0.3756 -0.174 -0.1948, -0.3862 -0.2123 -0.1673, -0.3808 -0.2046 -0.1796, -0.3739 -0.1945 -0.1889, -0.3658 -0.1828 -0.1948, -0.3231 -0.2335 -0.1531, -0.3238 -0.2277 -0.1673, -0.325 -0.2183 -0.1796, -0.3264 -0.2062 -0.1889, -0.3281 -0.1921 -0.1948, -0.3026 -0.2224 -0.1673, -0.306 -0.2137 -0.1796, -0.3103 -0.2022 -0.1889, -0.3154 -0.1889 -0.1948, -0.2833 -0.2123 -0.1673, -0.2886 -0.2046 -0.1796, -0.2956 -0.1945 -0.1889, -0.3037 -0.1828 -0.1948, -0.267 -0.1978 -0.1673, -0.274 -0.1916 -0.1796, -0.2832 -0.1835 -0.1889, -0.2938 -0.174 -0.1948, -0.2546 -0.1799 -0.1673, -0.2629 -0.1755 -0.1796, -0.2737 -0.1698 -0.1889, -0.2863 -0.1632 -0.1948, -0.2411 -0.1609 -0.1531, -0.2469 -0.1595 -0.1673, -0.256 -0.1572 -0.1796, -0.2678 -0.1543 -0.1889, -0.2817 -0.1509 -0.1948, -0.2801 -0.1378 -0.1948, -0.2658 -0.1378 -0.1889, -0.2536 -0.1378 -0.1796, -0.2442 -0.1378 -0.1673, -0.2383 -0.1378 -0.1531, -0.2817 -0.1247 -0.1948, -0.2678 -0.1213 -0.1889, -0.256 -0.1184 -0.1796, -0.2469 -0.1161 -0.1673, -0.2546 -0.0957 -0.1673, -0.2629 -0.1001 -0.1796, -0.2737 -0.1058 -0.1889, -0.2863 -0.1124 -0.1948, -0.267 -0.0778 -0.1673, -0.274 -0.084 -0.1796, -0.2832 -0.0921 -0.1889, -0.2938 -0.1016 -0.1948, -0.2833 -0.0633 -0.1673, -0.2886 -0.071 -0.1796, -0.2956 -0.0811 -0.1889, -0.3037 -0.0928 -0.1948, -0.3464 -0.0421 -0.1531, -0.3456 -0.0479 -0.1673, -0.3445 -0.0573 -0.1796, -0.343 -0.0694 -0.1889, -0.3413 -0.0835 -0.1948, -0.3668 -0.0532 -0.1673, -0.3635 -0.0619 -0.1796, -0.3592 -0.0734 -0.1889, -0.3541 -0.0867 -0.1948, -0.3862 -0.0633 -0.1673, -0.3808 -0.071 -0.1796, -0.3739 -0.0811 -0.1889, -0.3658 -0.0928 -0.1948, -0.4025 -0.0778 -0.1673, -0.3955 -0.084 -0.1796, -0.3863 -0.0921 -0.1889, -0.3756 -0.1016 -0.1948, -0.4149 -0.0957 -0.1673, -0.4066 -0.1001 -0.1796, -0.3957 -0.1058 -0.1889, -0.3831 -0.1124 -0.1948, -0.4283 -0.1147 -0.1531, -0.4226 -0.1161 -0.1673, -0.4135 -0.1184 -0.1796, -0.4016 -0.1213 -0.1889, -0.3878 -0.1247 -0.1948, 0.2492 -0.093 -0.1531, 0.2624 -0.0739 -0.1531, 0.2798 -0.0585 -0.1531, 0.3004 -0.0477 -0.1531, 0.3893 -0.0585 -0.1531, 0.4067 -0.0739 -0.1531, 0.4199 -0.093 -0.1531, 0.4282 -0.1147 -0.1531, 0.4199 -0.1826 -0.1531, 0.4067 -0.2017 -0.1531, 0.3893 -0.2171 -0.1531, 0.3687 -0.2279 -0.1531, 0.2798 -0.2171 -0.1531, 0.2624 -0.2017 -0.1531, 0.2492 -0.1826 -0.1531, 0.2409 -0.1609 -0.1531, 0.3152 -0.1889 -0.1948, 0.328 -0.1921 -0.1948, 0.3101 -0.2022 -0.1889, 0.3263 -0.2062 -0.1889, 0.3058 -0.2137 -0.1796, 0.3248 -0.2183 -0.1796, 0.3025 -0.2224 -0.1673, 0.3236 -0.2277 -0.1673, 0.3004 -0.2279 -0.1531, 0.3229 -0.2335 -0.1531, 0.3539 -0.0867 -0.1948, 0.3411 -0.0835 -0.1948, 0.359 -0.0734 -0.1889, 0.3429 -0.0694 -0.1889, 0.3633 -0.0619 -0.1796, 0.3443 -0.0573 -0.1796, 0.3667 -0.0532 -0.1673, 0.3455 -0.0479 -0.1673, 0.3687 -0.0477 -0.1531, 0.3462 -0.0421 -0.1531, 0.2799 -0.1378 -0.1948, 0.2815 -0.1509 -0.1948, 0.2657 -0.1378 -0.1889, 0.2677 -0.1543 -0.1889, 0.2534 -0.1378 -0.1796, 0.2558 -0.1572 -0.1796, 0.244 -0.1378 -0.1673, 0.2467 -0.1595 -0.1673, 0.2381 -0.1378 -0.1531, 0.2544 -0.1799 -0.1673, 0.2627 -0.1755 -0.1796, 0.2735 -0.1698 -0.1889, 0.2862 -0.1632 -0.1948, 0.2668 -0.1978 -0.1673, 0.2738 -0.1916 -0.1796, 0.283 -0.1835 -0.1889, 0.2936 -0.174 -0.1948, 0.2831 -0.2123 -0.1673, 0.2885 -0.2046 -0.1796, 0.2954 -0.1945 -0.1889, 0.3035 -0.1828 -0.1948, 0.3462 -0.2335 -0.1531, 0.3455 -0.2277 -0.1673, 0.3443 -0.2183 -0.1796, 0.3429 -0.2062 -0.1889, 0.3411 -0.1921 -0.1948, 0.3667 -0.2224 -0.1673, 0.3633 -0.2137 -0.1796, 0.359 -0.2022 -0.1889, 0.3539 -0.1889 -0.1948, 0.386 -0.2123 -0.1673, 0.3806 -0.2046 -0.1796, 0.3737 -0.1945 -0.1889, 0.3656 -0.1828 -0.1948, 0.4023 -0.1978 -0.1673, 0.3953 -0.1916 -0.1796, 0.3861 -0.1835 -0.1889, 0.3755 -0.174 -0.1948, 0.4147 -0.1799 -0.1673, 0.4064 -0.1755 -0.1796, 0.3956 -0.1698 -0.1889, 0.383 -0.1632 -0.1948, 0.4282 -0.1609 -0.1531, 0.4224 -0.1595 -0.1673, 0.4133 -0.1572 -0.1796, 0.4015 -0.1543 -0.1889, 0.3876 -0.1509 -0.1948, 0.3892 -0.1378 -0.1948, 0.4035 -0.1378 -0.1889, 0.4157 -0.1378 -0.1796, 0.4251 -0.1378 -0.1673, 0.431 -0.1378 -0.1531, 0.3876 -0.1247 -0.1948, 0.4015 -0.1213 -0.1889, 0.4133 -0.1184 -0.1796, 0.4224 -0.1161 -0.1673, 0.4147 -0.0957 -0.1673, 0.4064 -0.1001 -0.1796, 0.3956 -0.1058 -0.1889, 0.383 -0.1124 -0.1948, 0.4023 -0.0778 -0.1673, 0.3953 -0.084 -0.1796, 0.3861 -0.0921 -0.1889, 0.3755 -0.1016 -0.1948, 0.386 -0.0633 -0.1673, 0.3806 -0.071 -0.1796, 0.3737 -0.0811 -0.1889, 0.3656 -0.0928 -0.1948, 0.3229 -0.0421 -0.1531, 0.3236 -0.0479 -0.1673, 0.3248 -0.0573 -0.1796, 0.3263 -0.0694 -0.1889, 0.328 -0.0835 -0.1948, 0.3025 -0.0532 -0.1673, 0.3058 -0.0619 -0.1796, 0.3101 -0.0734 -0.1889, 0.3152 -0.0867 -0.1948, 0.2831 -0.0633 -0.1673, 0.2885 -0.071 -0.1796, 0.2954 -0.0811 -0.1889, 0.3035 -0.0928 -0.1948, 0.2668 -0.0778 -0.1673, 0.2738 -0.084 -0.1796, 0.283 -0.0921 -0.1889, 0.2936 -0.1016 -0.1948, 0.2544 -0.0957 -0.1673, 0.2627 -0.1001 -0.1796, 0.2735 -0.1058 -0.1889, 0.2862 -0.1124 -0.1948, 0.2409 -0.1147 -0.1531, 0.2467 -0.1161 -0.1673, 0.2558 -0.1184 -0.1796, 0.2677 -0.1213 -0.1889, 0.2815 -0.1247 -0.1948
            ]
        }
        coordIndex [
            0,1,2,-1,2,1,3,-1,4,3,5,-1,5,3,1,-1,6,7,0,-1,0,7,5,-1,0,5,1,-1,7,6,8,-1,8,6,9,-1,3,4,2,-1,2,4,8,-1,2,8,9,-1,10,11,12,-1,12,11,13,-1,14,15,16,-1,16,15,17,-1,18,19,20,-1,20,19,21,-1,17,22,16,-1,16,22,20,-1,16,20,21,-1,22,17,23,-1,23,17,15,-1,19,18,14,-1,14,18,23,-1,14,23,15,-1,24,25,26,-1,26,25,27,-1,7,13,5,-1,5,13,11,-1,8,12,7,-1,7,12,13,-1,10,4,11,-1,11,4,5,-1,4,10,8,-1,8,10,12,-1,22,27,20,-1,20,27,25,-1,23,26,22,-1,22,26,27,-1,24,18,25,-1,25,18,20,-1,18,24,23,-1,23,24,26,-1,28,29,30,-1,31,32,29,-1,29,32,33,-1,29,33,30,-1,34,35,31,-1,31,35,36,-1,31,36,32,-1,37,38,34,-1,34,38,39,-1,34,39,35,-1,40,41,37,-1,37,41,42,-1,37,42,38,-1,43,44,40,-1,40,44,45,-1,40,45,41,-1,46,47,43,-1,43,47,48,-1,43,48,44,-1,49,50,46,-1,46,50,51,-1,46,51,47,-1,52,53,49,-1,49,53,54,-1,49,54,50,-1,55,56,52,-1,52,56,57,-1,52,57,53,-1,58,59,55,-1,55,59,60,-1,55,60,56,-1,61,62,58,-1,58,62,63,-1,58,63,59,-1,64,65,61,-1,61,65,66,-1,61,66,62,-1,67,68,64,-1,64,68,69,-1,64,69,65,-1,70,71,67,-1,67,71,72,-1,67,72,68,-1,73,74,70,-1,70,74,75,-1,70,75,71,-1,76,77,73,-1,73,77,78,-1,73,78,74,-1,79,80,76,-1,76,80,81,-1,76,81,77,-1,82,83,79,-1,79,83,84,-1,79,84,80,-1,85,86,82,-1,82,86,87,-1,82,87,83,-1,88,89,85,-1,85,89,90,-1,85,90,86,-1,91,92,88,-1,88,92,93,-1,88,93,89,-1,94,95,91,-1,91,95,96,-1,91,96,92,-1,30,97,28,-1,28,97,98,-1,28,98,94,-1,94,98,99,-1,94,99,95,-1,100,101,102,-1,100,102,103,-1,104,105,102,-1,102,105,106,-1,102,106,103,-1,107,108,102,-1,102,108,109,-1,102,109,104,-1,110,111,102,-1,102,111,112,-1,102,112,107,-1,113,114,102,-1,102,114,115,-1,102,115,110,-1,116,117,102,-1,102,117,118,-1,102,118,113,-1,119,120,102,-1,102,120,121,-1,102,121,116,-1,122,123,102,-1,102,123,124,-1,102,124,119,-1,101,125,102,-1,102,125,126,-1,102,126,122,-1,127,128,129,-1,130,131,128,-1,128,131,132,-1,128,132,129,-1,133,134,130,-1,130,134,135,-1,130,135,131,-1,136,137,133,-1,133,137,138,-1,133,138,134,-1,139,140,136,-1,136,140,141,-1,136,141,137,-1,142,143,139,-1,139,143,144,-1,139,144,140,-1,145,146,142,-1,142,146,147,-1,142,147,143,-1,148,149,145,-1,145,149,150,-1,145,150,146,-1,151,152,148,-1,148,152,153,-1,148,153,149,-1,154,155,151,-1,151,155,156,-1,151,156,152,-1,157,158,154,-1,154,158,159,-1,154,159,155,-1,160,161,157,-1,157,161,162,-1,157,162,158,-1,163,164,160,-1,160,164,165,-1,160,165,161,-1,166,167,163,-1,163,167,168,-1,163,168,164,-1,169,170,166,-1,166,170,171,-1,166,171,167,-1,172,173,169,-1,169,173,174,-1,169,174,170,-1,175,176,172,-1,172,176,177,-1,172,177,173,-1,178,179,175,-1,175,179,180,-1,175,180,176,-1,181,182,178,-1,178,182,183,-1,178,183,179,-1,184,185,181,-1,181,185,186,-1,181,186,182,-1,187,188,184,-1,184,188,189,-1,184,189,185,-1,190,191,187,-1,187,191,192,-1,187,192,188,-1,193,194,190,-1,190,194,195,-1,190,195,191,-1,129,196,127,-1,127,196,197,-1,127,197,193,-1,193,197,198,-1,193,198,194,-1,199,200,201,-1,199,201,202,-1,203,204,201,-1,201,204,205,-1,201,205,202,-1,206,207,201,-1,201,207,208,-1,201,208,203,-1,209,210,201,-1,201,210,211,-1,201,211,206,-1,212,213,201,-1,201,213,214,-1,201,214,209,-1,215,216,201,-1,201,216,217,-1,201,217,212,-1,218,219,201,-1,201,219,220,-1,201,220,215,-1,221,222,201,-1,201,222,223,-1,201,223,218,-1,200,224,201,-1,201,224,225,-1,201,225,221,-1,69,68,226,-1,72,71,227,-1,75,74,228,-1,78,77,229,-1,90,89,230,-1,93,92,231,-1,96,95,232,-1,99,98,233,-1,33,32,234,-1,36,35,235,-1,39,38,236,-1,42,41,237,-1,54,53,238,-1,57,56,239,-1,60,59,240,-1,63,62,241,-1,109,108,242,-1,242,108,243,-1,242,243,244,-1,244,243,245,-1,244,245,246,-1,246,245,247,-1,246,247,248,-1,248,247,249,-1,248,249,250,-1,250,249,251,-1,120,119,252,-1,252,119,253,-1,252,253,254,-1,254,253,255,-1,254,255,256,-1,256,255,257,-1,256,257,258,-1,258,257,259,-1,258,259,260,-1,260,259,261,-1,100,103,262,-1,262,103,263,-1,262,263,264,-1,264,263,265,-1,264,265,266,-1,266,265,267,-1,266,267,268,-1,268,267,269,-1,268,269,270,-1,270,269,241,-1,270,241,66,-1,66,241,62,-1,59,63,240,-1,240,63,241,-1,240,241,271,-1,271,241,269,-1,271,269,272,-1,272,269,267,-1,272,267,273,-1,273,267,265,-1,273,265,274,-1,274,265,263,-1,274,263,106,-1,106,263,103,-1,56,60,239,-1,239,60,240,-1,239,240,275,-1,275,240,271,-1,275,271,276,-1,276,271,272,-1,276,272,277,-1,277,272,273,-1,277,273,278,-1,278,273,274,-1,278,274,105,-1,105,274,106,-1,53,57,238,-1,238,57,239,-1,238,239,279,-1,279,239,275,-1,279,275,280,-1,280,275,276,-1,280,276,281,-1,281,276,277,-1,281,277,282,-1,282,277,278,-1,282,278,104,-1,104,278,105,-1,50,54,250,-1,250,54,238,-1,250,238,248,-1,248,238,279,-1,248,279,246,-1,246,279,280,-1,246,280,244,-1,244,280,281,-1,244,281,242,-1,242,281,282,-1,242,282,109,-1,109,282,104,-1,45,44,283,-1,283,44,251,-1,283,251,284,-1,284,251,249,-1,284,249,285,-1,285,249,247,-1,285,247,286,-1,286,247,245,-1,286,245,287,-1,287,245,243,-1,287,243,107,-1,107,243,108,-1,44,48,251,-1,251,48,47,-1,251,47,250,-1,250,47,51,-1,250,51,50,-1,41,45,237,-1,237,45,283,-1,237,283,288,-1,288,283,284,-1,288,284,289,-1,289,284,285,-1,289,285,290,-1,290,285,286,-1,290,286,291,-1,291,286,287,-1,291,287,112,-1,112,287,107,-1,38,42,236,-1,236,42,237,-1,236,237,292,-1,292,237,288,-1,292,288,293,-1,293,288,289,-1,293,289,294,-1,294,289,290,-1,294,290,295,-1,295,290,291,-1,295,291,111,-1,111,291,112,-1,35,39,235,-1,235,39,236,-1,235,236,296,-1,296,236,292,-1,296,292,297,-1,297,292,293,-1,297,293,298,-1,298,293,294,-1,298,294,299,-1,299,294,295,-1,299,295,110,-1,110,295,111,-1,32,36,234,-1,234,36,235,-1,234,235,300,-1,300,235,296,-1,300,296,301,-1,301,296,297,-1,301,297,302,-1,302,297,298,-1,302,298,303,-1,303,298,299,-1,303,299,115,-1,115,299,110,-1,30,33,304,-1,304,33,234,-1,304,234,305,-1,305,234,300,-1,305,300,306,-1,306,300,301,-1,306,301,307,-1,307,301,302,-1,307,302,308,-1,308,302,303,-1,308,303,114,-1,114,303,115,-1,114,113,308,-1,308,113,309,-1,308,309,307,-1,307,309,310,-1,307,310,306,-1,306,310,311,-1,306,311,305,-1,305,311,312,-1,305,312,304,-1,304,312,313,-1,304,313,30,-1,30,313,97,-1,113,118,309,-1,309,118,314,-1,309,314,310,-1,310,314,315,-1,310,315,311,-1,311,315,316,-1,311,316,312,-1,312,316,317,-1,312,317,313,-1,313,317,233,-1,313,233,97,-1,97,233,98,-1,95,99,232,-1,232,99,233,-1,232,233,318,-1,318,233,317,-1,318,317,319,-1,319,317,316,-1,319,316,320,-1,320,316,315,-1,320,315,321,-1,321,315,314,-1,321,314,117,-1,117,314,118,-1,92,96,231,-1,231,96,232,-1,231,232,322,-1,322,232,318,-1,322,318,323,-1,323,318,319,-1,323,319,324,-1,324,319,320,-1,324,320,325,-1,325,320,321,-1,325,321,116,-1,116,321,117,-1,89,93,230,-1,230,93,231,-1,230,231,326,-1,326,231,322,-1,326,322,327,-1,327,322,323,-1,327,323,328,-1,328,323,324,-1,328,324,329,-1,329,324,325,-1,329,325,121,-1,121,325,116,-1,86,90,260,-1,260,90,230,-1,260,230,258,-1,258,230,326,-1,258,326,256,-1,256,326,327,-1,256,327,254,-1,254,327,328,-1,254,328,252,-1,252,328,329,-1,252,329,120,-1,120,329,121,-1,81,80,330,-1,330,80,261,-1,330,261,331,-1,331,261,259,-1,331,259,332,-1,332,259,257,-1,332,257,333,-1,333,257,255,-1,333,255,334,-1,334,255,253,-1,334,253,124,-1,124,253,119,-1,80,84,261,-1,261,84,83,-1,261,83,260,-1,260,83,87,-1,260,87,86,-1,77,81,229,-1,229,81,330,-1,229,330,335,-1,335,330,331,-1,335,331,336,-1,336,331,332,-1,336,332,337,-1,337,332,333,-1,337,333,338,-1,338,333,334,-1,338,334,123,-1,123,334,124,-1,74,78,228,-1,228,78,229,-1,228,229,339,-1,339,229,335,-1,339,335,340,-1,340,335,336,-1,340,336,341,-1,341,336,337,-1,341,337,342,-1,342,337,338,-1,342,338,122,-1,122,338,123,-1,71,75,227,-1,227,75,228,-1,227,228,343,-1,343,228,339,-1,343,339,344,-1,344,339,340,-1,344,340,345,-1,345,340,341,-1,345,341,346,-1,346,341,342,-1,346,342,126,-1,126,342,122,-1,68,72,226,-1,226,72,227,-1,226,227,347,-1,347,227,343,-1,347,343,348,-1,348,343,344,-1,348,344,349,-1,349,344,345,-1,349,345,350,-1,350,345,346,-1,350,346,125,-1,125,346,126,-1,65,69,351,-1,351,69,226,-1,351,226,352,-1,352,226,347,-1,352,347,353,-1,353,347,348,-1,353,348,354,-1,354,348,349,-1,354,349,355,-1,355,349,350,-1,355,350,101,-1,101,350,125,-1,101,100,355,-1,355,100,262,-1,355,262,354,-1,354,262,264,-1,354,264,353,-1,353,264,266,-1,353,266,352,-1,352,266,268,-1,352,268,351,-1,351,268,270,-1,351,270,65,-1,65,270,66,-1,168,167,356,-1,171,170,357,-1,174,173,358,-1,177,176,359,-1,189,188,360,-1,192,191,361,-1,195,194,362,-1,198,197,363,-1,132,131,364,-1,135,134,365,-1,138,137,366,-1,141,140,367,-1,153,152,368,-1,156,155,369,-1,159,158,370,-1,162,161,371,-1,208,207,372,-1,372,207,373,-1,372,373,374,-1,374,373,375,-1,374,375,376,-1,376,375,377,-1,376,377,378,-1,378,377,379,-1,378,379,380,-1,380,379,381,-1,219,218,382,-1,382,218,383,-1,382,383,384,-1,384,383,385,-1,384,385,386,-1,386,385,387,-1,386,387,388,-1,388,387,389,-1,388,389,390,-1,390,389,391,-1,199,202,392,-1,392,202,393,-1,392,393,394,-1,394,393,395,-1,394,395,396,-1,396,395,397,-1,396,397,398,-1,398,397,399,-1,398,399,400,-1,400,399,371,-1,400,371,165,-1,165,371,161,-1,158,162,370,-1,370,162,371,-1,370,371,401,-1,401,371,399,-1,401,399,402,-1,402,399,397,-1,402,397,403,-1,403,397,395,-1,403,395,404,-1,404,395,393,-1,404,393,205,-1,205,393,202,-1,155,159,369,-1,369,159,370,-1,369,370,405,-1,405,370,401,-1,405,401,406,-1,406,401,402,-1,406,402,407,-1,407,402,403,-1,407,403,408,-1,408,403,404,-1,408,404,204,-1,204,404,205,-1,152,156,368,-1,368,156,369,-1,368,369,409,-1,409,369,405,-1,409,405,410,-1,410,405,406,-1,410,406,411,-1,411,406,407,-1,411,407,412,-1,412,407,408,-1,412,408,203,-1,203,408,204,-1,149,153,380,-1,380,153,368,-1,380,368,378,-1,378,368,409,-1,378,409,376,-1,376,409,410,-1,376,410,374,-1,374,410,411,-1,374,411,372,-1,372,411,412,-1,372,412,208,-1,208,412,203,-1,144,143,413,-1,413,143,381,-1,413,381,414,-1,414,381,379,-1,414,379,415,-1,415,379,377,-1,415,377,416,-1,416,377,375,-1,416,375,417,-1,417,375,373,-1,417,373,206,-1,206,373,207,-1,143,147,381,-1,381,147,146,-1,381,146,380,-1,380,146,150,-1,380,150,149,-1,140,144,367,-1,367,144,413,-1,367,413,418,-1,418,413,414,-1,418,414,419,-1,419,414,415,-1,419,415,420,-1,420,415,416,-1,420,416,421,-1,421,416,417,-1,421,417,211,-1,211,417,206,-1,137,141,366,-1,366,141,367,-1,366,367,422,-1,422,367,418,-1,422,418,423,-1,423,418,419,-1,423,419,424,-1,424,419,420,-1,424,420,425,-1,425,420,421,-1,425,421,210,-1,210,421,211,-1,134,138,365,-1,365,138,366,-1,365,366,426,-1,426,366,422,-1,426,422,427,-1,427,422,423,-1,427,423,428,-1,428,423,424,-1,428,424,429,-1,429,424,425,-1,429,425,209,-1,209,425,210,-1,131,135,364,-1,364,135,365,-1,364,365,430,-1,430,365,426,-1,430,426,431,-1,431,426,427,-1,431,427,432,-1,432,427,428,-1,432,428,433,-1,433,428,429,-1,433,429,214,-1,214,429,209,-1,129,132,434,-1,434,132,364,-1,434,364,435,-1,435,364,430,-1,435,430,436,-1,436,430,431,-1,436,431,437,-1,437,431,432,-1,437,432,438,-1,438,432,433,-1,438,433,213,-1,213,433,214,-1,213,212,438,-1,438,212,439,-1,438,439,437,-1,437,439,440,-1,437,440,436,-1,436,440,441,-1,436,441,435,-1,435,441,442,-1,435,442,434,-1,434,442,443,-1,434,443,129,-1,129,443,196,-1,212,217,439,-1,439,217,444,-1,439,444,440,-1,440,444,445,-1,440,445,441,-1,441,445,446,-1,441,446,442,-1,442,446,447,-1,442,447,443,-1,443,447,363,-1,443,363,196,-1,196,363,197,-1,194,198,362,-1,362,198,363,-1,362,363,448,-1,448,363,447,-1,448,447,449,-1,449,447,446,-1,449,446,450,-1,450,446,445,-1,450,445,451,-1,451,445,444,-1,451,444,216,-1,216,444,217,-1,191,195,361,-1,361,195,362,-1,361,362,452,-1,452,362,448,-1,452,448,453,-1,453,448,449,-1,453,449,454,-1,454,449,450,-1,454,450,455,-1,455,450,451,-1,455,451,215,-1,215,451,216,-1,188,192,360,-1,360,192,361,-1,360,361,456,-1,456,361,452,-1,456,452,457,-1,457,452,453,-1,457,453,458,-1,458,453,454,-1,458,454,459,-1,459,454,455,-1,459,455,220,-1,220,455,215,-1,185,189,390,-1,390,189,360,-1,390,360,388,-1,388,360,456,-1,388,456,386,-1,386,456,457,-1,386,457,384,-1,384,457,458,-1,384,458,382,-1,382,458,459,-1,382,459,219,-1,219,459,220,-1,180,179,460,-1,460,179,391,-1,460,391,461,-1,461,391,389,-1,461,389,462,-1,462,389,387,-1,462,387,463,-1,463,387,385,-1,463,385,464,-1,464,385,383,-1,464,383,223,-1,223,383,218,-1,179,183,391,-1,391,183,182,-1,391,182,390,-1,390,182,186,-1,390,186,185,-1,176,180,359,-1,359,180,460,-1,359,460,465,-1,465,460,461,-1,465,461,466,-1,466,461,462,-1,466,462,467,-1,467,462,463,-1,467,463,468,-1,468,463,464,-1,468,464,222,-1,222,464,223,-1,173,177,358,-1,358,177,359,-1,358,359,469,-1,469,359,465,-1,469,465,470,-1,470,465,466,-1,470,466,471,-1,471,466,467,-1,471,467,472,-1,472,467,468,-1,472,468,221,-1,221,468,222,-1,170,174,357,-1,357,174,358,-1,357,358,473,-1,473,358,469,-1,473,469,474,-1,474,469,470,-1,474,470,475,-1,475,470,471,-1,475,471,476,-1,476,471,472,-1,476,472,225,-1,225,472,221,-1,167,171,356,-1,356,171,357,-1,356,357,477,-1,477,357,473,-1,477,473,478,-1,478,473,474,-1,478,474,479,-1,479,474,475,-1,479,475,480,-1,480,475,476,-1,480,476,224,-1,224,476,225,-1,164,168,481,-1,481,168,356,-1,481,356,482,-1,482,356,477,-1,482,477,483,-1,483,477,478,-1,483,478,484,-1,484,478,479,-1,484,479,485,-1,485,479,480,-1,485,480,200,-1,200,480,224,-1,200,199,485,-1,485,199,392,-1,485,392,484,-1,484,392,394,-1,484,394,483,-1,483,394,396,-1,483,396,482,-1,482,396,398,-1,482,398,481,-1,481,398,400,-1,481,400,164,-1,164,400,165,-1,
        ]
    }
}
Shape{
    appearance Appearance {
        material  Material 	{
            diffuseColor 0.2235294117647059 0.2235294117647059 0.2235294117647059
            specularColor 0.11372549019607843 0.11372549019607843 0.11372549019607843
            ambientIntensity 0.2235
            transparency 0.0
            shininess 0.5
        }
    }
    geometry IndexedFaceSet {
        ccw TRUE
        solid FALSE
        coord DEF co Coordinate {
            point [
                -0.1669 0.1479 -0.0039, -0.2053 0.0494 -0.0039, -0.1669 0.1479 -0.0079, -0.2053 0.0494 -0.0079, -0.1909 0.0494 -0.0039, -0.1909 0.0494 -0.0079, -0.181 0.0771 -0.0039, -0.181 0.0771 -0.0079, -0.1403 0.0771 -0.0039, -0.1403 0.0771 -0.0079, -0.1309 0.0494 -0.0039, -0.1309 0.0494 -0.0079, -0.1165 0.0494 -0.0039, -0.1165 0.0494 -0.0079, -0.1537 0.1479 -0.0039, -0.1537 0.1479 -0.0079, -0.1436 0.0879 -0.0039, -0.1766 0.0879 -0.0039, -0.1583 0.129 -0.0039, -0.1593 0.1324 -0.0039, -0.1599 0.1359 -0.0039, -0.1602 0.1359 -0.0039, -0.1609 0.1324 -0.0039, -0.1617 0.129 -0.0039, -0.1436 0.0879 -0.0079, -0.1766 0.0879 -0.0079, -0.1583 0.129 -0.0079, -0.1593 0.1324 -0.0079, -0.1599 0.1359 -0.0079, -0.1602 0.1359 -0.0079, -0.1609 0.1324 -0.0079, -0.1617 0.129 -0.0079, -0.0569 0.0494 -0.0039, -0.0301 0.0494 -0.0039, -0.0569 0.0494 -0.0079, -0.0301 0.0494 -0.0079, -0.0301 0.1479 -0.0039, -0.0301 0.1479 -0.0079, -0.0579 0.1479 -0.0039, -0.0579 0.1479 -0.0079, -0.1093 0.0999 -0.0039, -0.1093 0.0999 -0.0079, -0.1086 0.1092 -0.0079, -0.1086 0.1092 -0.0039, -0.106 0.1189 -0.0079, -0.106 0.1189 -0.0039, -0.1014 0.1273 -0.0079, -0.1014 0.1273 -0.0039, -0.0944 0.135 -0.0079, -0.0944 0.135 -0.0039, -0.0943 0.1351 -0.0079, -0.0943 0.1351 -0.0039, -0.0836 0.1423 -0.0079, -0.0836 0.1423 -0.0039, -0.0721 0.1464 -0.0079, -0.0721 0.1464 -0.0039, -0.069 0.0505 -0.0079, -0.069 0.0505 -0.0039, -0.0804 0.0539 -0.0079, -0.0804 0.0539 -0.0039, -0.0907 0.0599 -0.0079, -0.0907 0.0599 -0.0039, -0.0988 0.0676 -0.0079, -0.0988 0.0676 -0.0039, -0.1044 0.0764 -0.0079, -0.1044 0.0764 -0.0039, -0.1079 0.0867 -0.0079, -0.1079 0.0867 -0.0039, -0.0896 0.1233 -0.0039, -0.0848 0.1283 -0.0039, -0.0776 0.133 -0.0039, -0.0695 0.1358 -0.0039, -0.0578 0.1371 -0.0039, -0.0433 0.1371 -0.0039, -0.0433 0.0603 -0.0039, -0.0573 0.0603 -0.0039, -0.0677 0.0612 -0.0039, -0.0759 0.0638 -0.0039, -0.0827 0.0678 -0.0039, -0.0882 0.0732 -0.0039, -0.0923 0.08 -0.0039, -0.0952 0.0893 -0.0039, -0.0961 0.0996 -0.0039, -0.0953 0.1094 -0.0039, -0.093 0.1172 -0.0039, -0.0578 0.1371 -0.0079, -0.0433 0.1371 -0.0079, -0.0695 0.1358 -0.0079, -0.0776 0.133 -0.0079, -0.0848 0.1283 -0.0079, -0.0896 0.1233 -0.0079, -0.093 0.1172 -0.0079, -0.0953 0.1094 -0.0079, -0.0961 0.0996 -0.0079, -0.0952 0.0893 -0.0079, -0.0923 0.08 -0.0079, -0.0882 0.0732 -0.0079, -0.0827 0.0678 -0.0079, -0.0759 0.0638 -0.0079, -0.0677 0.0612 -0.0079, -0.0573 0.0603 -0.0079, -0.0433 0.0603 -0.0079, -0.0109 0.0603 -0.0039, -0.0109 0.0494 -0.0039, -0.0109 0.0603 -0.0079, -0.0109 0.0494 -0.0079, 0.0419 0.0494 -0.0039, 0.0419 0.0494 -0.0079, 0.0419 0.1479 -0.0039, 0.0419 0.1479 -0.0079, -0.0085 0.1479 -0.0039, -0.0085 0.1479 -0.0079, -0.0085 0.1371 -0.0039, -0.0085 0.1371 -0.0079, 0.0287 0.1371 -0.0039, 0.0287 0.1371 -0.0079, 0.0287 0.1047 -0.0039, 0.0287 0.1047 -0.0079, -0.0061 0.1047 -0.0039, -0.0061 0.1047 -0.0079, -0.0061 0.0939 -0.0039, -0.0061 0.0939 -0.0079, 0.0287 0.0939 -0.0039, 0.0287 0.0939 -0.0079, 0.0287 0.0603 -0.0039, 0.0287 0.0603 -0.0079, 0.0611 0.0654 -0.0039, 0.0611 0.0545 -0.0039, 0.0611 0.0654 -0.0079, 0.0611 0.0545 -0.0079, 0.0716 0.0502 -0.0039, 0.0882 0.0482 -0.0039, 0.0882 0.0482 -0.0079, 0.0855 0.0483 -0.0079, 0.0855 0.0483 -0.0039, 0.0816 0.0488 -0.0079, 0.0716 0.0502 -0.0079, 0.1343 0.0968 -0.0039, 0.1343 0.0968 -0.0079, 0.1334 0.0854 -0.0079, 0.1334 0.0854 -0.0039, 0.1304 0.075 -0.0079, 0.1304 0.075 -0.0039, 0.1252 0.0656 -0.0079, 0.1252 0.0656 -0.0039, 0.1178 0.0578 -0.0079, 0.1178 0.0578 -0.0039, 0.1099 0.0528 -0.0079, 0.1099 0.0528 -0.0039, 0.1003 0.0495 -0.0079, 0.1003 0.0495 -0.0039, 0.094 0.0488 -0.0079, 0.0843 0.1491 -0.0039, 0.0843 0.1491 -0.0079, 0.0942 0.1483 -0.0039, 0.0916 0.1485 -0.0079, 0.0942 0.1483 -0.0079, 0.1051 0.1451 -0.0079, 0.1051 0.1451 -0.0039, 0.1145 0.1397 -0.0079, 0.1145 0.1397 -0.0039, 0.1234 0.1312 -0.0079, 0.1234 0.1312 -0.0039, 0.1291 0.1219 -0.0079, 0.1291 0.1219 -0.0039, 0.1329 0.1108 -0.0079, 0.1329 0.1108 -0.0039, 0.0756 0.1485 -0.0079, 0.0725 0.1483 -0.0039, 0.0725 0.1483 -0.0079, 0.0611 0.1452 -0.0039, 0.0611 0.1452 -0.0079, 0.0611 0.132 -0.0039, 0.0611 0.132 -0.0079, 0.0842 0.1383 -0.0039, 0.0842 0.1383 -0.0079, 0.0722 0.1367 -0.0079, 0.0722 0.1367 -0.0039, 0.1211 0.0976 -0.0039, 0.1211 0.0976 -0.0079, 0.1207 0.1053 -0.0079, 0.1207 0.1053 -0.0039, 0.118 0.1158 -0.0079, 0.118 0.1158 -0.0039, 0.114 0.1234 -0.0079, 0.114 0.1234 -0.0039, 0.108 0.13 -0.0079, 0.108 0.13 -0.0039, 0.1012 0.1345 -0.0079, 0.1012 0.1345 -0.0039, 0.0939 0.1372 -0.0079, 0.0939 0.1372 -0.0039, 0.0864 0.0591 -0.0039, 0.0864 0.0591 -0.0079, 0.0956 0.0601 -0.0079, 0.0956 0.0601 -0.0039, 0.1027 0.0627 -0.0079, 0.1027 0.0627 -0.0039, 0.1088 0.0668 -0.0079, 0.1088 0.0668 -0.0039, 0.1134 0.0717 -0.0079, 0.1134 0.0717 -0.0039, 0.1175 0.0785 -0.0079, 0.1175 0.0785 -0.0039, 0.1201 0.087 -0.0079, 0.1201 0.087 -0.0039, 0.0629 0.0644 -0.0079, 0.0629 0.0644 -0.0039, 0.0733 0.0605 -0.0079, 0.0733 0.0605 -0.0039, 0.1427 0.0603 -0.0039, 0.1427 0.0494 -0.0039, 0.1427 0.0603 -0.0079, 0.1427 0.0494 -0.0079, 0.1932 0.0494 -0.0039, 0.1932 0.0494 -0.0079, 0.1932 0.1479 -0.0039, 0.1932 0.1479 -0.0079, 0.18 0.1479 -0.0039, 0.18 0.1479 -0.0079, 0.18 0.0603 -0.0039, 0.18 0.0603 -0.0079
            ]
        }
        coordIndex [
            0,1,2,-1,2,1,3,-1,1,4,3,-1,3,4,5,-1,4,6,5,-1,5,6,7,-1,6,8,7,-1,7,8,9,-1,8,10,9,-1,9,10,11,-1,10,12,11,-1,11,12,13,-1,12,14,13,-1,13,14,15,-1,14,0,15,-1,15,0,2,-1,16,8,17,-1,17,8,6,-1,18,14,16,-1,16,14,12,-1,16,12,8,-1,8,12,10,-1,18,19,14,-1,14,19,20,-1,14,20,0,-1,0,20,21,-1,0,21,22,-1,22,23,0,-1,0,23,17,-1,0,17,1,-1,1,17,6,-1,1,6,4,-1,16,17,24,-1,24,17,25,-1,18,16,26,-1,26,16,24,-1,18,26,27,-1,18,27,19,-1,19,27,28,-1,19,28,20,-1,21,20,29,-1,29,20,28,-1,21,29,30,-1,21,30,22,-1,22,30,31,-1,22,31,23,-1,17,23,25,-1,25,23,31,-1,32,33,34,-1,34,33,35,-1,33,36,35,-1,35,36,37,-1,36,38,37,-1,37,38,39,-1,40,41,42,-1,40,42,43,-1,43,42,44,-1,43,44,45,-1,45,44,46,-1,45,46,47,-1,47,46,48,-1,47,48,49,-1,49,48,50,-1,49,50,51,-1,51,50,52,-1,51,52,53,-1,53,52,54,-1,53,54,55,-1,55,54,39,-1,55,39,38,-1,32,34,56,-1,32,56,57,-1,57,56,58,-1,57,58,59,-1,59,58,60,-1,59,60,61,-1,61,60,62,-1,61,62,63,-1,63,62,64,-1,63,64,65,-1,65,64,66,-1,65,66,67,-1,67,66,41,-1,67,41,40,-1,45,47,68,-1,68,47,49,-1,68,49,69,-1,69,49,51,-1,69,51,70,-1,70,51,53,-1,70,53,71,-1,71,53,55,-1,71,55,72,-1,72,55,38,-1,72,38,73,-1,73,38,36,-1,73,36,74,-1,74,36,33,-1,74,33,75,-1,75,33,32,-1,75,32,76,-1,76,32,57,-1,76,57,77,-1,77,57,59,-1,77,59,78,-1,78,59,61,-1,78,61,79,-1,79,61,63,-1,79,63,80,-1,80,63,65,-1,80,65,81,-1,81,65,67,-1,81,67,82,-1,82,67,40,-1,82,40,83,-1,83,40,43,-1,83,43,84,-1,84,43,45,-1,84,45,68,-1,72,73,85,-1,85,73,86,-1,72,85,87,-1,72,87,71,-1,71,87,88,-1,71,88,70,-1,70,88,89,-1,70,89,69,-1,69,89,90,-1,69,90,68,-1,68,90,91,-1,68,91,84,-1,84,91,92,-1,84,92,83,-1,83,92,93,-1,83,93,82,-1,82,93,94,-1,82,94,81,-1,81,94,95,-1,81,95,80,-1,80,95,96,-1,80,96,79,-1,79,96,97,-1,79,97,78,-1,78,97,98,-1,78,98,77,-1,77,98,99,-1,77,99,76,-1,76,99,100,-1,76,100,75,-1,74,75,101,-1,101,75,100,-1,73,74,86,-1,86,74,101,-1,102,103,104,-1,104,103,105,-1,103,106,105,-1,105,106,107,-1,106,108,107,-1,107,108,109,-1,108,110,109,-1,109,110,111,-1,110,112,111,-1,111,112,113,-1,112,114,113,-1,113,114,115,-1,114,116,115,-1,115,116,117,-1,116,118,117,-1,117,118,119,-1,118,120,119,-1,119,120,121,-1,120,122,121,-1,121,122,123,-1,122,124,123,-1,123,124,125,-1,124,102,125,-1,125,102,104,-1,106,103,102,-1,102,124,106,-1,106,124,122,-1,106,122,108,-1,112,110,114,-1,114,110,108,-1,114,108,116,-1,116,108,122,-1,116,122,118,-1,118,122,120,-1,126,127,128,-1,128,127,129,-1,129,127,130,-1,131,132,133,-1,131,133,134,-1,134,133,135,-1,134,135,130,-1,130,135,136,-1,130,136,129,-1,137,138,139,-1,137,139,140,-1,140,139,141,-1,140,141,142,-1,142,141,143,-1,142,143,144,-1,144,143,145,-1,144,145,146,-1,146,145,147,-1,146,147,148,-1,148,147,149,-1,148,149,150,-1,150,149,131,-1,131,149,151,-1,131,151,132,-1,152,153,154,-1,154,153,155,-1,155,156,154,-1,154,156,157,-1,154,157,158,-1,158,157,159,-1,158,159,160,-1,160,159,161,-1,160,161,162,-1,162,161,163,-1,162,163,164,-1,164,163,165,-1,164,165,166,-1,166,165,138,-1,166,138,137,-1,153,152,167,-1,167,152,168,-1,167,168,169,-1,169,168,170,-1,169,170,171,-1,170,172,171,-1,171,172,173,-1,174,175,176,-1,174,176,177,-1,177,176,173,-1,177,173,172,-1,178,179,180,-1,178,180,181,-1,181,180,182,-1,181,182,183,-1,183,182,184,-1,183,184,185,-1,185,184,186,-1,185,186,187,-1,187,186,188,-1,187,188,189,-1,189,188,190,-1,189,190,191,-1,191,190,175,-1,191,175,174,-1,192,193,194,-1,192,194,195,-1,195,194,196,-1,195,196,197,-1,197,196,198,-1,197,198,199,-1,199,198,200,-1,199,200,201,-1,201,200,202,-1,201,202,203,-1,203,202,204,-1,203,204,205,-1,205,204,179,-1,205,179,178,-1,126,128,206,-1,126,206,207,-1,207,206,208,-1,207,208,209,-1,209,208,193,-1,209,193,192,-1,195,131,192,-1,192,131,134,-1,192,134,209,-1,209,134,130,-1,209,130,207,-1,207,130,127,-1,207,127,126,-1,172,170,177,-1,177,170,168,-1,177,168,174,-1,174,168,152,-1,174,152,191,-1,191,152,154,-1,191,154,189,-1,189,154,158,-1,189,158,187,-1,187,158,160,-1,187,160,185,-1,185,160,162,-1,185,162,183,-1,183,162,164,-1,183,164,181,-1,181,164,166,-1,181,166,178,-1,178,166,137,-1,178,137,205,-1,205,137,140,-1,205,140,203,-1,203,140,142,-1,203,142,201,-1,201,142,144,-1,201,144,199,-1,199,144,146,-1,199,146,197,-1,197,146,148,-1,197,148,195,-1,195,148,150,-1,195,150,131,-1,210,211,212,-1,212,211,213,-1,211,214,213,-1,213,214,215,-1,214,216,215,-1,215,216,217,-1,216,218,217,-1,217,218,219,-1,218,220,219,-1,219,220,221,-1,220,210,221,-1,221,210,212,-1,218,216,220,-1,220,216,214,-1,220,214,210,-1,210,214,211,-1,
        ]
    }
}
Shape{
    appearance Appearance {
        material  Material 	{
            diffuseColor 0.8431372549019608 0.8156862745098039 0.7529411764705882
            specularColor 0.4235294117647059 0.40784313725490196 0.3764705882352941
            ambientIntensity 0.8167
            transparency 0.0
            shininess 0.5
        }
    }
    geometry IndexedFaceSet {
        ccw TRUE
        solid FALSE
        coord DEF co Coordinate {
            point [
                -0.1436 0.0879 -0.0079, -0.1766 0.0879 -0.0079, -0.1583 0.129 -0.0079, -0.1617 0.129 -0.0079, -0.1593 0.1324 -0.0079, -0.1609 0.1324 -0.0079, -0.1599 0.1359 -0.0079, -0.1602 0.1359 -0.0079, -0.0433 0.1371 -0.0079, -0.0433 0.0603 -0.0079, -0.0578 0.1371 -0.0079, -0.0573 0.0603 -0.0079, -0.0677 0.0612 -0.0079, -0.0961 0.0996 -0.0079, -0.0953 0.1094 -0.0079, -0.093 0.1172 -0.0079, -0.0695 0.1358 -0.0079, -0.0759 0.0638 -0.0079, -0.0827 0.0678 -0.0079, -0.0882 0.0732 -0.0079, -0.0923 0.08 -0.0079, -0.0952 0.0893 -0.0079, -0.0896 0.1233 -0.0079, -0.0848 0.1283 -0.0079, -0.0776 0.133 -0.0079
            ]
        }
        coordIndex [
            0,1,2,-1,2,1,3,-1,2,3,4,-1,4,3,5,-1,4,5,6,-1,6,5,7,-1,8,9,10,-1,10,9,11,-1,10,11,12,-1,13,14,10,-1,10,14,15,-1,10,15,16,-1,12,17,10,-1,10,17,18,-1,10,18,19,-1,19,20,10,-1,10,20,21,-1,10,21,13,-1,22,23,15,-1,15,23,24,-1,15,24,16,-1,
        ]
    }
}