#VRML V2.0 utf8
# 3D model generated by easyeda2kicad.py (https://github.com/uPesy/easyeda2kicad.py)

Shape{
    appearance Appearance {
        material  Material 	{
            diffuseColor 0.7764705882352941 0.7568627450980392 0.7372549019607844
            specularColor 0.38823529411764707 0.3764705882352941 0.3686274509803922
            ambientIntensity 0.7605
            transparency 0.0
            shininess 0.5
        }
    }
    geometry IndexedFaceSet {
        ccw TRUE
        solid FALSE
        coord DEF co Coordinate {
            point [
                0.935 0.7158 0.0, 0.935 1.0268 0.0, 0.935 0.7158 0.0787, 0.935 1.0268 0.0787, 0.7185 0.7158 0.0, 0.7185 0.7158 0.0787, 0.7185 1.0268 0.0, 0.7185 1.0268 0.0787
            ]
        }
        coordIndex [
            0,1,2,-1,2,1,3,-1,4,0,5,-1,5,0,2,-1,6,4,7,-1,7,4,5,-1,1,6,3,-1,3,6,7,-1,4,6,0,-1,0,6,1,-1,7,5,3,-1,3,5,2,-1,
        ]
    }
}
Shape{
    appearance Appearance {
        material  Material 	{
            diffuseColor 0.10980392156862745 0.10980392156862745 0.10980392156862745
            specularColor 0.0784313725490196 0.0784313725490196 0.0784313725490196
            ambientIntensity 0.1098
            transparency 0.0
            shininess 0.5
        }
    }
    geometry IndexedFaceSet {
        ccw TRUE
        solid FALSE
        coord DEF co Coordinate {
            point [
                0.5905 -0.426 1.0138, 0.5905 -0.426 0.502, 0.5905 0.0189 1.0138, 0.5905 0.0189 0.502, -0.5512 -0.426 1.0532, 0.5512 -0.426 1.0532, -0.5512 0.0189 1.0532, 0.5512 0.0189 1.0532, -0.5906 -0.426 0.502, -0.5906 -0.426 1.0138, -0.5906 0.0189 0.502, -0.5906 0.0189 1.0138, -0.5512 0.0189 0.4626, 0.5512 0.0189 0.4626, -0.5512 -0.426 0.4626, 0.5512 -0.426 0.4626, -0.5512 -0.4653 0.502, 0.5512 -0.4653 0.502, -0.5512 -0.4653 1.0138, 0.5512 -0.4653 1.0138, -0.5614 0.0189 1.0518, 0.5892 0.0189 0.4918, 0.5614 0.0189 0.4639, -0.5892 0.0189 0.4918, -0.5892 0.0189 1.024, -0.5853 0.0189 1.0335, -0.5614 0.0189 0.4639, -0.5709 0.0189 0.4679, -0.579 0.0189 1.0416, -0.5709 0.0189 1.0479, 0.5614 0.0189 1.0518, 0.5709 0.0189 1.0479, 0.5892 0.0189 1.024, 0.579 0.0189 1.0416, 0.5853 0.0189 1.0335, 0.5853 0.0189 0.4823, 0.579 0.0189 0.4741, 0.5709 0.0189 0.4679, -0.579 0.0189 0.4741, -0.5853 0.0189 0.4823, 0.5892 -0.426 1.024, 0.5853 -0.426 1.0335, 0.579 -0.426 1.0416, 0.5709 -0.426 1.0479, 0.5614 -0.426 1.0518, 0.5512 -0.4429 1.049, 0.5512 -0.4456 1.0479, 0.56 -0.4456 1.0467, 0.5512 -0.4503 1.0443, 0.5512 -0.4538 1.0416, 0.5584 -0.4538 1.0407, 0.5563 -0.4601 1.0328, 0.5538 -0.464 1.0236, 0.5563 -0.464 1.0226, 0.5614 -0.464 1.0138, 0.561 -0.464 1.0164, 0.5512 -0.4642 1.0225, 0.5512 -0.4565 1.0381, 0.5512 -0.4601 1.0335, 0.5512 -0.4612 1.0308, 0.5512 -0.464 1.024, 0.5651 -0.4601 1.0277, 0.56 -0.464 1.0189, 0.5682 -0.4601 1.0236, 0.5702 -0.4601 1.0189, 0.5709 -0.4601 1.0138, 0.561 -0.4601 1.0308, 0.5584 -0.464 1.021, 0.5651 -0.4538 1.0379, 0.5709 -0.4538 1.0335, 0.5753 -0.4538 1.0277, 0.5781 -0.4538 1.021, 0.579 -0.4538 1.0138, 0.5682 -0.4456 1.0433, 0.5753 -0.4456 1.0379, 0.5807 -0.4456 1.0308, 0.5841 -0.4456 1.0226, 0.5853 -0.4456 1.0138, 0.5512 -0.4347 1.052, 0.5512 -0.4362 1.0518, 0.561 -0.4362 1.0505, 0.5702 -0.4362 1.0467, 0.5781 -0.4362 1.0407, 0.5841 -0.4362 1.0328, 0.5879 -0.4362 1.0236, 0.5892 -0.4362 1.0138, -0.5614 -0.426 1.0518, -0.5709 -0.426 1.0479, -0.579 -0.426 1.0416, -0.5853 -0.426 1.0335, -0.5892 -0.426 1.024, -0.5512 -0.4642 1.0225, -0.5512 -0.464 1.024, -0.5512 -0.4612 1.0308, -0.5512 -0.4601 1.0335, -0.5512 -0.4565 1.0381, -0.5512 -0.4538 1.0416, -0.5512 -0.4503 1.0443, -0.5512 -0.4456 1.0479, -0.5512 -0.4429 1.049, -0.5512 -0.4362 1.0518, -0.5512 -0.4347 1.052, 0.5614 -0.464 0.502, 0.5709 -0.4601 0.502, 0.579 -0.4538 0.502, 0.5853 -0.4456 0.502, 0.5892 -0.4362 0.502, 0.5614 -0.426 0.4639, 0.5709 -0.426 0.4679, 0.579 -0.426 0.4741, 0.5853 -0.426 0.4823, 0.5892 -0.426 0.4918, -0.5892 -0.4362 1.0138, -0.5879 -0.4362 1.0236, -0.5853 -0.4456 1.0138, -0.5841 -0.4456 1.0226, -0.5702 -0.4601 1.0189, -0.561 -0.464 1.0164, -0.56 -0.464 1.0189, -0.5614 -0.464 1.0138, -0.5538 -0.464 1.0236, -0.5563 -0.464 1.0226, -0.5709 -0.4601 1.0138, -0.579 -0.4538 1.0138, -0.5682 -0.4601 1.0236, -0.5584 -0.464 1.021, -0.5651 -0.4601 1.0277, -0.561 -0.4601 1.0308, -0.5563 -0.4601 1.0328, -0.5781 -0.4538 1.021, -0.5753 -0.4538 1.0277, -0.5709 -0.4538 1.0335, -0.5651 -0.4538 1.0379, -0.5584 -0.4538 1.0407, -0.5807 -0.4456 1.0308, -0.5753 -0.4456 1.0379, -0.5682 -0.4456 1.0433, -0.56 -0.4456 1.0467, -0.5841 -0.4362 1.0328, -0.5781 -0.4362 1.0407, -0.5702 -0.4362 1.0467, -0.561 -0.4362 1.0505, 0.5879 -0.4362 0.4921, 0.5682 -0.4601 0.4921, 0.56 -0.464 0.4969, 0.5584 -0.464 0.4948, 0.5512 -0.464 0.4918, 0.5538 -0.464 0.4921, 0.561 -0.464 0.4993, 0.5702 -0.4601 0.4969, 0.5781 -0.4538 0.4948, 0.5651 -0.4601 0.488, 0.5563 -0.464 0.4931, 0.561 -0.4601 0.4849, 0.5563 -0.4601 0.483, 0.5512 -0.4601 0.4823, 0.5753 -0.4538 0.488, 0.5709 -0.4538 0.4823, 0.5651 -0.4538 0.4779, 0.5584 -0.4538 0.4751, 0.5512 -0.4538 0.4741, 0.5841 -0.4456 0.4931, 0.5807 -0.4456 0.4849, 0.5753 -0.4456 0.4779, 0.5682 -0.4456 0.4724, 0.56 -0.4456 0.469, 0.5512 -0.4456 0.4679, 0.5841 -0.4362 0.483, 0.5781 -0.4362 0.4751, 0.5702 -0.4362 0.469, 0.561 -0.4362 0.4652, 0.5512 -0.4362 0.4639, -0.5614 -0.464 0.502, -0.5709 -0.4601 0.502, -0.579 -0.4538 0.502, -0.5853 -0.4456 0.502, -0.5892 -0.4362 0.502, -0.5512 -0.464 0.4918, -0.5512 -0.4601 0.4823, -0.5512 -0.4538 0.4741, -0.5512 -0.4456 0.4679, -0.5512 -0.4362 0.4639, -0.561 -0.4362 0.4652, -0.561 -0.4601 0.4849, -0.5563 -0.464 0.4931, -0.5584 -0.464 0.4948, -0.561 -0.464 0.4993, -0.5538 -0.464 0.4921, -0.5563 -0.4601 0.483, -0.5584 -0.4538 0.4751, -0.5651 -0.4601 0.488, -0.56 -0.464 0.4969, -0.5682 -0.4601 0.4921, -0.5702 -0.4601 0.4969, -0.5651 -0.4538 0.4779, -0.5709 -0.4538 0.4823, -0.5753 -0.4538 0.488, -0.5781 -0.4538 0.4948, -0.56 -0.4456 0.469, -0.5682 -0.4456 0.4724, -0.5753 -0.4456 0.4779, -0.5807 -0.4456 0.4849, -0.5841 -0.4456 0.4931, -0.5702 -0.4362 0.469, -0.5781 -0.4362 0.4751, -0.5841 -0.4362 0.483, -0.5879 -0.4362 0.4921, -0.5614 -0.426 0.4639, -0.5709 -0.426 0.4679, -0.579 -0.426 0.4741, -0.5853 -0.426 0.4823, -0.5892 -0.426 0.4918
            ]
        }
        coordIndex [
            0,1,2,-1,2,1,3,-1,4,5,6,-1,6,5,7,-1,8,9,10,-1,10,9,11,-1,12,13,14,-1,14,13,15,-1,16,17,18,-1,18,17,19,-1,20,6,11,-1,11,6,10,-1,2,3,13,-1,13,3,21,-1,13,21,22,-1,23,10,12,-1,12,10,6,-1,12,6,13,-1,13,6,7,-1,13,7,2,-1,11,24,25,-1,12,26,27,-1,25,28,11,-1,11,28,29,-1,11,29,20,-1,7,30,2,-1,2,30,31,-1,2,31,32,-1,32,31,33,-1,32,33,34,-1,35,36,21,-1,21,36,37,-1,21,37,22,-1,27,38,12,-1,12,38,39,-1,12,39,23,-1,0,2,32,-1,0,32,40,-1,40,32,34,-1,40,34,41,-1,41,34,33,-1,41,33,42,-1,42,33,31,-1,42,31,43,-1,43,31,30,-1,43,30,44,-1,44,30,7,-1,44,7,5,-1,45,46,47,-1,48,49,50,-1,51,52,53,-1,19,54,55,-1,53,52,19,-1,56,19,52,-1,57,58,51,-1,51,58,59,-1,51,59,52,-1,52,59,60,-1,52,60,56,-1,61,62,63,-1,63,62,55,-1,63,55,64,-1,64,55,54,-1,64,54,65,-1,49,57,50,-1,50,57,51,-1,50,51,66,-1,66,51,53,-1,66,53,67,-1,67,53,19,-1,68,61,69,-1,69,61,63,-1,69,63,70,-1,70,63,64,-1,70,64,71,-1,71,64,65,-1,71,65,72,-1,47,68,73,-1,73,68,69,-1,73,69,74,-1,74,69,70,-1,74,70,75,-1,75,70,71,-1,75,71,76,-1,76,71,72,-1,76,72,77,-1,78,79,80,-1,80,79,45,-1,45,47,80,-1,80,47,73,-1,80,73,81,-1,81,73,74,-1,81,74,82,-1,82,74,75,-1,82,75,83,-1,83,75,76,-1,83,76,84,-1,84,76,77,-1,84,77,85,-1,44,5,78,-1,78,80,44,-1,44,80,81,-1,44,81,43,-1,43,81,82,-1,43,82,42,-1,42,82,83,-1,42,83,41,-1,41,83,84,-1,41,84,40,-1,40,84,85,-1,40,85,0,-1,62,19,55,-1,46,48,47,-1,47,48,50,-1,47,50,68,-1,68,50,66,-1,68,66,61,-1,61,66,67,-1,61,67,62,-1,62,67,19,-1,4,6,20,-1,4,20,86,-1,86,20,29,-1,86,29,87,-1,87,29,28,-1,87,28,88,-1,88,28,25,-1,88,25,89,-1,89,25,24,-1,89,24,90,-1,90,24,11,-1,90,11,9,-1,19,56,18,-1,18,56,91,-1,91,56,92,-1,92,56,60,-1,92,60,93,-1,93,60,59,-1,93,59,94,-1,94,59,58,-1,94,58,95,-1,95,58,57,-1,95,57,96,-1,96,57,49,-1,96,49,97,-1,97,49,48,-1,97,48,98,-1,98,48,46,-1,98,46,99,-1,99,46,45,-1,99,45,100,-1,100,45,79,-1,100,79,101,-1,79,78,101,-1,101,78,5,-1,101,5,4,-1,19,17,102,-1,19,102,54,-1,54,102,103,-1,54,103,65,-1,65,103,104,-1,65,104,72,-1,72,104,105,-1,72,105,77,-1,77,105,106,-1,77,106,85,-1,85,106,1,-1,85,1,0,-1,15,13,22,-1,15,22,107,-1,107,22,37,-1,107,37,108,-1,108,37,36,-1,108,36,109,-1,109,36,35,-1,109,35,110,-1,110,35,21,-1,110,21,111,-1,111,21,3,-1,111,3,1,-1,9,112,113,-1,112,114,115,-1,116,117,118,-1,118,117,18,-1,119,18,117,-1,120,18,91,-1,121,18,120,-1,119,117,122,-1,122,117,116,-1,122,116,123,-1,124,125,126,-1,126,125,121,-1,126,121,127,-1,127,121,120,-1,127,120,128,-1,91,92,120,-1,120,92,93,-1,120,93,128,-1,128,93,94,-1,128,94,95,-1,129,124,130,-1,130,124,126,-1,130,126,131,-1,131,126,127,-1,131,127,132,-1,132,127,128,-1,132,128,133,-1,133,128,95,-1,133,95,96,-1,114,129,115,-1,115,129,130,-1,115,130,134,-1,134,130,131,-1,134,131,135,-1,135,131,132,-1,135,132,136,-1,136,132,133,-1,136,133,137,-1,137,133,96,-1,137,96,97,-1,112,115,113,-1,113,115,134,-1,113,134,138,-1,138,134,135,-1,138,135,139,-1,139,135,136,-1,139,136,140,-1,140,136,137,-1,140,137,141,-1,125,18,121,-1,114,123,129,-1,129,123,116,-1,129,116,124,-1,124,116,118,-1,124,118,125,-1,125,118,18,-1,97,98,137,-1,137,98,99,-1,137,99,141,-1,141,99,100,-1,141,100,101,-1,9,113,90,-1,90,113,138,-1,90,138,89,-1,89,138,139,-1,89,139,88,-1,88,139,140,-1,88,140,87,-1,87,140,141,-1,87,141,86,-1,86,141,101,-1,86,101,4,-1,1,106,142,-1,143,144,145,-1,17,146,147,-1,145,144,17,-1,148,17,144,-1,148,144,149,-1,149,144,143,-1,149,143,150,-1,102,17,148,-1,151,152,153,-1,153,152,147,-1,153,147,154,-1,154,147,146,-1,154,146,155,-1,102,148,103,-1,103,148,149,-1,103,149,104,-1,104,149,150,-1,104,150,105,-1,156,151,157,-1,157,151,153,-1,157,153,158,-1,158,153,154,-1,158,154,159,-1,159,154,155,-1,159,155,160,-1,161,156,162,-1,162,156,157,-1,162,157,163,-1,163,157,158,-1,163,158,164,-1,164,158,159,-1,164,159,165,-1,165,159,160,-1,165,160,166,-1,106,161,142,-1,142,161,162,-1,142,162,167,-1,167,162,163,-1,167,163,168,-1,168,163,164,-1,168,164,169,-1,169,164,165,-1,169,165,170,-1,170,165,166,-1,170,166,171,-1,1,142,111,-1,111,142,167,-1,111,167,110,-1,110,167,168,-1,110,168,109,-1,109,168,169,-1,109,169,108,-1,108,169,170,-1,108,170,107,-1,107,170,171,-1,107,171,15,-1,152,17,147,-1,106,105,161,-1,161,105,150,-1,161,150,156,-1,156,150,143,-1,156,143,151,-1,151,143,145,-1,151,145,152,-1,152,145,17,-1,16,18,119,-1,16,119,172,-1,172,119,122,-1,172,122,173,-1,173,122,123,-1,173,123,174,-1,174,123,114,-1,174,114,175,-1,175,114,112,-1,175,112,176,-1,176,112,9,-1,176,9,8,-1,17,16,177,-1,17,177,146,-1,146,177,178,-1,146,178,155,-1,155,178,179,-1,155,179,160,-1,160,179,180,-1,160,180,166,-1,166,180,181,-1,166,181,171,-1,171,181,14,-1,171,14,15,-1,14,181,182,-1,183,184,185,-1,16,172,186,-1,185,184,16,-1,187,16,184,-1,187,184,188,-1,188,184,183,-1,188,183,189,-1,177,16,187,-1,190,191,192,-1,192,191,186,-1,192,186,193,-1,193,186,172,-1,193,172,173,-1,177,187,178,-1,178,187,188,-1,178,188,179,-1,179,188,189,-1,179,189,180,-1,194,190,195,-1,195,190,192,-1,195,192,196,-1,196,192,193,-1,196,193,197,-1,197,193,173,-1,197,173,174,-1,198,194,199,-1,199,194,195,-1,199,195,200,-1,200,195,196,-1,200,196,201,-1,201,196,197,-1,201,197,202,-1,202,197,174,-1,202,174,175,-1,181,198,182,-1,182,198,199,-1,182,199,203,-1,203,199,200,-1,203,200,204,-1,204,200,201,-1,204,201,205,-1,205,201,202,-1,205,202,206,-1,206,202,175,-1,206,175,176,-1,14,182,207,-1,207,182,203,-1,207,203,208,-1,208,203,204,-1,208,204,209,-1,209,204,205,-1,209,205,210,-1,210,205,206,-1,210,206,211,-1,211,206,176,-1,211,176,8,-1,191,16,186,-1,181,180,198,-1,198,180,189,-1,198,189,194,-1,194,189,183,-1,194,183,190,-1,190,183,185,-1,190,185,191,-1,191,185,16,-1,8,10,23,-1,8,23,211,-1,211,23,39,-1,211,39,210,-1,210,39,38,-1,210,38,209,-1,209,38,27,-1,209,27,208,-1,208,27,26,-1,208,26,207,-1,207,26,12,-1,207,12,14,-1,
        ]
    }
}
Shape{
    appearance Appearance {
        material  Material 	{
            diffuseColor 0.7764705882352941 0.7568627450980392 0.7372549019607844
            specularColor 0.38823529411764707 0.3764705882352941 0.3686274509803922
            ambientIntensity 0.7605
            transparency 0.0
            shininess 0.5
        }
    }
    geometry IndexedFaceSet {
        ccw TRUE
        solid FALSE
        coord DEF co Coordinate {
            point [
                -1.1024 -0.0598 0.0, -1.3976 -0.0598 0.0, -1.1024 0.0189 0.0, -1.3976 0.0189 0.0, -1.378 -0.0598 1.3189, -1.378 0.0189 1.3189, -1.378 -0.0598 1.1121, -1.378 0.0189 1.1121, -1.2992 0.0189 1.3976, -1.2992 -0.0598 1.3976, 1.2992 0.0189 1.3976, 1.2992 -0.0598 1.3976, -1.3753 -0.0598 1.3393, -1.3753 0.0189 1.3393, -1.3674 -0.0598 1.3583, -1.3674 0.0189 1.3583, -1.3549 -0.0598 1.3746, -1.3549 0.0189 1.3746, -1.3386 -0.0598 1.3871, -1.3386 0.0189 1.3871, -1.3196 -0.0598 1.395, -1.3196 0.0189 1.395, 1.1024 0.0189 0.0, 1.3976 0.0189 0.0, 1.1024 -0.0598 0.0, 1.3976 -0.0598 0.0, 1.3779 0.0189 1.3189, 1.3779 -0.0598 1.3189, 1.3779 0.0189 1.1121, 1.3779 -0.0598 1.1121, 1.3196 -0.0598 1.395, 1.3196 0.0189 1.395, 1.3386 -0.0598 1.3871, 1.3386 0.0189 1.3871, 1.3549 -0.0598 1.3746, 1.3549 0.0189 1.3746, 1.3674 -0.0598 1.3583, 1.3674 0.0189 1.3583, 1.3753 -0.0598 1.3393, 1.3753 0.0189 1.3393, -1.08 -0.0598 0.0689, -1.0769 -0.0598 0.073, -1.3583 -0.0598 0.2067, -0.6299 -0.0598 1.0728, 0.6299 -0.0598 1.0728, 1.0827 -0.0598 0.0591, -0.6299 -0.0598 0.4429, -0.9671 -0.0598 0.0446, -0.9631 -0.0598 0.0418, -1.3583 -0.0598 1.0924, -1.3681 -0.0598 0.1969, -1.3976 -0.0598 0.1969, -1.082 -0.0598 0.0642, -0.9585 -0.0598 0.04, -0.9537 -0.0598 0.0394, 0.6299 -0.0598 0.4429, 0.9537 -0.0598 0.0394, 0.9585 -0.0598 0.04, 0.9631 -0.0598 0.0418, 1.3583 -0.0598 1.0924, 1.3583 -0.0598 0.2067, 1.0728 -0.0598 0.0761, 1.0769 -0.0598 0.073, 1.08 -0.0598 0.0689, 1.3585 -0.0598 0.2045, -1.0827 -0.0598 0.0591, -1.0117 -0.0598 0.0787, -1.0068 -0.0598 0.0781, -1.0023 -0.0598 0.0764, -0.9983 -0.0598 0.0735, -1.0728 -0.0598 0.0761, -1.0681 -0.0598 0.0781, -1.063 -0.0598 0.0787, 1.362 -0.0598 0.199, 1.3604 -0.0598 0.2006, 1.082 -0.0598 0.0642, -1.362 -0.0598 0.199, -1.3638 -0.0598 0.1978, -1.3659 -0.0598 0.1971, 1.0116 -0.0598 0.0787, 1.063 -0.0598 0.0787, 1.0681 -0.0598 0.0781, -1.3585 -0.0598 0.2045, -1.3593 -0.0598 0.2024, -1.3604 -0.0598 0.2006, 0.967 -0.0598 0.0446, 0.9983 -0.0598 0.0735, 1.0022 -0.0598 0.0764, 1.0068 -0.0598 0.0781, 1.3592 -0.0598 0.2024, -1.0973 -0.0598 0.0007, -1.0834 -0.0598 0.0146, -1.0827 -0.0598 0.0197, -1.0925 -0.0598 0.0026, -1.0885 -0.0598 0.0058, -1.0853 -0.0598 0.0098, 1.3681 -0.0598 0.1969, 1.3659 -0.0598 0.1971, 1.3638 -0.0598 0.1978, 1.3976 -0.0598 0.1969, 1.0925 -0.0598 0.0026, 1.0833 -0.0598 0.0146, 1.0884 -0.0598 0.0058, 1.0853 -0.0598 0.0098, 1.0827 -0.0598 0.0197, 1.0973 -0.0598 0.0007, 1.08 0.0189 0.0689, 1.0769 0.0189 0.073, 1.3583 0.0189 0.2067, 1.3583 0.0189 1.0924, 0.6299 0.0189 1.0728, 1.0827 0.0189 0.0591, 1.082 0.0189 0.0642, 1.3976 0.0189 0.1969, -1.3583 0.0189 1.0924, -0.6299 0.0189 1.0728, 1.362 0.0189 0.199, 1.3638 0.0189 0.1978, 1.0116 0.0189 0.0787, 1.0068 0.0189 0.0781, 1.0022 0.0189 0.0764, 0.6299 0.0189 0.4429, -1.0117 0.0189 0.0787, -1.063 0.0189 0.0787, -1.0681 0.0189 0.0781, -1.3583 0.0189 0.2067, -1.0728 0.0189 0.0761, -1.0769 0.0189 0.073, -1.08 0.0189 0.0689, -1.3585 0.0189 0.2045, 0.9983 0.0189 0.0735, 0.967 0.0189 0.0446, 0.9631 0.0189 0.0418, 0.9585 0.0189 0.04, 0.9537 0.0189 0.0394, -0.6299 0.0189 0.4429, -0.9537 0.0189 0.0394, -0.9585 0.0189 0.04, 1.0827 0.0189 0.0197, 1.0833 0.0189 0.0146, 1.0728 0.0189 0.0761, 1.0681 0.0189 0.0781, 1.063 0.0189 0.0787, -0.9983 0.0189 0.0735, -1.0023 0.0189 0.0764, -1.0068 0.0189 0.0781, -0.9631 0.0189 0.0418, -0.9671 0.0189 0.0446, 1.3585 0.0189 0.2045, 1.3592 0.0189 0.2024, 1.3604 0.0189 0.2006, 1.3659 0.0189 0.1971, 1.3681 0.0189 0.1969, -1.0973 0.0189 0.0007, -1.0834 0.0189 0.0146, -1.3976 0.0189 0.1969, -1.3681 0.0189 0.1969, -1.082 0.0189 0.0642, -1.3659 0.0189 0.1971, -1.3638 0.0189 0.1978, -1.0827 0.0189 0.0591, -1.0827 0.0189 0.0197, 1.0973 0.0189 0.0007, 1.0925 0.0189 0.0026, 1.0853 0.0189 0.0098, 1.0884 0.0189 0.0058, -1.362 0.0189 0.199, -1.3604 0.0189 0.2006, -1.3593 0.0189 0.2024, -1.0853 0.0189 0.0098, -1.0885 0.0189 0.0058, -1.0925 0.0189 0.0026, -1.4078 0.0203 0.0, -1.4282 -0.0558 0.0, -1.4173 0.0242 0.0, -1.4567 -0.044 0.0, -1.4255 0.0305 0.0, -1.4812 -0.0252 0.0, -1.4317 0.0386 0.0, -1.4999 -0.0008 0.0, -1.4357 0.0481 0.0, -1.5117 0.0277 0.0, -1.437 0.0583 0.0, -1.5158 0.0583 0.0, -1.437 0.0583 0.1969, -1.5158 0.0583 0.1969, -1.4357 0.0481 0.1969, -1.5117 0.0277 0.1969, -1.4317 0.0386 0.1969, -1.4999 -0.0008 0.1969, -1.4255 0.0305 0.1969, -1.4812 -0.0252 0.1969, -1.4173 0.0242 0.1969, -1.4567 -0.044 0.1969, -1.4078 0.0203 0.1969, -1.4282 -0.0558 0.1969, -1.437 0.137 0.1969, -1.5158 0.137 0.1969, -1.5158 0.137 0.0, -1.437 0.137 0.0, 1.4078 0.0203 0.1969, 1.4282 -0.0558 0.1969, 1.4173 0.0242 0.1969, 1.4567 -0.044 0.1969, 1.4255 0.0305 0.1969, 1.4811 -0.0252 0.1969, 1.4317 0.0386 0.1969, 1.4999 -0.0008 0.1969, 1.4357 0.0481 0.1969, 1.5117 0.0277 0.1969, 1.437 0.0583 0.1969, 1.5157 0.0583 0.1969, 1.437 0.0583 0.0, 1.5157 0.0583 0.0, 1.4357 0.0481 0.0, 1.5117 0.0277 0.0, 1.4317 0.0386 0.0, 1.4999 -0.0008 0.0, 1.4255 0.0305 0.0, 1.4811 -0.0252 0.0, 1.4173 0.0242 0.0, 1.4567 -0.044 0.0, 1.4078 0.0203 0.0, 1.4282 -0.0558 0.0, 1.437 0.137 0.0, 1.5157 0.137 0.0, 1.5157 0.137 0.1969, 1.437 0.137 0.1969
            ]
        }
        coordIndex [
            0,1,2,-1,2,1,3,-1,4,5,6,-1,6,5,7,-1,8,9,10,-1,10,9,11,-1,5,4,12,-1,5,12,13,-1,13,12,14,-1,13,14,15,-1,15,14,16,-1,15,16,17,-1,17,16,18,-1,17,18,19,-1,19,18,20,-1,19,20,21,-1,21,20,9,-1,21,9,8,-1,22,23,24,-1,24,23,25,-1,26,27,28,-1,28,27,29,-1,10,11,30,-1,10,30,31,-1,31,30,32,-1,31,32,33,-1,33,32,34,-1,33,34,35,-1,35,34,36,-1,35,36,37,-1,37,36,38,-1,37,38,39,-1,39,38,27,-1,39,27,26,-1,40,41,42,-1,43,44,11,-1,24,25,45,-1,46,47,48,-1,6,49,4,-1,4,49,43,-1,4,43,12,-1,50,51,52,-1,48,53,46,-1,46,53,54,-1,46,54,55,-1,54,56,55,-1,55,56,57,-1,55,57,58,-1,42,41,49,-1,59,29,44,-1,44,29,27,-1,11,9,43,-1,43,9,20,-1,43,20,18,-1,60,59,61,-1,61,62,60,-1,60,62,63,-1,60,63,64,-1,52,51,65,-1,65,51,1,-1,65,1,0,-1,66,67,43,-1,43,67,68,-1,43,68,46,-1,46,68,69,-1,46,69,47,-1,27,38,44,-1,44,38,36,-1,44,36,34,-1,18,16,43,-1,43,16,14,-1,43,14,12,-1,41,70,49,-1,49,70,71,-1,49,71,43,-1,43,71,72,-1,43,72,66,-1,73,74,75,-1,34,32,44,-1,44,32,30,-1,44,30,11,-1,76,77,52,-1,52,77,78,-1,52,78,50,-1,79,80,59,-1,59,80,81,-1,59,81,61,-1,42,82,40,-1,40,82,83,-1,40,83,52,-1,52,83,84,-1,52,84,76,-1,58,85,55,-1,55,85,86,-1,55,86,44,-1,44,86,87,-1,44,87,59,-1,59,87,88,-1,59,88,79,-1,75,74,63,-1,63,74,89,-1,63,89,64,-1,90,91,0,-1,0,91,92,-1,0,92,65,-1,90,93,91,-1,91,93,94,-1,91,94,95,-1,96,97,75,-1,75,97,98,-1,75,98,73,-1,45,25,75,-1,75,25,99,-1,75,99,96,-1,100,101,102,-1,102,101,103,-1,45,104,24,-1,24,104,101,-1,24,101,105,-1,105,101,100,-1,106,107,108,-1,28,109,26,-1,26,109,110,-1,26,110,39,-1,39,110,37,-1,111,112,113,-1,108,107,109,-1,114,7,115,-1,115,7,5,-1,115,5,13,-1,31,33,110,-1,110,33,35,-1,110,35,37,-1,116,117,112,-1,118,119,110,-1,110,119,120,-1,110,120,121,-1,122,123,114,-1,114,123,124,-1,114,124,125,-1,125,124,126,-1,126,127,125,-1,125,127,128,-1,125,128,129,-1,120,130,121,-1,121,130,131,-1,121,131,132,-1,132,133,121,-1,121,133,134,-1,121,134,135,-1,135,134,136,-1,135,136,137,-1,113,23,111,-1,111,23,22,-1,111,22,138,-1,138,22,139,-1,107,140,109,-1,109,140,141,-1,109,141,110,-1,110,141,142,-1,110,142,118,-1,135,143,115,-1,115,143,144,-1,115,144,114,-1,114,144,145,-1,114,145,122,-1,13,15,115,-1,115,15,17,-1,115,17,19,-1,19,21,115,-1,115,21,8,-1,115,8,110,-1,110,8,10,-1,110,10,31,-1,137,146,135,-1,135,146,147,-1,135,147,143,-1,108,148,106,-1,106,148,149,-1,106,149,112,-1,112,149,150,-1,112,150,116,-1,117,151,112,-1,112,151,152,-1,112,152,113,-1,153,2,154,-1,155,156,157,-1,157,156,158,-1,157,158,159,-1,155,157,3,-1,3,157,160,-1,3,160,2,-1,2,160,161,-1,2,161,154,-1,22,162,139,-1,139,162,163,-1,139,163,164,-1,164,163,165,-1,159,166,157,-1,157,166,167,-1,157,167,128,-1,128,167,168,-1,128,168,129,-1,169,170,154,-1,154,170,171,-1,154,171,153,-1,51,50,155,-1,155,50,156,-1,113,152,99,-1,99,152,96,-1,3,1,172,-1,172,1,173,-1,172,173,174,-1,174,173,175,-1,174,175,176,-1,176,175,177,-1,176,177,178,-1,178,177,179,-1,178,179,180,-1,180,179,181,-1,180,181,182,-1,182,181,183,-1,184,185,186,-1,186,185,187,-1,186,187,188,-1,188,187,189,-1,188,189,190,-1,190,189,191,-1,190,191,192,-1,192,191,193,-1,192,193,194,-1,194,193,195,-1,194,195,155,-1,155,195,51,-1,1,51,195,-1,1,195,173,-1,173,195,193,-1,173,193,175,-1,175,193,191,-1,175,191,177,-1,177,191,189,-1,177,189,179,-1,179,189,187,-1,179,187,181,-1,181,187,185,-1,181,185,183,-1,182,184,180,-1,180,184,186,-1,180,186,178,-1,178,186,188,-1,178,188,176,-1,176,188,190,-1,176,190,174,-1,174,190,192,-1,174,192,172,-1,172,192,194,-1,172,194,3,-1,3,194,155,-1,196,197,184,-1,184,197,185,-1,198,199,183,-1,183,199,182,-1,197,198,185,-1,185,198,183,-1,182,199,184,-1,184,199,196,-1,198,197,199,-1,199,197,196,-1,113,99,200,-1,200,99,201,-1,200,201,202,-1,202,201,203,-1,202,203,204,-1,204,203,205,-1,204,205,206,-1,206,205,207,-1,206,207,208,-1,208,207,209,-1,208,209,210,-1,210,209,211,-1,212,213,214,-1,214,213,215,-1,214,215,216,-1,216,215,217,-1,216,217,218,-1,218,217,219,-1,218,219,220,-1,220,219,221,-1,220,221,222,-1,222,221,223,-1,222,223,23,-1,23,223,25,-1,99,25,223,-1,99,223,201,-1,201,223,221,-1,201,221,203,-1,203,221,219,-1,203,219,205,-1,205,219,217,-1,205,217,207,-1,207,217,215,-1,207,215,209,-1,209,215,213,-1,209,213,211,-1,210,212,208,-1,208,212,214,-1,208,214,206,-1,206,214,216,-1,206,216,204,-1,204,216,218,-1,204,218,202,-1,202,218,220,-1,202,220,200,-1,200,220,222,-1,200,222,113,-1,113,222,23,-1,224,225,212,-1,212,225,213,-1,226,227,211,-1,211,227,210,-1,225,226,213,-1,213,226,211,-1,210,227,212,-1,212,227,224,-1,226,225,227,-1,227,225,224,-1,108,60,148,-1,148,60,64,-1,148,64,149,-1,149,64,89,-1,149,89,150,-1,150,89,74,-1,150,74,116,-1,116,74,73,-1,116,73,117,-1,117,73,98,-1,117,98,151,-1,151,98,97,-1,151,97,152,-1,152,97,96,-1,108,109,60,-1,60,109,59,-1,109,28,59,-1,59,28,29,-1,7,114,6,-1,6,114,49,-1,114,125,49,-1,49,125,42,-1,156,50,158,-1,158,50,78,-1,158,78,159,-1,159,78,77,-1,159,77,166,-1,166,77,76,-1,166,76,167,-1,167,76,84,-1,167,84,168,-1,168,84,83,-1,168,83,129,-1,129,83,82,-1,129,82,125,-1,125,82,42,-1,110,121,44,-1,44,121,55,-1,121,135,55,-1,55,135,46,-1,135,115,46,-1,46,115,43,-1,115,110,43,-1,43,110,44,-1,161,160,92,-1,92,160,65,-1,66,72,122,-1,122,72,123,-1,143,147,69,-1,69,147,47,-1,56,54,134,-1,134,54,136,-1,86,85,130,-1,130,85,131,-1,80,79,142,-1,142,79,118,-1,111,138,45,-1,45,138,104,-1,80,142,81,-1,81,142,141,-1,81,141,61,-1,61,141,140,-1,61,140,62,-1,62,140,107,-1,62,107,63,-1,63,107,106,-1,63,106,75,-1,75,106,112,-1,75,112,45,-1,45,112,111,-1,104,138,139,-1,104,139,101,-1,101,139,164,-1,101,164,103,-1,103,164,165,-1,103,165,102,-1,102,165,163,-1,102,163,100,-1,100,163,162,-1,100,162,105,-1,105,162,22,-1,105,22,24,-1,86,130,87,-1,87,130,120,-1,87,120,88,-1,88,120,119,-1,88,119,79,-1,79,119,118,-1,131,85,58,-1,131,58,132,-1,132,58,57,-1,132,57,133,-1,133,57,56,-1,133,56,134,-1,66,122,67,-1,67,122,145,-1,67,145,68,-1,68,145,144,-1,68,144,69,-1,69,144,143,-1,136,54,53,-1,136,53,137,-1,137,53,48,-1,137,48,146,-1,146,48,47,-1,146,47,147,-1,0,2,153,-1,0,153,90,-1,90,153,171,-1,90,171,93,-1,93,171,170,-1,93,170,94,-1,94,170,169,-1,94,169,95,-1,95,169,154,-1,95,154,91,-1,91,154,161,-1,91,161,92,-1,65,160,52,-1,52,160,157,-1,52,157,40,-1,40,157,128,-1,40,128,41,-1,41,128,127,-1,41,127,70,-1,70,127,126,-1,70,126,71,-1,71,126,124,-1,71,124,72,-1,72,124,123,-1,
        ]
    }
}
Shape{
    appearance Appearance {
        material  Material 	{
            diffuseColor 1.0 1.0 1.0
            specularColor 0.30196078431372547 0.30196078431372547 0.30196078431372547
            ambientIntensity 1.0
            transparency 0.0
            shininess 0.5
        }
    }
    geometry IndexedFaceSet {
        ccw TRUE
        solid FALSE
        coord DEF co Coordinate {
            point [
                -0.3505 0.4323 0.0, -0.3575 0.4415 0.0, -0.206 0.4415 0.0, 0.555 0.4323 0.0, 0.548 0.4415 0.0, 1.0039 0.4415 0.0, 0.3692 0.4568 0.0, 0.3575 0.4415 0.0, 0.2084 0.4415 0.0, 0.3346 0.3732 0.0, 0.3387 0.3427 0.0, 0.2084 0.4016 0.0, 0.3505 0.3142 0.0, 0.3692 0.2897 0.0, 0.2084 0.0189 0.0, 0.3937 0.271 0.0, 1.0039 0.0189 0.0, 0.5118 0.271 0.0, 0.5363 0.2897 0.0, 0.555 0.3142 0.0, 0.5668 0.3427 0.0, 1.0039 0.4016 0.0, 0.4222 0.2592 0.0, 0.4527 0.2551 0.0, 0.4833 0.2592 0.0, 0.3505 0.4323 0.0, 0.3387 0.4038 0.0, 0.3384 0.4016 0.0, 0.4833 0.4873 0.0, 0.4527 0.4914 0.0, 0.2084 0.702 0.0, 0.5118 0.4755 0.0, 1.0039 0.702 0.0, 0.5363 0.4568 0.0, 0.4222 0.4873 0.0, 0.3937 0.4755 0.0, 0.5709 0.3732 0.0, 0.5671 0.4016 0.0, 0.5668 0.4038 0.0, -0.5671 0.4016 0.0, -0.5709 0.3732 0.0, -0.7874 0.4016 0.0, -0.5669 0.3427 0.0, -0.7874 0.0189 0.0, -0.5551 0.3142 0.0, -0.5363 0.2897 0.0, -0.5118 0.271 0.0, -0.4833 0.2592 0.0, -0.206 0.0189 0.0, -0.4528 0.2551 0.0, -0.4222 0.2592 0.0, -0.3937 0.271 0.0, -0.3692 0.2897 0.0, -0.3505 0.3142 0.0, -0.5669 0.4038 0.0, -0.7874 0.4415 0.0, -0.5551 0.4323 0.0, -0.3937 0.4755 0.0, -0.4222 0.4873 0.0, -0.206 0.702 0.0, -0.3692 0.4568 0.0, -0.4528 0.4914 0.0, -0.4833 0.4873 0.0, -0.7874 0.702 0.0, -0.5118 0.4755 0.0, -0.5363 0.4568 0.0, -0.548 0.4415 0.0, -0.3387 0.3427 0.0, -0.3347 0.3732 0.0, -0.206 0.4016 0.0, -0.3384 0.4016 0.0, -0.3387 0.4038 0.0, 0.6299 0.9126 0.0, 0.6299 0.7158 0.0, 1.0039 0.7158 0.0, -0.6299 0.7158 0.0, -0.7874 0.7158 0.0, 0.0254 0.4016 0.0, 0.0254 0.4415 0.0, 0.0293 0.4082 0.0, 0.0293 0.4039 0.0, 0.0335 0.4022 0.0, 0.0375 0.4016 0.0, 0.0351 0.4415 0.0, 0.0338 0.4414 0.0, 0.0385 0.4374 0.0, 0.03 0.4078 0.0, 0.0337 0.4368 0.0, 0.0293 0.4349 0.0, 0.0293 0.4401 0.0, 0.0424 0.4369 0.0, 0.0453 0.4359 0.0, 0.0481 0.434 0.0, 0.0505 0.4314 0.0, 0.0521 0.4283 0.0, 0.0531 0.4241 0.0, 0.0533 0.4211 0.0, 0.0529 0.4169 0.0, 0.0518 0.4135 0.0, 0.0394 0.4057 0.0, 0.0484 0.4088 0.0, 0.043 0.4061 0.0, 0.0459 0.4072 0.0, 0.0502 0.4107 0.0, 0.0342 0.4063 0.0, 0.0565 0.4309 0.0, 0.0541 0.4346 0.0, 0.0602 0.4415 0.0, 0.0507 0.4379 0.0, 0.0488 0.4032 0.0, 0.0602 0.4016 0.0, 0.045 0.4019 0.0, 0.0424 0.4016 0.0, 0.052 0.4052 0.0, 0.0549 0.4083 0.0, 0.057 0.412 0.0, 0.047 0.44 0.0, 0.0427 0.4413 0.0, 0.0413 0.4415 0.0, 0.0582 0.4162 0.0, 0.0586 0.4208 0.0, 0.058 0.4264 0.0, 0.0401 0.4014 0.0, 0.0602 0.0189 0.0, 0.039 0.4014 0.0, 0.0254 0.0189 0.0, -1.0039 0.7158 0.0, -1.0039 0.702 0.0, -1.0039 0.4415 0.0, -1.0039 0.4016 0.0, -1.0039 0.0189 0.0, -0.0475 0.4018 0.0, -0.0418 0.4018 0.0, -0.0403 0.4016 0.0, -0.0715 0.4018 0.0, -0.0676 0.4129 0.0, -0.0513 0.4129 0.0, -0.0403 0.4415 0.0, -0.0567 0.4412 0.0, -0.0619 0.4412 0.0, -0.0773 0.4018 0.0, -0.0286 0.439 0.0, -0.0325 0.4365 0.0, -0.0034 0.4415 0.0, -0.0183 0.4412 0.0, -0.024 0.4406 0.0, -0.0369 0.4127 0.0, -0.0347 0.4092 0.0, -0.0315 0.4061 0.0, -0.0274 0.4037 0.0, -0.0229 0.4023 0.0, -0.0179 0.4018 0.0, -0.0034 0.4016 0.0, -0.0072 0.4018 0.0, -0.0072 0.4412 0.0, -0.034 0.435 0.0, -0.0364 0.432 0.0, -0.0381 0.4281 0.0, -0.0388 0.424 0.0, -0.0389 0.422 0.0, -0.0383 0.4168 0.0, -0.0034 0.0189 0.0, -0.0403 0.0189 0.0, 0.0163 0.4369 0.0, 0.0163 0.4239 0.0, 0.0014 0.4369 0.0, 0.0024 0.4239 0.0, 0.0014 0.4412 0.0, 0.0024 0.4196 0.0, 0.0163 0.4196 0.0, 0.0163 0.4062 0.0, 0.0005 0.4062 0.0, 0.0005 0.4018 0.0, 0.0216 0.4018 0.0, 0.0216 0.4412 0.0, 0.0254 0.702 0.0, -0.0034 0.702 0.0, -0.0403 0.702 0.0, 0.0619 0.4018 0.0, 0.0821 0.4018 0.0, 0.0619 0.4062 0.0, 0.0768 0.4062 0.0, 0.0821 0.4412 0.0, 0.0768 0.4412 0.0, 0.0602 0.702 0.0, 0.0385 0.4417 0.0, 0.2084 0.9126 0.0, 0.0602 0.9126 0.0, 0.0254 0.9126 0.0, -0.0034 0.9126 0.0, -0.0403 0.9126 0.0, -0.206 0.9126 0.0, -0.6299 0.9126 0.0, -1.2402 0.0189 1.1614, -1.378 0.0189 1.1614, -1.2402 0.7158 1.1614, -1.378 0.7158 1.1614, -1.378 0.0189 1.3189, -1.378 0.7158 1.3189, -1.3753 0.0189 1.3393, -1.3753 0.7158 1.3393, -1.3674 0.0189 1.3583, -1.3674 0.7158 1.3583, -1.3549 0.0189 1.3746, -1.3549 0.7158 1.3746, -1.3386 0.0189 1.3871, -1.3386 0.7158 1.3871, -1.3196 0.0189 1.395, -1.3196 0.7158 1.395, -1.2992 0.0189 1.3976, -1.2992 0.7158 1.3976, -1.0039 0.7158 0.2953, -1.0039 0.0189 0.2953, -1.2402 0.0189 0.2953, -1.2402 0.9126 0.2953, -0.6299 0.7158 0.2953, -0.6299 0.9126 0.2953, -1.2402 0.9126 1.1614, 1.2992 0.0189 1.3976, 1.2992 0.7158 1.3976, 0.7101 0.7158 1.3976, -0.7102 0.7158 1.3976, -0.7102 0.9126 1.3976, 0.7101 0.9126 1.3976, 1.3196 0.0189 1.395, 1.3196 0.7158 1.395, 1.3386 0.0189 1.3871, 1.3386 0.7158 1.3871, 1.3549 0.0189 1.3746, 1.3549 0.7158 1.3746, 1.3674 0.0189 1.3583, 1.3674 0.7158 1.3583, 1.3753 0.0189 1.3393, 1.3753 0.7158 1.3393, 1.3779 0.0189 1.3189, 1.3779 0.7158 1.3189, 1.3779 0.7158 1.1614, 1.3779 0.0189 1.1614, 1.2401 0.7158 1.1614, 1.2401 0.0189 1.1614, 1.2401 0.0189 0.2953, 1.2401 0.9126 0.2953, 1.2401 0.9126 1.1614, 0.6299 0.7158 0.2953, 0.6299 0.9126 0.2953, 1.0039 0.7158 0.2953, 1.0039 0.0189 0.2953, -0.7102 0.9126 1.1614, 0.7101 0.9126 1.1614, -0.5669 0.4038 -0.1968, -0.5551 0.4323 -0.1968, -0.5363 0.4568 -0.1968, -0.5118 0.4755 -0.1968, -0.4833 0.4873 -0.1968, -0.4528 0.4914 -0.1968, -0.4222 0.4873 -0.1968, -0.3937 0.4755 -0.1968, -0.3692 0.4568 -0.1968, -0.3505 0.4323 -0.1968, -0.3387 0.4038 -0.1968, -0.3347 0.3732 -0.1968, -0.3387 0.3427 -0.1968, -0.3505 0.3142 -0.1968, -0.3692 0.2897 -0.1968, -0.3937 0.271 -0.1968, -0.4222 0.2592 -0.1968, -0.4528 0.2551 -0.1968, -0.4833 0.2592 -0.1968, -0.5118 0.271 -0.1968, -0.5363 0.2897 -0.1968, -0.5551 0.3142 -0.1968, -0.5669 0.3427 -0.1968, -0.5709 0.3732 -0.1968, 0.3387 0.4038 -0.1968, 0.3505 0.4323 -0.1968, 0.3692 0.4568 -0.1968, 0.3937 0.4755 -0.1968, 0.4222 0.4873 -0.1968, 0.4527 0.4914 -0.1968, 0.4833 0.4873 -0.1968, 0.5118 0.4755 -0.1968, 0.5363 0.4568 -0.1968, 0.555 0.4323 -0.1968, 0.5668 0.4038 -0.1968, 0.5709 0.3732 -0.1968, 0.5668 0.3427 -0.1968, 0.555 0.3142 -0.1968, 0.5363 0.2897 -0.1968, 0.5118 0.271 -0.1968, 0.4833 0.2592 -0.1968, 0.4527 0.2551 -0.1968, 0.4222 0.2592 -0.1968, 0.3937 0.271 -0.1968, 0.3692 0.2897 -0.1968, 0.3505 0.3142 -0.1968, 0.3387 0.3427 -0.1968, 0.3346 0.3732 -0.1968, 0.4527 0.3732 -0.315, 0.4823 0.3653 -0.3109, 0.4792 0.358 -0.3109, 0.4833 0.3732 -0.3109, 0.468 0.3468 -0.3109, 0.4607 0.3437 -0.3109, 0.4744 0.3516 -0.3109, 0.4448 0.3437 -0.3109, 0.4375 0.3468 -0.3109, 0.4527 0.3427 -0.3109, 0.4263 0.358 -0.3109, 0.4232 0.3653 -0.3109, 0.4311 0.3516 -0.3109, 0.4232 0.3812 -0.3109, 0.4263 0.3885 -0.3109, 0.4222 0.3732 -0.3109, 0.4375 0.3997 -0.3109, 0.4448 0.4028 -0.3109, 0.4311 0.3949 -0.3109, 0.4607 0.4028 -0.3109, 0.468 0.3997 -0.3109, 0.4527 0.4038 -0.3109, 0.4792 0.3885 -0.3109, 0.4823 0.3812 -0.3109, 0.4744 0.3949 -0.3109, 0.5098 0.358 -0.2991, 0.5039 0.3437 -0.2991, 0.4945 0.3315 -0.2991, 0.4823 0.3221 -0.2991, 0.468 0.3162 -0.2991, 0.4527 0.3142 -0.2991, 0.4375 0.3162 -0.2991, 0.4232 0.3221 -0.2991, 0.411 0.3315 -0.2991, 0.4016 0.3437 -0.2991, 0.3957 0.358 -0.2991, 0.3937 0.3732 -0.2991, 0.3957 0.3885 -0.2991, 0.4016 0.4028 -0.2991, 0.411 0.415 -0.2991, 0.4232 0.4244 -0.2991, 0.4375 0.4303 -0.2991, 0.4527 0.4323 -0.2991, 0.468 0.4303 -0.2991, 0.4823 0.4244 -0.2991, 0.4945 0.415 -0.2991, 0.5039 0.4028 -0.2991, 0.5098 0.3885 -0.2991, 0.5118 0.3732 -0.2991, 0.5334 0.3516 -0.2804, 0.5251 0.3315 -0.2804, 0.5118 0.3142 -0.2804, 0.4945 0.3009 -0.2804, 0.4744 0.2926 -0.2804, 0.4527 0.2897 -0.2804, 0.4311 0.2926 -0.2804, 0.411 0.3009 -0.2804, 0.3937 0.3142 -0.2804, 0.3804 0.3315 -0.2804, 0.3721 0.3516 -0.2804, 0.3692 0.3732 -0.2804, 0.3721 0.3949 -0.2804, 0.3804 0.415 -0.2804, 0.3937 0.4323 -0.2804, 0.411 0.4456 -0.2804, 0.4311 0.4539 -0.2804, 0.4527 0.4568 -0.2804, 0.4744 0.4539 -0.2804, 0.4945 0.4456 -0.2804, 0.5118 0.4323 -0.2804, 0.5251 0.415 -0.2804, 0.5334 0.3949 -0.2804, 0.5363 0.3732 -0.2804, 0.5515 0.3468 -0.2559, 0.5413 0.3221 -0.2559, 0.5251 0.3009 -0.2559, 0.5039 0.2847 -0.2559, 0.4792 0.2744 -0.2559, 0.4527 0.271 -0.2559, 0.4263 0.2744 -0.2559, 0.4016 0.2847 -0.2559, 0.3804 0.3009 -0.2559, 0.3642 0.3221 -0.2559, 0.3539 0.3468 -0.2559, 0.3505 0.3732 -0.2559, 0.3539 0.3997 -0.2559, 0.3642 0.4244 -0.2559, 0.3804 0.4456 -0.2559, 0.4016 0.4618 -0.2559, 0.4263 0.4721 -0.2559, 0.4527 0.4755 -0.2559, 0.4792 0.4721 -0.2559, 0.5039 0.4618 -0.2559, 0.5251 0.4456 -0.2559, 0.5413 0.4244 -0.2559, 0.5515 0.3997 -0.2559, 0.555 0.3732 -0.2559, 0.5629 0.3437 -0.2274, 0.5515 0.3162 -0.2274, 0.5334 0.2926 -0.2274, 0.5098 0.2744 -0.2274, 0.4823 0.2631 -0.2274, 0.4527 0.2592 -0.2274, 0.4232 0.2631 -0.2274, 0.3957 0.2744 -0.2274, 0.3721 0.2926 -0.2274, 0.3539 0.3162 -0.2274, 0.3425 0.3437 -0.2274, 0.3387 0.3732 -0.2274, 0.3425 0.4028 -0.2274, 0.3539 0.4303 -0.2274, 0.3721 0.4539 -0.2274, 0.3957 0.4721 -0.2274, 0.4232 0.4834 -0.2274, 0.4527 0.4873 -0.2274, 0.4823 0.4834 -0.2274, 0.5098 0.4721 -0.2274, 0.5334 0.4539 -0.2274, 0.5515 0.4303 -0.2274, 0.5629 0.4028 -0.2274, 0.5668 0.3732 -0.2274, -0.4528 0.3732 -0.315, -0.4232 0.3653 -0.3109, -0.4263 0.358 -0.3109, -0.4222 0.3732 -0.3109, -0.4375 0.3468 -0.3109, -0.4449 0.3437 -0.3109, -0.4312 0.3516 -0.3109, -0.4607 0.3437 -0.3109, -0.4681 0.3468 -0.3109, -0.4528 0.3427 -0.3109, -0.4792 0.358 -0.3109, -0.4823 0.3653 -0.3109, -0.4744 0.3516 -0.3109, -0.4823 0.3812 -0.3109, -0.4792 0.3885 -0.3109, -0.4833 0.3732 -0.3109, -0.4681 0.3997 -0.3109, -0.4607 0.4028 -0.3109, -0.4744 0.3949 -0.3109, -0.4449 0.4028 -0.3109, -0.4375 0.3997 -0.3109, -0.4528 0.4038 -0.3109, -0.4263 0.3885 -0.3109, -0.4232 0.3812 -0.3109, -0.4312 0.3949 -0.3109, -0.3957 0.358 -0.2991, -0.4016 0.3437 -0.2991, -0.411 0.3315 -0.2991, -0.4232 0.3221 -0.2991, -0.4375 0.3162 -0.2991, -0.4528 0.3142 -0.2991, -0.4681 0.3162 -0.2991, -0.4823 0.3221 -0.2991, -0.4945 0.3315 -0.2991, -0.5039 0.3437 -0.2991, -0.5098 0.358 -0.2991, -0.5118 0.3732 -0.2991, -0.5098 0.3885 -0.2991, -0.5039 0.4028 -0.2991, -0.4945 0.415 -0.2991, -0.4823 0.4244 -0.2991, -0.4681 0.4303 -0.2991, -0.4528 0.4323 -0.2991, -0.4375 0.4303 -0.2991, -0.4232 0.4244 -0.2991, -0.411 0.415 -0.2991, -0.4016 0.4028 -0.2991, -0.3957 0.3885 -0.2991, -0.3937 0.3732 -0.2991, -0.3721 0.3516 -0.2804, -0.3804 0.3315 -0.2804, -0.3937 0.3142 -0.2804, -0.411 0.3009 -0.2804, -0.4312 0.2926 -0.2804, -0.4528 0.2897 -0.2804, -0.4744 0.2926 -0.2804, -0.4945 0.3009 -0.2804, -0.5118 0.3142 -0.2804, -0.5251 0.3315 -0.2804, -0.5334 0.3516 -0.2804, -0.5363 0.3732 -0.2804, -0.5334 0.3949 -0.2804, -0.5251 0.415 -0.2804, -0.5118 0.4323 -0.2804, -0.4945 0.4456 -0.2804, -0.4744 0.4539 -0.2804, -0.4528 0.4568 -0.2804, -0.4312 0.4539 -0.2804, -0.411 0.4456 -0.2804, -0.3937 0.4323 -0.2804, -0.3804 0.415 -0.2804, -0.3721 0.3949 -0.2804, -0.3692 0.3732 -0.2804, -0.354 0.3468 -0.2559, -0.3642 0.3221 -0.2559, -0.3804 0.3009 -0.2559, -0.4016 0.2847 -0.2559, -0.4263 0.2744 -0.2559, -0.4528 0.271 -0.2559, -0.4792 0.2744 -0.2559, -0.5039 0.2847 -0.2559, -0.5251 0.3009 -0.2559, -0.5413 0.3221 -0.2559, -0.5516 0.3468 -0.2559, -0.5551 0.3732 -0.2559, -0.5516 0.3997 -0.2559, -0.5413 0.4244 -0.2559, -0.5251 0.4456 -0.2559, -0.5039 0.4618 -0.2559, -0.4792 0.4721 -0.2559, -0.4528 0.4755 -0.2559, -0.4263 0.4721 -0.2559, -0.4016 0.4618 -0.2559, -0.3804 0.4456 -0.2559, -0.3642 0.4244 -0.2559, -0.354 0.3997 -0.2559, -0.3505 0.3732 -0.2559, -0.3426 0.3437 -0.2274, -0.354 0.3162 -0.2274, -0.3721 0.2926 -0.2274, -0.3957 0.2744 -0.2274, -0.4232 0.2631 -0.2274, -0.4528 0.2592 -0.2274, -0.4823 0.2631 -0.2274, -0.5098 0.2744 -0.2274, -0.5334 0.2926 -0.2274, -0.5516 0.3162 -0.2274, -0.563 0.3437 -0.2274, -0.5669 0.3732 -0.2274, -0.563 0.4028 -0.2274, -0.5516 0.4303 -0.2274, -0.5334 0.4539 -0.2274, -0.5098 0.4721 -0.2274, -0.4823 0.4834 -0.2274, -0.4528 0.4873 -0.2274, -0.4232 0.4834 -0.2274, -0.3957 0.4721 -0.2274, -0.3721 0.4539 -0.2274, -0.354 0.4303 -0.2274, -0.3426 0.4028 -0.2274, -0.3387 0.3732 -0.2274, -0.7102 0.7158 1.1614, 0.7101 0.7158 1.1614
            ]
        }
        coordIndex [
            0,1,2,-1,3,4,5,-1,6,7,8,-1,9,10,11,-1,12,13,14,-1,14,13,15,-1,16,17,18,-1,18,19,16,-1,16,19,20,-1,16,20,21,-1,15,22,14,-1,14,22,23,-1,14,23,16,-1,16,23,24,-1,16,24,17,-1,7,25,8,-1,8,25,26,-1,8,26,11,-1,11,26,27,-1,11,27,9,-1,28,29,30,-1,31,28,32,-1,5,4,32,-1,32,4,33,-1,32,33,31,-1,29,34,30,-1,30,34,35,-1,30,35,6,-1,20,36,21,-1,21,36,37,-1,21,37,5,-1,5,37,38,-1,5,38,3,-1,39,40,41,-1,41,40,42,-1,41,42,43,-1,43,42,44,-1,43,44,45,-1,45,46,43,-1,43,46,47,-1,43,47,48,-1,48,47,49,-1,48,49,50,-1,50,51,48,-1,48,51,52,-1,48,52,53,-1,39,41,54,-1,54,41,55,-1,54,55,56,-1,57,58,59,-1,57,59,60,-1,61,62,63,-1,62,64,63,-1,63,64,65,-1,63,65,55,-1,55,65,66,-1,55,66,56,-1,67,68,69,-1,69,68,70,-1,69,70,2,-1,2,70,71,-1,2,71,0,-1,72,73,30,-1,28,30,32,-1,32,30,73,-1,32,73,74,-1,58,61,59,-1,59,61,63,-1,59,63,75,-1,75,63,76,-1,77,78,79,-1,79,80,77,-1,77,80,81,-1,77,81,82,-1,78,83,84,-1,85,86,87,-1,87,86,79,-1,87,79,88,-1,88,79,78,-1,88,78,89,-1,89,78,84,-1,85,90,86,-1,86,90,91,-1,86,91,92,-1,92,93,86,-1,86,93,94,-1,86,94,95,-1,95,96,86,-1,86,96,97,-1,86,97,98,-1,99,100,101,-1,101,100,102,-1,98,103,86,-1,86,103,100,-1,86,100,104,-1,104,100,99,-1,105,106,107,-1,107,106,108,-1,109,110,111,-1,111,110,112,-1,109,113,110,-1,110,113,114,-1,110,114,115,-1,108,116,107,-1,107,116,117,-1,107,117,118,-1,115,119,110,-1,110,119,120,-1,110,120,107,-1,107,120,121,-1,107,121,105,-1,122,123,124,-1,124,123,125,-1,124,125,82,-1,126,76,127,-1,127,76,63,-1,127,63,128,-1,128,63,55,-1,128,55,129,-1,129,55,41,-1,129,41,130,-1,130,41,43,-1,131,132,133,-1,134,135,136,-1,133,132,137,-1,137,132,138,-1,137,138,139,-1,136,131,134,-1,134,131,133,-1,134,133,140,-1,140,133,69,-1,140,69,139,-1,139,69,2,-1,139,2,137,-1,137,141,142,-1,143,144,137,-1,137,144,145,-1,137,145,141,-1,146,147,133,-1,133,147,148,-1,133,148,149,-1,149,150,133,-1,133,150,151,-1,133,151,152,-1,152,151,153,-1,152,153,143,-1,143,153,154,-1,143,154,144,-1,142,155,137,-1,137,155,156,-1,137,156,157,-1,157,158,137,-1,137,158,159,-1,137,159,133,-1,133,159,160,-1,133,160,146,-1,82,125,77,-1,77,125,161,-1,77,161,152,-1,152,161,162,-1,152,162,133,-1,133,162,48,-1,133,48,69,-1,69,48,53,-1,69,53,67,-1,163,164,165,-1,165,164,166,-1,78,167,143,-1,143,167,165,-1,143,165,152,-1,152,165,166,-1,152,166,168,-1,169,170,168,-1,168,170,171,-1,168,171,152,-1,152,171,172,-1,152,172,77,-1,77,172,173,-1,77,173,78,-1,78,173,174,-1,78,174,167,-1,83,78,175,-1,175,78,143,-1,175,143,176,-1,176,143,137,-1,176,137,177,-1,177,137,2,-1,177,2,59,-1,59,2,1,-1,59,1,60,-1,123,11,14,-1,14,11,10,-1,14,10,12,-1,110,178,179,-1,178,110,180,-1,180,110,107,-1,180,107,181,-1,122,112,123,-1,123,112,110,-1,123,110,11,-1,11,110,179,-1,11,179,8,-1,8,179,182,-1,8,182,107,-1,107,182,183,-1,107,183,181,-1,6,8,30,-1,30,8,107,-1,30,107,184,-1,184,107,118,-1,184,118,175,-1,175,118,185,-1,175,185,83,-1,72,30,186,-1,186,30,184,-1,186,184,187,-1,187,184,175,-1,187,175,188,-1,188,175,176,-1,188,176,189,-1,189,176,177,-1,189,177,190,-1,190,177,59,-1,190,59,191,-1,191,59,75,-1,191,75,192,-1,193,194,195,-1,195,194,196,-1,194,197,196,-1,196,197,198,-1,198,197,199,-1,198,199,200,-1,200,199,201,-1,200,201,202,-1,202,201,203,-1,202,203,204,-1,204,203,205,-1,204,205,206,-1,206,205,207,-1,206,207,208,-1,208,207,209,-1,208,209,210,-1,211,126,127,-1,130,212,129,-1,129,212,211,-1,129,211,128,-1,128,211,127,-1,212,213,211,-1,211,213,214,-1,211,214,215,-1,215,214,216,-1,217,214,195,-1,195,214,213,-1,195,213,193,-1,218,219,209,-1,209,219,220,-1,210,209,221,-1,221,209,220,-1,221,220,222,-1,222,220,223,-1,219,218,224,-1,219,224,225,-1,225,224,226,-1,225,226,227,-1,227,226,228,-1,227,228,229,-1,229,228,230,-1,229,230,231,-1,231,230,232,-1,231,232,233,-1,233,232,234,-1,233,234,235,-1,235,234,236,-1,236,234,237,-1,236,237,238,-1,238,237,239,-1,239,240,238,-1,238,240,241,-1,238,241,242,-1,243,244,245,-1,245,244,241,-1,245,241,246,-1,246,241,240,-1,246,16,245,-1,245,16,21,-1,21,5,245,-1,245,5,32,-1,245,32,74,-1,214,217,216,-1,216,217,247,-1,242,241,248,-1,248,241,244,-1,186,216,72,-1,72,216,247,-1,72,247,244,-1,244,247,248,-1,248,247,222,-1,248,222,223,-1,186,187,216,-1,216,187,188,-1,216,188,189,-1,189,190,216,-1,216,190,191,-1,216,191,192,-1,246,240,209,-1,209,240,239,-1,193,213,212,-1,130,43,212,-1,212,43,48,-1,212,48,162,-1,201,199,193,-1,193,199,197,-1,193,197,194,-1,237,234,239,-1,239,234,232,-1,161,125,246,-1,232,230,239,-1,239,230,228,-1,239,228,226,-1,226,224,239,-1,239,224,218,-1,239,218,209,-1,207,205,193,-1,193,205,203,-1,193,203,201,-1,162,161,212,-1,212,161,246,-1,212,246,193,-1,193,246,209,-1,193,209,207,-1,125,123,246,-1,246,123,14,-1,246,14,16,-1,243,245,73,-1,73,245,74,-1,72,244,73,-1,73,244,243,-1,126,211,76,-1,76,211,215,-1,76,215,75,-1,75,215,192,-1,192,215,216,-1,249,56,250,-1,250,56,66,-1,250,66,251,-1,66,65,251,-1,251,65,64,-1,251,64,252,-1,252,64,62,-1,252,62,253,-1,253,62,61,-1,253,61,254,-1,254,61,58,-1,254,58,255,-1,255,58,57,-1,255,57,256,-1,256,57,60,-1,256,60,257,-1,257,60,1,-1,257,1,258,-1,1,0,258,-1,258,0,71,-1,258,71,259,-1,259,71,70,-1,259,70,260,-1,70,68,260,-1,260,68,67,-1,260,67,261,-1,261,67,53,-1,261,53,262,-1,262,53,52,-1,262,52,263,-1,263,52,51,-1,263,51,264,-1,264,51,50,-1,264,50,265,-1,265,50,49,-1,265,49,266,-1,266,49,47,-1,266,47,267,-1,267,47,46,-1,267,46,268,-1,268,46,45,-1,268,45,269,-1,269,45,44,-1,269,44,270,-1,270,44,42,-1,270,42,271,-1,271,42,40,-1,271,40,272,-1,272,40,39,-1,272,39,249,-1,249,39,54,-1,249,54,56,-1,273,25,274,-1,274,25,7,-1,274,7,275,-1,7,6,275,-1,275,6,35,-1,275,35,276,-1,276,35,34,-1,276,34,277,-1,277,34,29,-1,277,29,278,-1,278,29,28,-1,278,28,279,-1,279,28,31,-1,279,31,280,-1,280,31,33,-1,280,33,281,-1,281,33,4,-1,281,4,282,-1,4,3,282,-1,282,3,38,-1,282,38,283,-1,283,38,37,-1,283,37,284,-1,37,36,284,-1,284,36,20,-1,284,20,285,-1,285,20,19,-1,285,19,286,-1,286,19,18,-1,286,18,287,-1,287,18,17,-1,287,17,288,-1,288,17,24,-1,288,24,289,-1,289,24,23,-1,289,23,290,-1,290,23,22,-1,290,22,291,-1,291,22,15,-1,291,15,292,-1,292,15,13,-1,292,13,293,-1,293,13,12,-1,293,12,294,-1,294,12,10,-1,294,10,295,-1,295,10,9,-1,295,9,296,-1,296,9,27,-1,296,27,273,-1,273,27,26,-1,273,26,25,-1,297,298,299,-1,300,298,297,-1,297,301,302,-1,303,301,297,-1,299,303,297,-1,297,304,305,-1,306,304,297,-1,302,306,297,-1,297,307,308,-1,309,307,297,-1,305,309,297,-1,297,310,311,-1,312,310,297,-1,308,312,297,-1,297,313,314,-1,315,313,297,-1,311,315,297,-1,297,316,317,-1,318,316,297,-1,314,318,297,-1,297,319,320,-1,321,319,297,-1,317,321,297,-1,320,300,297,-1,300,322,298,-1,298,322,323,-1,298,323,299,-1,299,323,324,-1,299,324,303,-1,303,324,325,-1,303,325,301,-1,301,325,326,-1,301,326,302,-1,302,326,327,-1,302,327,306,-1,306,327,328,-1,306,328,304,-1,304,328,329,-1,304,329,305,-1,305,329,330,-1,305,330,309,-1,309,330,331,-1,309,331,307,-1,307,331,332,-1,307,332,308,-1,308,332,333,-1,308,333,312,-1,312,333,334,-1,312,334,310,-1,310,334,335,-1,310,335,311,-1,311,335,336,-1,311,336,315,-1,315,336,337,-1,315,337,313,-1,313,337,338,-1,313,338,314,-1,314,338,339,-1,314,339,318,-1,318,339,340,-1,318,340,316,-1,316,340,341,-1,316,341,317,-1,317,341,342,-1,317,342,321,-1,321,342,343,-1,321,343,319,-1,319,343,344,-1,319,344,320,-1,320,344,345,-1,320,345,300,-1,300,345,322,-1,345,346,322,-1,322,346,347,-1,322,347,323,-1,323,347,348,-1,323,348,324,-1,324,348,349,-1,324,349,325,-1,325,349,350,-1,325,350,326,-1,326,350,351,-1,326,351,327,-1,327,351,352,-1,327,352,328,-1,328,352,353,-1,328,353,329,-1,329,353,354,-1,329,354,330,-1,330,354,355,-1,330,355,331,-1,331,355,356,-1,331,356,332,-1,332,356,357,-1,332,357,333,-1,333,357,358,-1,333,358,334,-1,334,358,359,-1,334,359,335,-1,335,359,360,-1,335,360,336,-1,336,360,361,-1,336,361,337,-1,337,361,362,-1,337,362,338,-1,338,362,363,-1,338,363,339,-1,339,363,364,-1,339,364,340,-1,340,364,365,-1,340,365,341,-1,341,365,366,-1,341,366,342,-1,342,366,367,-1,342,367,343,-1,343,367,368,-1,343,368,344,-1,344,368,369,-1,344,369,345,-1,345,369,346,-1,369,370,346,-1,346,370,371,-1,346,371,347,-1,347,371,372,-1,347,372,348,-1,348,372,373,-1,348,373,349,-1,349,373,374,-1,349,374,350,-1,350,374,375,-1,350,375,351,-1,351,375,376,-1,351,376,352,-1,352,376,377,-1,352,377,353,-1,353,377,378,-1,353,378,354,-1,354,378,379,-1,354,379,355,-1,355,379,380,-1,355,380,356,-1,356,380,381,-1,356,381,357,-1,357,381,382,-1,357,382,358,-1,358,382,383,-1,358,383,359,-1,359,383,384,-1,359,384,360,-1,360,384,385,-1,360,385,361,-1,361,385,386,-1,361,386,362,-1,362,386,387,-1,362,387,363,-1,363,387,388,-1,363,388,364,-1,364,388,389,-1,364,389,365,-1,365,389,390,-1,365,390,366,-1,366,390,391,-1,366,391,367,-1,367,391,392,-1,367,392,368,-1,368,392,393,-1,368,393,369,-1,369,393,370,-1,393,394,370,-1,370,394,395,-1,370,395,371,-1,371,395,396,-1,371,396,372,-1,372,396,397,-1,372,397,373,-1,373,397,398,-1,373,398,374,-1,374,398,399,-1,374,399,375,-1,375,399,400,-1,375,400,376,-1,376,400,401,-1,376,401,377,-1,377,401,402,-1,377,402,378,-1,378,402,403,-1,378,403,379,-1,379,403,404,-1,379,404,380,-1,380,404,405,-1,380,405,381,-1,381,405,406,-1,381,406,382,-1,382,406,407,-1,382,407,383,-1,383,407,408,-1,383,408,384,-1,384,408,409,-1,384,409,385,-1,385,409,410,-1,385,410,386,-1,386,410,411,-1,386,411,387,-1,387,411,412,-1,387,412,388,-1,388,412,413,-1,388,413,389,-1,389,413,414,-1,389,414,390,-1,390,414,415,-1,390,415,391,-1,391,415,416,-1,391,416,392,-1,392,416,417,-1,392,417,393,-1,393,417,394,-1,417,285,394,-1,394,285,286,-1,394,286,395,-1,395,286,287,-1,395,287,396,-1,396,287,288,-1,396,288,397,-1,397,288,289,-1,397,289,398,-1,398,289,290,-1,398,290,399,-1,399,290,291,-1,399,291,400,-1,400,291,292,-1,400,292,401,-1,401,292,293,-1,401,293,402,-1,402,293,294,-1,402,294,403,-1,403,294,295,-1,403,295,404,-1,404,295,296,-1,404,296,405,-1,405,296,273,-1,405,273,406,-1,406,273,274,-1,406,274,407,-1,407,274,275,-1,407,275,408,-1,408,275,276,-1,408,276,409,-1,409,276,277,-1,409,277,410,-1,410,277,278,-1,410,278,411,-1,411,278,279,-1,411,279,412,-1,412,279,280,-1,412,280,413,-1,413,280,281,-1,413,281,414,-1,414,281,282,-1,414,282,415,-1,415,282,283,-1,415,283,416,-1,416,283,284,-1,416,284,417,-1,417,284,285,-1,418,419,420,-1,421,419,418,-1,418,422,423,-1,424,422,418,-1,420,424,418,-1,418,425,426,-1,427,425,418,-1,423,427,418,-1,418,428,429,-1,430,428,418,-1,426,430,418,-1,418,431,432,-1,433,431,418,-1,429,433,418,-1,418,434,435,-1,436,434,418,-1,432,436,418,-1,418,437,438,-1,439,437,418,-1,435,439,418,-1,418,440,441,-1,442,440,418,-1,438,442,418,-1,441,421,418,-1,421,443,419,-1,419,443,444,-1,419,444,420,-1,420,444,445,-1,420,445,424,-1,424,445,446,-1,424,446,422,-1,422,446,447,-1,422,447,423,-1,423,447,448,-1,423,448,427,-1,427,448,449,-1,427,449,425,-1,425,449,450,-1,425,450,426,-1,426,450,451,-1,426,451,430,-1,430,451,452,-1,430,452,428,-1,428,452,453,-1,428,453,429,-1,429,453,454,-1,429,454,433,-1,433,454,455,-1,433,455,431,-1,431,455,456,-1,431,456,432,-1,432,456,457,-1,432,457,436,-1,436,457,458,-1,436,458,434,-1,434,458,459,-1,434,459,435,-1,435,459,460,-1,435,460,439,-1,439,460,461,-1,439,461,437,-1,437,461,462,-1,437,462,438,-1,438,462,463,-1,438,463,442,-1,442,463,464,-1,442,464,440,-1,440,464,465,-1,440,465,441,-1,441,465,466,-1,441,466,421,-1,421,466,443,-1,466,467,443,-1,443,467,468,-1,443,468,444,-1,444,468,469,-1,444,469,445,-1,445,469,470,-1,445,470,446,-1,446,470,471,-1,446,471,447,-1,447,471,472,-1,447,472,448,-1,448,472,473,-1,448,473,449,-1,449,473,474,-1,449,474,450,-1,450,474,475,-1,450,475,451,-1,451,475,476,-1,451,476,452,-1,452,476,477,-1,452,477,453,-1,453,477,478,-1,453,478,454,-1,454,478,479,-1,454,479,455,-1,455,479,480,-1,455,480,456,-1,456,480,481,-1,456,481,457,-1,457,481,482,-1,457,482,458,-1,458,482,483,-1,458,483,459,-1,459,483,484,-1,459,484,460,-1,460,484,485,-1,460,485,461,-1,461,485,486,-1,461,486,462,-1,462,486,487,-1,462,487,463,-1,463,487,488,-1,463,488,464,-1,464,488,489,-1,464,489,465,-1,465,489,490,-1,465,490,466,-1,466,490,467,-1,490,491,467,-1,467,491,492,-1,467,492,468,-1,468,492,493,-1,468,493,469,-1,469,493,494,-1,469,494,470,-1,470,494,495,-1,470,495,471,-1,471,495,496,-1,471,496,472,-1,472,496,497,-1,472,497,473,-1,473,497,498,-1,473,498,474,-1,474,498,499,-1,474,499,475,-1,475,499,500,-1,475,500,476,-1,476,500,501,-1,476,501,477,-1,477,501,502,-1,477,502,478,-1,478,502,503,-1,478,503,479,-1,479,503,504,-1,479,504,480,-1,480,504,505,-1,480,505,481,-1,481,505,506,-1,481,506,482,-1,482,506,507,-1,482,507,483,-1,483,507,508,-1,483,508,484,-1,484,508,509,-1,484,509,485,-1,485,509,510,-1,485,510,486,-1,486,510,511,-1,486,511,487,-1,487,511,512,-1,487,512,488,-1,488,512,513,-1,488,513,489,-1,489,513,514,-1,489,514,490,-1,490,514,491,-1,514,515,491,-1,491,515,516,-1,491,516,492,-1,492,516,517,-1,492,517,493,-1,493,517,518,-1,493,518,494,-1,494,518,519,-1,494,519,495,-1,495,519,520,-1,495,520,496,-1,496,520,521,-1,496,521,497,-1,497,521,522,-1,497,522,498,-1,498,522,523,-1,498,523,499,-1,499,523,524,-1,499,524,500,-1,500,524,525,-1,500,525,501,-1,501,525,526,-1,501,526,502,-1,502,526,527,-1,502,527,503,-1,503,527,528,-1,503,528,504,-1,504,528,529,-1,504,529,505,-1,505,529,530,-1,505,530,506,-1,506,530,531,-1,506,531,507,-1,507,531,532,-1,507,532,508,-1,508,532,533,-1,508,533,509,-1,509,533,534,-1,509,534,510,-1,510,534,535,-1,510,535,511,-1,511,535,536,-1,511,536,512,-1,512,536,537,-1,512,537,513,-1,513,537,538,-1,513,538,514,-1,514,538,515,-1,538,261,515,-1,515,261,262,-1,515,262,516,-1,516,262,263,-1,516,263,517,-1,517,263,264,-1,517,264,518,-1,518,264,265,-1,518,265,519,-1,519,265,266,-1,519,266,520,-1,520,266,267,-1,520,267,521,-1,521,267,268,-1,521,268,522,-1,522,268,269,-1,522,269,523,-1,523,269,270,-1,523,270,524,-1,524,270,271,-1,524,271,525,-1,525,271,272,-1,525,272,526,-1,526,272,249,-1,526,249,527,-1,527,249,250,-1,527,250,528,-1,528,250,251,-1,528,251,529,-1,529,251,252,-1,529,252,530,-1,530,252,253,-1,530,253,531,-1,531,253,254,-1,531,254,532,-1,532,254,255,-1,532,255,533,-1,533,255,256,-1,533,256,534,-1,534,256,257,-1,534,257,535,-1,535,257,258,-1,535,258,536,-1,536,258,259,-1,536,259,537,-1,537,259,260,-1,537,260,538,-1,538,260,261,-1,196,198,195,-1,195,198,200,-1,200,202,195,-1,195,202,204,-1,195,204,206,-1,221,539,210,-1,210,539,195,-1,210,195,208,-1,208,195,206,-1,247,217,539,-1,539,217,195,-1,539,221,247,-1,247,221,222,-1,238,540,220,-1,235,236,238,-1,235,238,233,-1,220,219,238,-1,238,219,225,-1,238,225,227,-1,227,229,238,-1,238,229,231,-1,238,231,233,-1,248,223,540,-1,540,223,220,-1,540,238,248,-1,248,238,242,-1,
        ]
    }
}
Shape{
    appearance Appearance {
        material  Material 	{
            diffuseColor 1.0 1.0 1.0
            specularColor 0.8784313725490196 0.8784313725490196 0.8784313725490196
            ambientIntensity 1.0
            transparency 0.0
            shininess 0.5
        }
    }
    geometry IndexedFaceSet {
        ccw TRUE
        solid FALSE
        coord DEF co Coordinate {
            point [
                -0.0526 0.4172 0.0039, -0.0585 0.4337 0.0039, -0.0567 0.4412 0.0039, -0.0418 0.4018 0.0039, -0.0475 0.4018 0.0039, -0.0513 0.4129 0.0039, -0.0589 0.435 0.0039, -0.0591 0.4364 0.0039, -0.0619 0.4412 0.0039, -0.0593 0.4364 0.0039, -0.0595 0.435 0.0039, -0.0599 0.4337 0.0039, -0.0658 0.4172 0.0039, -0.0773 0.4018 0.0039, -0.0715 0.4018 0.0039, -0.0676 0.4129 0.0039, -0.0676 0.4129 0.0, -0.0715 0.4018 0.0, -0.0513 0.4129 0.0, -0.0475 0.4018 0.0, -0.0418 0.4018 0.0, -0.0567 0.4412 0.0, -0.0619 0.4412 0.0, -0.0773 0.4018 0.0, -0.0599 0.4337 0.0, -0.0595 0.435 0.0, -0.0593 0.4364 0.0, -0.0591 0.4364 0.0, -0.0589 0.435 0.0, -0.0585 0.4337 0.0, -0.0526 0.4172 0.0, -0.0658 0.4172 0.0, -0.0183 0.4412 0.0039, -0.0183 0.4412 0.0, -0.0072 0.4412 0.0039, -0.0072 0.4412 0.0, -0.024 0.4406 0.0039, -0.024 0.4406 0.0, -0.0286 0.439 0.0039, -0.0286 0.439 0.0, -0.0325 0.4365 0.0039, -0.0325 0.4365 0.0, -0.034 0.435 0.0039, -0.034 0.435 0.0, -0.0364 0.432 0.0039, -0.0364 0.432 0.0, -0.0381 0.4281 0.0039, -0.0381 0.4281 0.0, -0.0388 0.424 0.0039, -0.0388 0.424 0.0, -0.0389 0.422 0.0039, -0.0389 0.422 0.0, -0.0383 0.4168 0.0039, -0.0383 0.4168 0.0, -0.0369 0.4127 0.0039, -0.0369 0.4127 0.0, -0.0347 0.4092 0.0039, -0.0347 0.4092 0.0, -0.0315 0.4061 0.0039, -0.0315 0.4061 0.0, -0.0274 0.4037 0.0039, -0.0274 0.4037 0.0, -0.0229 0.4023 0.0039, -0.0229 0.4023 0.0, -0.0179 0.4018 0.0039, -0.0179 0.4018 0.0, -0.0072 0.4018 0.0039, -0.0072 0.4018 0.0, -0.0336 0.4219 0.0039, -0.0333 0.4258 0.0039, -0.0324 0.4289 0.0039, -0.031 0.4314 0.0039, -0.0291 0.4334 0.0039, -0.0262 0.4352 0.0039, -0.023 0.4364 0.0039, -0.0183 0.4369 0.0039, -0.0125 0.4369 0.0039, -0.0125 0.4062 0.0039, -0.0181 0.4062 0.0039, -0.0222 0.4066 0.0039, -0.0256 0.4076 0.0039, -0.0282 0.4092 0.0039, -0.0304 0.4114 0.0039, -0.0321 0.414 0.0039, -0.0331 0.4172 0.0039, -0.0181 0.4062 0.0, -0.0125 0.4062 0.0, -0.0222 0.4066 0.0, -0.0256 0.4076 0.0, -0.0282 0.4092 0.0, -0.0304 0.4114 0.0, -0.0321 0.414 0.0, -0.0331 0.4172 0.0, -0.0336 0.4219 0.0, -0.0333 0.4258 0.0, -0.0324 0.4289 0.0, -0.031 0.4314 0.0, -0.0291 0.4334 0.0, -0.0262 0.4352 0.0, -0.023 0.4364 0.0, -0.0183 0.4369 0.0, -0.0125 0.4369 0.0, 0.0216 0.4412 0.0039, 0.0216 0.4412 0.0, 0.0216 0.4018 0.0039, 0.0216 0.4018 0.0, 0.0014 0.4412 0.0039, 0.0014 0.4412 0.0, 0.0014 0.4369 0.0039, 0.0014 0.4369 0.0, 0.0163 0.4369 0.0039, 0.0163 0.4369 0.0, 0.0163 0.4239 0.0039, 0.0163 0.4239 0.0, 0.0024 0.4239 0.0039, 0.0024 0.4239 0.0, 0.0024 0.4196 0.0039, 0.0024 0.4196 0.0, 0.0163 0.4196 0.0039, 0.0163 0.4196 0.0, 0.0163 0.4062 0.0039, 0.0163 0.4062 0.0, 0.0005 0.4062 0.0039, 0.0005 0.4062 0.0, 0.0005 0.4018 0.0039, 0.0005 0.4018 0.0, 0.0424 0.4016 0.0, 0.0401 0.4014 0.0, 0.0401 0.4014 0.0039, 0.045 0.4019 0.0, 0.045 0.4019 0.0039, 0.0488 0.4032 0.0039, 0.0488 0.4032 0.0, 0.052 0.4052 0.0039, 0.052 0.4052 0.0, 0.0549 0.4083 0.0039, 0.0549 0.4083 0.0, 0.057 0.412 0.0039, 0.057 0.412 0.0, 0.0582 0.4162 0.0039, 0.0582 0.4162 0.0, 0.0586 0.4208 0.0039, 0.0586 0.4208 0.0, 0.058 0.4264 0.0039, 0.058 0.4264 0.0, 0.0565 0.4309 0.0039, 0.0565 0.4309 0.0, 0.0541 0.4346 0.0039, 0.0541 0.4346 0.0, 0.0507 0.4379 0.0039, 0.0507 0.4379 0.0, 0.047 0.44 0.0039, 0.047 0.44 0.0, 0.0427 0.4413 0.0039, 0.0427 0.4413 0.0, 0.0413 0.4415 0.0, 0.0385 0.4417 0.0039, 0.0385 0.4417 0.0, 0.0351 0.4415 0.0, 0.0338 0.4414 0.0039, 0.0338 0.4414 0.0, 0.0293 0.4401 0.0039, 0.0293 0.4401 0.0, 0.0293 0.4349 0.0039, 0.0293 0.4349 0.0, 0.0337 0.4368 0.0039, 0.0337 0.4368 0.0, 0.0385 0.4374 0.0039, 0.0385 0.4374 0.0, 0.0424 0.4369 0.0039, 0.0424 0.4369 0.0, 0.0453 0.4359 0.0039, 0.0453 0.4359 0.0, 0.0481 0.434 0.0039, 0.0481 0.434 0.0, 0.0505 0.4314 0.0039, 0.0505 0.4314 0.0, 0.0521 0.4283 0.0039, 0.0521 0.4283 0.0, 0.0531 0.4241 0.0039, 0.0531 0.4241 0.0, 0.0533 0.4211 0.0039, 0.0533 0.4211 0.0, 0.0529 0.4169 0.0039, 0.0529 0.4169 0.0, 0.0518 0.4135 0.0039, 0.0518 0.4135 0.0, 0.0502 0.4107 0.0039, 0.0502 0.4107 0.0, 0.0484 0.4088 0.0039, 0.0484 0.4088 0.0, 0.0459 0.4072 0.0039, 0.0459 0.4072 0.0, 0.043 0.4061 0.0039, 0.043 0.4061 0.0, 0.0394 0.4057 0.0039, 0.0394 0.4057 0.0, 0.0342 0.4063 0.0039, 0.0342 0.4063 0.0, 0.03 0.4078 0.0039, 0.03 0.4078 0.0, 0.0293 0.4082 0.0039, 0.0293 0.4082 0.0, 0.0293 0.4039 0.0039, 0.0293 0.4039 0.0, 0.0335 0.4022 0.0, 0.0335 0.4022 0.0039, 0.0375 0.4016 0.0, 0.039 0.4014 0.0039, 0.039 0.4014 0.0, 0.0821 0.4412 0.0039, 0.0821 0.4412 0.0, 0.0821 0.4018 0.0039, 0.0821 0.4018 0.0, 0.0768 0.4412 0.0039, 0.0768 0.4412 0.0, 0.0768 0.4062 0.0039, 0.0768 0.4062 0.0, 0.0619 0.4062 0.0039, 0.0619 0.4062 0.0, 0.0619 0.4018 0.0039, 0.0619 0.4018 0.0
            ]
        }
        coordIndex [
            0,1,2,-1,3,4,5,-1,1,6,2,-1,2,6,7,-1,2,7,8,-1,8,7,9,-1,8,9,10,-1,10,11,8,-1,8,11,12,-1,8,12,13,-1,14,13,15,-1,15,13,12,-1,15,12,5,-1,5,12,0,-1,5,0,3,-1,3,0,2,-1,15,16,14,-1,14,16,17,-1,5,18,15,-1,15,18,16,-1,4,19,5,-1,5,19,18,-1,3,20,4,-1,4,20,19,-1,2,21,3,-1,3,21,20,-1,8,22,2,-1,2,22,21,-1,13,23,8,-1,8,23,22,-1,13,14,23,-1,23,14,17,-1,24,11,10,-1,24,10,25,-1,25,10,9,-1,25,9,26,-1,7,27,9,-1,9,27,26,-1,27,7,6,-1,27,6,28,-1,28,6,1,-1,28,1,29,-1,0,30,1,-1,1,30,29,-1,12,31,0,-1,0,31,30,-1,24,31,11,-1,11,31,12,-1,32,33,34,-1,34,33,35,-1,33,32,36,-1,33,36,37,-1,37,36,38,-1,37,38,39,-1,39,38,40,-1,39,40,41,-1,41,40,42,-1,41,42,43,-1,43,42,44,-1,43,44,45,-1,45,44,46,-1,45,46,47,-1,47,46,48,-1,47,48,49,-1,49,48,50,-1,49,50,51,-1,51,50,52,-1,51,52,53,-1,53,52,54,-1,53,54,55,-1,55,54,56,-1,55,56,57,-1,57,56,58,-1,57,58,59,-1,59,58,60,-1,59,60,61,-1,61,60,62,-1,61,62,63,-1,63,62,64,-1,63,64,65,-1,66,67,64,-1,64,67,65,-1,66,34,67,-1,67,34,35,-1,52,50,68,-1,68,50,48,-1,68,48,69,-1,69,48,46,-1,69,46,70,-1,70,46,44,-1,70,44,71,-1,71,44,42,-1,71,42,72,-1,72,42,40,-1,72,40,73,-1,73,40,38,-1,73,38,74,-1,74,38,36,-1,74,36,75,-1,75,36,32,-1,75,32,76,-1,76,32,34,-1,76,34,77,-1,77,34,66,-1,77,66,78,-1,78,66,64,-1,78,64,79,-1,79,64,62,-1,79,62,80,-1,80,62,60,-1,80,60,81,-1,81,60,58,-1,81,58,82,-1,82,58,56,-1,82,56,83,-1,83,56,54,-1,83,54,84,-1,84,54,52,-1,84,52,68,-1,78,85,77,-1,77,85,86,-1,85,78,79,-1,85,79,87,-1,87,79,80,-1,87,80,88,-1,88,80,81,-1,88,81,89,-1,89,81,82,-1,89,82,90,-1,90,82,83,-1,90,83,91,-1,91,83,84,-1,91,84,92,-1,92,84,68,-1,92,68,93,-1,93,68,69,-1,93,69,94,-1,94,69,70,-1,94,70,95,-1,95,70,71,-1,95,71,96,-1,96,71,72,-1,96,72,97,-1,97,72,73,-1,97,73,98,-1,98,73,74,-1,98,74,99,-1,99,74,75,-1,99,75,100,-1,76,101,75,-1,75,101,100,-1,86,101,77,-1,77,101,76,-1,102,103,104,-1,104,103,105,-1,106,107,102,-1,102,107,103,-1,108,109,106,-1,106,109,107,-1,110,111,108,-1,108,111,109,-1,112,113,110,-1,110,113,111,-1,114,115,112,-1,112,115,113,-1,116,117,114,-1,114,117,115,-1,118,119,116,-1,116,119,117,-1,120,121,118,-1,118,121,119,-1,122,123,120,-1,120,123,121,-1,124,125,122,-1,122,125,123,-1,124,104,125,-1,125,104,105,-1,104,124,122,-1,122,120,104,-1,104,120,118,-1,104,118,102,-1,108,106,110,-1,110,106,102,-1,110,102,112,-1,112,102,118,-1,112,118,114,-1,114,118,116,-1,126,127,128,-1,126,128,129,-1,128,130,129,-1,129,130,131,-1,129,131,132,-1,132,131,133,-1,132,133,134,-1,134,133,135,-1,134,135,136,-1,136,135,137,-1,136,137,138,-1,138,137,139,-1,138,139,140,-1,140,139,141,-1,140,141,142,-1,142,141,143,-1,142,143,144,-1,144,143,145,-1,144,145,146,-1,146,145,147,-1,146,147,148,-1,148,147,149,-1,148,149,150,-1,150,149,151,-1,150,151,152,-1,152,151,153,-1,152,153,154,-1,154,153,155,-1,155,153,156,-1,155,156,157,-1,157,156,158,-1,158,156,159,-1,158,159,160,-1,160,159,161,-1,160,161,162,-1,163,164,161,-1,161,164,162,-1,164,163,165,-1,164,165,166,-1,166,165,167,-1,166,167,168,-1,168,167,169,-1,168,169,170,-1,170,169,171,-1,170,171,172,-1,172,171,173,-1,172,173,174,-1,174,173,175,-1,174,175,176,-1,176,175,177,-1,176,177,178,-1,178,177,179,-1,178,179,180,-1,180,179,181,-1,180,181,182,-1,182,181,183,-1,182,183,184,-1,184,183,185,-1,184,185,186,-1,186,185,187,-1,186,187,188,-1,188,187,189,-1,188,189,190,-1,190,189,191,-1,190,191,192,-1,192,191,193,-1,192,193,194,-1,194,193,195,-1,194,195,196,-1,196,195,197,-1,196,197,198,-1,198,197,199,-1,198,199,200,-1,200,199,201,-1,200,201,202,-1,203,204,201,-1,201,204,202,-1,205,204,206,-1,206,204,203,-1,205,206,207,-1,207,206,208,-1,207,208,209,-1,209,208,128,-1,209,128,127,-1,193,128,195,-1,195,128,208,-1,195,208,197,-1,197,208,206,-1,197,206,199,-1,199,206,203,-1,199,203,201,-1,163,161,165,-1,165,161,159,-1,165,159,167,-1,167,159,156,-1,167,156,169,-1,169,156,153,-1,169,153,171,-1,171,153,151,-1,171,151,173,-1,173,151,149,-1,173,149,175,-1,175,149,147,-1,175,147,177,-1,177,147,145,-1,177,145,179,-1,179,145,143,-1,179,143,181,-1,181,143,141,-1,181,141,183,-1,183,141,139,-1,183,139,185,-1,185,139,137,-1,185,137,187,-1,187,137,135,-1,187,135,189,-1,189,135,133,-1,189,133,191,-1,191,133,131,-1,191,131,193,-1,193,131,130,-1,193,130,128,-1,210,211,212,-1,212,211,213,-1,214,215,210,-1,210,215,211,-1,216,217,214,-1,214,217,215,-1,218,219,216,-1,216,219,217,-1,220,221,218,-1,218,221,219,-1,220,212,221,-1,221,212,213,-1,214,210,216,-1,216,210,212,-1,216,212,218,-1,218,212,220,-1,
        ]
    }
}
Shape{
    appearance Appearance {
        material  Material 	{
            diffuseColor 1.0 1.0 1.0
            specularColor 0.30196078431372547 0.30196078431372547 0.30196078431372547
            ambientIntensity 1.0
            transparency 0.0
            shininess 0.5
        }
    }
    geometry IndexedFaceSet {
        ccw TRUE
        solid FALSE
        coord DEF co Coordinate {
            point [
                -0.0526 0.4172 0.0, -0.0658 0.4172 0.0, -0.0585 0.4337 0.0, -0.0599 0.4337 0.0, -0.0589 0.435 0.0, -0.0595 0.435 0.0, -0.0591 0.4364 0.0, -0.0593 0.4364 0.0, -0.0125 0.4369 0.0, -0.0125 0.4062 0.0, -0.0183 0.4369 0.0, -0.0181 0.4062 0.0, -0.0331 0.4172 0.0, -0.0336 0.4219 0.0, -0.0333 0.4258 0.0, -0.0324 0.4289 0.0, -0.023 0.4364 0.0, -0.0222 0.4066 0.0, -0.0256 0.4076 0.0, -0.0282 0.4092 0.0, -0.031 0.4314 0.0, -0.0291 0.4334 0.0, -0.0262 0.4352 0.0, -0.0304 0.4114 0.0, -0.0321 0.414 0.0, 0.8262 -0.0598 0.455, 0.8262 -0.0598 1.0866, 1.1804 -0.0598 0.455, 1.1804 -0.0598 1.0866, 1.1804 -0.0795 1.0866, 0.8262 -0.0795 1.0866, 0.8262 -0.0795 0.455, 1.1804 -0.0795 0.455, 1.1607 -0.0992 0.4747, 1.1607 -0.0992 1.0669, 0.8459 -0.0992 0.4747, 0.8459 -0.0992 1.0669, 1.1746 -0.0934 1.0808, 1.1763 -0.0915 1.0825, 0.8302 -0.0915 1.0825, 1.1777 -0.0893 1.084, 0.8288 -0.0893 1.084, 1.1789 -0.087 1.0851, 0.8277 -0.087 1.0851, 1.1797 -0.0846 1.0859, 0.8268 -0.0846 1.0859, 1.1802 -0.0821 1.0864, 0.8263 -0.0821 1.0864, 0.8319 -0.0934 1.0808, 0.836 -0.0966 1.0768, 1.1705 -0.0966 1.0768, 0.8408 -0.0985 1.072, 1.1658 -0.0985 1.072, 1.1802 -0.0821 0.4552, 1.1797 -0.0846 0.4557, 1.1789 -0.087 0.4565, 1.1777 -0.0893 0.4576, 1.1763 -0.0915 0.4591, 1.1746 -0.0934 0.4608, 1.1705 -0.0966 0.4648, 1.1658 -0.0985 0.4696, 0.8302 -0.0915 0.4591, 0.8319 -0.0934 0.4608, 0.836 -0.0966 0.4648, 0.8408 -0.0985 0.4696, 0.8288 -0.0893 0.4576, 0.8277 -0.087 0.4565, 0.8268 -0.0846 0.4557, 0.8263 -0.0821 0.4552
            ]
        }
        coordIndex [
            0,1,2,-1,2,1,3,-1,2,3,4,-1,4,3,5,-1,4,5,6,-1,6,5,7,-1,8,9,10,-1,10,9,11,-1,12,13,10,-1,13,14,10,-1,10,14,15,-1,10,15,16,-1,11,17,10,-1,10,17,18,-1,10,18,19,-1,20,21,15,-1,15,21,22,-1,15,22,16,-1,19,23,10,-1,10,23,24,-1,10,24,12,-1,25,26,27,-1,27,26,28,-1,29,28,30,-1,30,28,26,-1,30,26,31,-1,31,26,25,-1,31,25,32,-1,32,25,27,-1,32,27,29,-1,29,27,28,-1,33,34,35,-1,35,34,36,-1,37,38,39,-1,39,38,40,-1,39,40,41,-1,41,40,42,-1,41,42,43,-1,43,42,44,-1,43,44,45,-1,45,44,46,-1,45,46,47,-1,47,46,29,-1,47,29,30,-1,39,48,37,-1,37,48,49,-1,37,49,50,-1,50,49,51,-1,50,51,52,-1,52,51,36,-1,52,36,34,-1,32,29,53,-1,53,29,46,-1,53,46,54,-1,54,46,44,-1,54,44,55,-1,55,44,42,-1,55,42,56,-1,56,42,40,-1,56,40,57,-1,57,40,38,-1,57,38,58,-1,38,37,58,-1,58,37,50,-1,58,50,59,-1,59,50,52,-1,59,52,60,-1,60,52,34,-1,60,34,33,-1,61,62,48,-1,48,62,63,-1,48,63,49,-1,49,63,64,-1,49,64,51,-1,51,64,35,-1,51,35,36,-1,48,39,61,-1,61,39,41,-1,61,41,65,-1,65,41,43,-1,65,43,66,-1,66,43,45,-1,66,45,67,-1,67,45,47,-1,67,47,68,-1,68,47,30,-1,68,30,31,-1,62,61,57,-1,57,61,65,-1,57,65,56,-1,56,65,66,-1,56,66,55,-1,55,66,67,-1,55,67,54,-1,54,67,68,-1,54,68,53,-1,53,68,31,-1,53,31,32,-1,57,58,62,-1,62,58,59,-1,62,59,63,-1,63,59,60,-1,63,60,64,-1,64,60,33,-1,64,33,35,-1,
        ]
    }
}
Shape{
    appearance Appearance {
        material  Material 	{
            diffuseColor 0.7764705882352941 0.7568627450980392 0.7372549019607844
            specularColor 0.38823529411764707 0.3764705882352941 0.3686274509803922
            ambientIntensity 0.7605
            transparency 0.0
            shininess 0.5
        }
    }
    geometry IndexedFaceSet {
        ccw TRUE
        solid FALSE
        coord DEF co Coordinate {
            point [
                -0.935 1.0268 0.0, -0.935 0.7158 0.0, -0.935 1.0268 0.0787, -0.935 0.7158 0.0787, -0.7185 1.0268 0.0, -0.7185 1.0268 0.0787, -0.7185 0.7158 0.0, -0.7185 0.7158 0.0787
            ]
        }
        coordIndex [
            0,1,2,-1,2,1,3,-1,4,0,5,-1,5,0,2,-1,6,4,7,-1,7,4,5,-1,1,6,3,-1,3,6,7,-1,4,6,0,-1,0,6,1,-1,7,5,3,-1,3,5,2,-1,
        ]
    }
}
Shape{
    appearance Appearance {
        material  Material 	{
            diffuseColor 1.0 1.0 1.0
            specularColor 0.30196078431372547 0.30196078431372547 0.30196078431372547
            ambientIntensity 1.0
            transparency 0.0
            shininess 0.5
        }
    }
    geometry IndexedFaceSet {
        ccw TRUE
        solid FALSE
        coord DEF co Coordinate {
            point [
                -1.1804 -0.0795 0.455, -1.1804 -0.0598 0.455, -0.8262 -0.0795 0.455, -0.8262 -0.0598 0.455, -0.8262 -0.0795 1.0866, -0.8262 -0.0598 1.0866, -1.1804 -0.0795 1.0866, -1.1804 -0.0598 1.0866, -1.1607 -0.0992 0.4747, -0.8459 -0.0992 0.4747, -1.1607 -0.0992 1.0669, -0.8459 -0.0992 1.0669, -0.832 -0.0934 0.4608, -0.836 -0.0966 1.0768, -0.836 -0.0966 0.4648, -0.8408 -0.0985 1.072, -0.8408 -0.0985 0.4696, -0.8264 -0.0821 0.4552, -0.8264 -0.0821 1.0864, -0.8269 -0.0846 0.4557, -0.8269 -0.0846 1.0859, -0.8277 -0.087 0.4565, -0.8277 -0.087 1.0851, -0.8288 -0.0893 0.4576, -0.8288 -0.0893 1.084, -0.8303 -0.0915 0.4591, -0.8303 -0.0915 1.0825, -0.832 -0.0934 1.0808, -1.1706 -0.0966 1.0768, -1.1658 -0.0985 1.072, -1.1802 -0.0821 1.0864, -1.1797 -0.0846 1.0859, -1.1789 -0.087 1.0851, -1.1778 -0.0893 1.084, -1.1763 -0.0915 1.0825, -1.1746 -0.0934 1.0808, -1.1746 -0.0934 0.4608, -1.1763 -0.0915 0.4591, -1.1778 -0.0893 0.4576, -1.1789 -0.087 0.4565, -1.1797 -0.0846 0.4557, -1.1802 -0.0821 0.4552, -1.1706 -0.0966 0.4648, -1.1658 -0.0985 0.4696
            ]
        }
        coordIndex [
            0,1,2,-1,2,1,3,-1,2,3,4,-1,4,3,5,-1,4,5,6,-1,6,5,7,-1,6,7,0,-1,0,7,1,-1,8,9,10,-1,10,9,11,-1,7,5,1,-1,1,5,3,-1,12,13,14,-1,14,13,15,-1,14,15,16,-1,16,15,11,-1,16,11,9,-1,2,4,17,-1,17,4,18,-1,17,18,19,-1,19,18,20,-1,19,20,21,-1,21,20,22,-1,21,22,23,-1,23,22,24,-1,23,24,25,-1,25,24,26,-1,25,26,12,-1,12,26,27,-1,12,27,13,-1,27,28,13,-1,13,28,29,-1,13,29,15,-1,15,29,10,-1,15,10,11,-1,4,6,18,-1,18,6,30,-1,18,30,20,-1,20,30,31,-1,20,31,22,-1,22,31,32,-1,22,32,24,-1,24,32,33,-1,24,33,26,-1,26,33,34,-1,26,34,27,-1,27,34,35,-1,27,35,28,-1,36,37,25,-1,25,37,38,-1,25,38,23,-1,23,38,39,-1,23,39,21,-1,21,39,40,-1,21,40,19,-1,19,40,41,-1,19,41,17,-1,17,41,0,-1,17,0,2,-1,25,12,36,-1,36,12,14,-1,36,14,42,-1,42,14,16,-1,42,16,43,-1,43,16,9,-1,43,9,8,-1,37,36,35,-1,35,36,42,-1,35,42,28,-1,28,42,43,-1,28,43,29,-1,29,43,8,-1,29,8,10,-1,35,34,37,-1,37,34,33,-1,37,33,38,-1,38,33,32,-1,38,32,39,-1,39,32,31,-1,39,31,40,-1,40,31,30,-1,40,30,41,-1,41,30,6,-1,41,6,0,-1,
        ]
    }
}